STARTFONT 2.1
COMMENT
COMMENT Converted from OpenType font "RuthlessSketch_Italic.ttf" by "otf2bdf 3.0".
COMMENT
FONT -FreeType-Ruthless Sketch-Medium-I-Normal--39-280-100-100-P-209-ISO10646-1
SIZE 28 100 100
FONTBOUNDINGBOX 51 43 -18 -8
STARTPROPERTIES 19
FOUNDRY "FreeType"
FAMILY_NAME "Ruthless Sketch"
WEIGHT_NAME "Medium"
SLANT "I"
SETWIDTH_NAME "Normal"
ADD_STYLE_NAME ""
PIXEL_SIZE 39
POINT_SIZE 280
RESOLUTION_X 100
RESOLUTION_Y 100
SPACING "P"
AVERAGE_WIDTH 209
CHARSET_REGISTRY "ISO10646"
CHARSET_ENCODING "1"
FONT_ASCENT 36
FONT_DESCENT 7
COPYRIGHT "© 2024 GGBotNet. All Rights Reserved."
_OTF_FONTFILE "RuthlessSketch_Italic.ttf"
_OTF_PSNAME "RuthlessSketch-Italic"
ENDPROPERTIES
CHARS 1105
STARTCHAR 0020
ENCODING 32
SWIDTH 308 0
DWIDTH 12 0
BBX 0 0 0 0
BITMAP
ENDCHAR
STARTCHAR 0021
ENCODING 33
SWIDTH 282 0
DWIDTH 11 0
BBX 14 30 3 -1
BITMAP
03FC
1FFC
1FF8
1FF8
1FF0
1FF0
1FE0
1FE0
1FE0
3FC0
3FC0
3FC0
3F80
3F80
3F80
3F80
3F00
3F00
3F00
3C00
0000
0000
0C00
7E00
FE00
FE00
FE00
FE00
7C00
2000
ENDCHAR
STARTCHAR 0022
ENCODING 34
SWIDTH 385 0
DWIDTH 15 0
BBX 15 14 5 14
BITMAP
3E3E
7E3E
7E7E
7C7E
7C7E
FC7C
FC7C
F87C
F878
7878
7070
7070
6060
6060
ENDCHAR
STARTCHAR 0023
ENCODING 35
SWIDTH 514 0
DWIDTH 20 0
BBX 23 27 2 0
BITMAP
001E1A
003E1C
003E3C
007C38
007C78
007870
00F9F0
1FFFFC
1FFFF8
1FFFF8
3FFFF8
3FFFC0
03C780
078F80
078FE0
7FFFF0
7FFFF0
7FFFE0
7FFFE0
FFFC00
3C7C00
387800
78F800
70F000
F1F000
E1E000
412000
ENDCHAR
STARTCHAR 0024
ENCODING 36
SWIDTH 488 0
DWIDTH 19 0
BBX 23 36 1 -4
BITMAP
0003C0
0007C0
000FC0
000F80
000F80
000FE0
003FF8
00FFFC
03FFFE
03FFFE
07FFFE
07FFFC
07FF1C
0FFE00
07FE00
07FE00
07FF00
07FFC0
01FFC0
007FE0
00FFE0
00FFE0
18FFE0
1FFFE0
3FFFC0
3FFF80
7FFF80
7FFF00
7FFF00
FFFE00
FFFC00
07F000
03E000
03E000
03E000
07C000
ENDCHAR
STARTCHAR 0025
ENCODING 37
SWIDTH 565 0
DWIDTH 22 0
BBX 23 27 2 0
BITMAP
00000C
01E01E
03F03C
07F07C
0E7078
1C70F0
1C71F0
1C73E0
1CF3C0
1FE780
1FCF80
0F9F00
003E00
003C40
0079F0
00F3F8
01F7F8
03EF38
07CE38
078E38
0F0E38
1F0E70
3E0FF0
7C0FE0
780380
F00000
200000
ENDCHAR
STARTCHAR 0026
ENCODING 38
SWIDTH 488 0
DWIDTH 19 0
BBX 20 26 2 1
BITMAP
007800
01FE00
03FF00
07FF00
07DF00
079E00
0F9E00
0FBC00
07FC00
07F800
07F8F0
0FF9F0
1FFDE0
3FFDE0
3E7FC0
7E3FC0
7C3F80
7C1F80
FC0F80
FC1FC0
FFFFE0
FFFFE0
7FFDC0
7FFDC0
3FF8C0
0FE040
ENDCHAR
STARTCHAR 0027
ENCODING 39
SWIDTH 205 0
DWIDTH 8 0
BBX 8 14 5 14
BITMAP
3F
7F
7F
7F
7F
FE
FE
FC
FC
78
78
70
70
60
ENDCHAR
STARTCHAR 0028
ENCODING 40
SWIDTH 334 0
DWIDTH 13 0
BBX 16 37 3 -6
BITMAP
0008
001C
003F
007F
00FE
01FC
01F0
03E0
07C0
0FC0
1F80
1F00
3E00
3E00
7C00
7C00
7C00
7C00
7C00
F800
F800
F800
F800
F800
F000
F000
F000
F800
F800
7C00
7C00
7C00
3E00
3F00
1F80
1F80
0E00
ENDCHAR
STARTCHAR 0029
ENCODING 41
SWIDTH 334 0
DWIDTH 13 0
BBX 17 36 0 -6
BITMAP
007000
01F800
01F800
00FC00
007C00
003E00
003E00
001E00
001F00
001F00
000F00
000F00
000F80
000F80
001F00
001F00
001F00
001F00
001F00
003E00
003E00
003E00
003E00
003C00
007C00
00F800
00F800
01F000
03E000
07E000
0FC000
1F8000
3F0000
7E0000
FC0000
380000
ENDCHAR
STARTCHAR 002A
ENCODING 42
SWIDTH 308 0
DWIDTH 12 0
BBX 12 11 5 17
BITMAP
0300
3330
7BF0
3FE0
1F80
0F00
1F80
7FE0
ECE0
0C00
0C00
ENDCHAR
STARTCHAR 002B
ENCODING 43
SWIDTH 462 0
DWIDTH 18 0
BBX 18 17 3 5
BITMAP
00FC00
00FC00
00F800
00F800
01F800
1DFA00
7FFFC0
7FFFC0
7FFFC0
FFFFC0
FFFF80
03E000
03E000
07E000
07E000
07C000
07C000
ENDCHAR
STARTCHAR 002C
ENCODING 44
SWIDTH 205 0
DWIDTH 8 0
BBX 10 13 -2 -7
BITMAP
0380
0FC0
0FC0
0FC0
0FC0
0FC0
0F80
0F00
3E00
7E00
FC00
7800
3000
ENDCHAR
STARTCHAR 002D
ENCODING 45
SWIDTH 385 0
DWIDTH 15 0
BBX 15 6 3 11
BITMAP
7FFE
7FFE
7FFC
FFFC
FFFC
FFFC
ENDCHAR
STARTCHAR 002E
ENCODING 46
SWIDTH 205 0
DWIDTH 8 0
BBX 8 7 1 0
BITMAP
1C
3F
7F
FE
FE
FE
7C
ENDCHAR
STARTCHAR 002F
ENCODING 47
SWIDTH 437 0
DWIDTH 17 0
BBX 23 31 0 -2
BITMAP
000032
00003E
00007C
0000FC
0001F8
0001F8
0003F0
0007E0
0007E0
000FC0
000FC0
001F80
003F80
003F00
007E00
00FE00
00FC00
01FC00
03F800
03F800
07F000
07F000
0FE000
0FE000
1FC000
3FC000
3F8000
7F8000
7F0000
7F0000
FE0000
ENDCHAR
STARTCHAR 0030
ENCODING 48
SWIDTH 385 0
DWIDTH 15 0
BBX 15 27 3 0
BITMAP
01E0
03F0
07F8
0FF8
0FFC
0FFE
1FFE
1FFE
3FBE
3F3E
7E3E
7E3E
7C3E
FC3E
FC3E
FC7C
FEFC
FFFC
FFF8
FFF8
7FF8
7FF0
7FF0
7FE0
3FE0
1FC0
0F80
ENDCHAR
STARTCHAR 0031
ENCODING 49
SWIDTH 411 0
DWIDTH 16 0
BBX 14 26 5 1
BITMAP
0020
00F8
03FC
0FFC
1FFC
7FFC
FFF8
7DF8
3BF8
33F8
17F8
07F8
07F0
0FF0
0FF0
0FF0
1FF0
1FF0
1FF0
3FE0
3FE0
3FE0
7FE0
7FE0
7FE0
07E0
ENDCHAR
STARTCHAR 0032
ENCODING 50
SWIDTH 514 0
DWIDTH 20 0
BBX 20 27 2 0
BITMAP
007800
00FE00
03FF80
07FFC0
0FFFC0
1FFFC0
0FFF80
0F0F80
060F80
001F80
001F00
003F00
003E00
007C00
007C00
00F800
01FFF0
03FFE0
03FFE0
07FFC0
0FFFC0
1FFF80
3FFF80
FFFF80
FFFE00
3FF000
030000
ENDCHAR
STARTCHAR 0033
ENCODING 51
SWIDTH 462 0
DWIDTH 18 0
BBX 18 26 2 0
BITMAP
03FE00
07FE00
07FE00
07FE00
003C00
007800
00F800
01F000
03F800
07FF00
0FFF80
0FFF80
0FFF80
021FC0
000FC0
0007C0
0007C0
0007C0
000F80
001F80
E07F00
FFFF00
FFFE00
7FFC00
1FF000
07C000
ENDCHAR
STARTCHAR 0034
ENCODING 52
SWIDTH 437 0
DWIDTH 17 0
BBX 17 27 3 -1
BITMAP
01F000
03F000
03E000
03E000
07E000
07C000
0FC000
0F8000
1F8000
1F3F80
3FFF80
3FFF80
7FFF00
7FFF00
FFFE00
F0F000
01F000
03E000
03E000
07E000
07E000
0FE000
0FE000
1FE000
1FE000
3FE000
200000
ENDCHAR
STARTCHAR 0035
ENCODING 53
SWIDTH 462 0
DWIDTH 18 0
BBX 20 27 2 0
BITMAP
0002F0
00FFF0
00FFF0
01FFE0
01FF80
01F000
03F000
03F000
07FE00
07FF00
07FF00
0FFF80
187F80
003FC0
001FC0
001FC0
001FC0
001FC0
001FC0
001FC0
C03F80
E07F80
FFFF00
FFFE00
FFFC00
3FF800
0FF000
ENDCHAR
STARTCHAR 0036
ENCODING 54
SWIDTH 488 0
DWIDTH 19 0
BBX 19 28 3 -1
BITMAP
000380
001FC0
003FE0
00FFE0
01FFC0
03F000
07C000
0F8000
1F8000
3F8000
3FB000
7FFC00
7FFE00
7FFF00
FFFF80
FF3F80
FE1FC0
FC1FC0
FC0F80
F81F80
F81F80
F83F80
FC3F00
FFFE00
FFFE00
7FFC00
3FF000
0F8000
ENDCHAR
STARTCHAR 0037
ENCODING 55
SWIDTH 411 0
DWIDTH 16 0
BBX 20 25 1 1
BITMAP
03FFF0
07FFF0
07FFF0
07FFE0
0FFFE0
0FFFE0
0F0FC0
080FC0
001FC0
003F80
003F80
007F00
00FF00
01FE00
01FE00
03FC00
07FC00
0FF800
0FF800
1FF800
3FF000
3FF000
7FE000
FFE000
F80000
ENDCHAR
STARTCHAR 0038
ENCODING 56
SWIDTH 488 0
DWIDTH 19 0
BBX 19 27 2 0
BITMAP
003F80
00FFC0
01FFC0
03FFC0
03E3C0
03E7C0
03E780
03FF00
03FF00
03FF00
07FF00
0FFF80
1FFF80
1FFFC0
3F1FC0
3F0FE0
7E07E0
7E07E0
FE07E0
7F0FC0
7F9FC0
7FFFC0
7FFF80
7FFF00
3FFE00
0FFC00
03E000
ENDCHAR
STARTCHAR 0039
ENCODING 57
SWIDTH 462 0
DWIDTH 18 0
BBX 18 26 3 0
BITMAP
03FE00
0FFF80
0FFFC0
1FFFC0
1F9FC0
3F0FC0
3F07C0
3E0FC0
7E0FC0
7E1FC0
7FFFC0
7FFFC0
3FFF80
1FFF80
01FF80
001F00
001F00
001F00
C03F00
F0FE00
FFFE00
FFFC00
FFFC00
FFF800
7FF000
0F0000
ENDCHAR
STARTCHAR 003A
ENCODING 58
SWIDTH 205 0
DWIDTH 8 0
BBX 10 19 1 0
BITMAP
0780
0FC0
1FC0
1FC0
1FC0
1F80
0E00
0000
0000
0000
0000
0000
1C00
3E00
7E00
FE00
FE00
7E00
7C00
ENDCHAR
STARTCHAR 003B
ENCODING 59
SWIDTH 205 0
DWIDTH 8 0
BBX 13 25 -2 -7
BITMAP
00F0
01F8
03F8
03F8
03F8
03F0
01E0
0000
0000
0000
0000
0000
0380
0FC0
0FC0
0FC0
0FC0
0FC0
0F80
0F00
3E00
7E00
FC00
7800
3000
ENDCHAR
STARTCHAR 003C
ENCODING 60
SWIDTH 462 0
DWIDTH 18 0
BBX 20 21 3 4
BITMAP
000070
0001F0
0007E0
001FE0
007FE0
03FFE0
0FFFE0
7FFFC0
7FFC00
7FC000
7F0000
FFE000
7FFE00
3FFF80
0FFF80
07FF00
03FF00
01FF00
007F00
003F00
000F00
ENDCHAR
STARTCHAR 003D
ENCODING 61
SWIDTH 462 0
DWIDTH 18 0
BBX 20 14 2 7
BITMAP
0007E0
1FFFF0
1FFFF0
1FFFF0
3FFFF0
3FFF80
000000
000000
000080
7FFFE0
7FFFC0
7FFFC0
7FFFC0
FFFFC0
ENDCHAR
STARTCHAR 003E
ENCODING 62
SWIDTH 462 0
DWIDTH 18 0
BBX 19 21 2 3
BITMAP
0E0000
0F8000
0FE000
1FF000
1FF800
1FFE00
1FFF00
1FFF80
07FFC0
00FFE0
000FE0
007FE0
07FFC0
7FFFC0
7FFE00
FFF800
FFC000
FF0000
FC0000
F00000
C00000
ENDCHAR
STARTCHAR 003F
ENCODING 63
SWIDTH 462 0
DWIDTH 18 0
BBX 17 28 5 0
BITMAP
07F000
1FFF00
3FFF80
3FFF80
7FFF80
7FFF80
FC3F80
703F80
003F80
003F00
007F00
00FE00
07FE00
1FFC00
1FF000
3FC000
3F8000
3F0000
3F0000
180000
000000
000000
3C0000
7E0000
FE0000
FE0000
FC0000
780000
ENDCHAR
STARTCHAR 0040
ENCODING 64
SWIDTH 642 0
DWIDTH 25 0
BBX 26 34 2 -6
BITMAP
0003F800
001FFE00
007FFF80
01FFFF80
03FFFFC0
07FFFFC0
07FFFFC0
0FFFBFC0
0FF00FC0
1FC00FC0
1F81FFC0
3F87FFC0
3F0FFFC0
3F1F8FC0
7F1F0FC0
7F3E0FC0
7E3E0FC0
7E3E0F80
7E7E1F80
7E3E7F00
FE3FFF00
FE3FFE00
FE1FF800
FE0FE000
FE000000
FF000000
FF01F000
FFFFF800
FFFFF800
7FFFF800
7FFFE000
3FFFC000
0FFF0000
00F80000
ENDCHAR
STARTCHAR 0041
ENCODING 65
SWIDTH 617 0
DWIDTH 24 0
BBX 23 27 1 -1
BITMAP
0000F0
0001F0
0003F0
0003F0
0007F0
0007F0
000FF0
000FF0
001FF0
003FF0
003FF0
007FF0
00FFF8
00FFF8
01E7F8
03E3F8
03C3F8
078FF8
0FFFF8
0FFFF8
1FFFFC
1F87FC
3F07FC
7F07FC
7E07FE
FE07FE
F00000
ENDCHAR
STARTCHAR 0042
ENCODING 66
SWIDTH 514 0
DWIDTH 20 0
BBX 17 27 4 0
BITMAP
07A000
1FFE00
3FFF00
3FFF00
3FFF00
7FFF80
7F3F80
7F1F80
3F1F00
3F1F00
7F3E00
7F7E00
7FF800
7FFC00
7FFF00
7FFF80
7F1F80
7F1F80
FF1F80
FF3F80
FF7F80
FFFF00
FFFF00
FFFC00
FFF800
FFE000
780000
ENDCHAR
STARTCHAR 0043
ENCODING 67
SWIDTH 488 0
DWIDTH 19 0
BBX 20 26 3 0
BITMAP
003FC0
01FFE0
03FFF0
07FFF0
0FFFF0
1FFFF0
3FFFE0
3FF000
7FC000
7F8000
7F8000
7F0000
7F0000
FF8000
FFC380
FFFF80
FFFF80
FFFF80
FFFF80
FFFF00
7FFF00
7FFF00
7FFC00
7FFC00
0FF000
008000
ENDCHAR
STARTCHAR 0044
ENCODING 68
SWIDTH 462 0
DWIDTH 18 0
BBX 17 27 4 0
BITMAP
060000
1FE000
3FFC00
3FFC00
7FFE00
7FFF00
7FFF00
7FFF00
7F1F80
7E0F80
FE0F80
FE1F80
FE1F80
FE3F00
FE3E00
FEFE00
FFFC00
FFF800
FFF800
FFF000
FFE000
FFC000
FF8000
FF0000
FC0000
F00000
C00000
ENDCHAR
STARTCHAR 0045
ENCODING 69
SWIDTH 488 0
DWIDTH 19 0
BBX 15 27 5 0
BITMAP
0FFC
3FFE
7FFE
7FFC
7FFC
7FF8
7FF8
7FF8
7F00
7E00
7F00
7FF0
7FF0
7FF0
7FF0
7E00
7E04
7FFC
FFFC
7FFC
7FFC
FFFC
FFFC
FFFC
FFF8
FF80
F000
ENDCHAR
STARTCHAR 0046
ENCODING 70
SWIDTH 488 0
DWIDTH 19 0
BBX 22 27 2 0
BITMAP
007FFC
07FFFC
0FFFFC
0FFFFC
1FFFFC
1FFFFC
1FE000
1FC000
1FC000
3F8000
3FFC00
3FF800
3FF800
3FF800
7FF800
7F9000
7F0000
7F0000
FE0000
FE0000
FE0000
FE0000
FE0000
FE0000
FE0000
FE0000
F80000
ENDCHAR
STARTCHAR 0047
ENCODING 71
SWIDTH 488 0
DWIDTH 19 0
BBX 21 27 2 0
BITMAP
000F80
003FE0
007FF0
00FFF8
01FFF8
03FFF8
03F9E0
07E000
07C000
0F8000
0F8000
1F0070
1F0FF0
3E1FF0
3E1FE0
3E1FE0
7E1FE0
7E1FE0
FF3FE0
FFFFC0
FFFFC0
FFFF80
FFFF00
7FFC00
7FF000
3FC000
080000
ENDCHAR
STARTCHAR 0048
ENCODING 72
SWIDTH 540 0
DWIDTH 21 0
BBX 25 25 1 1
BITMAP
007F0000
01FE1F80
01FE3F80
01FE3F80
01FE3F80
01FC7F00
03FC7F00
03FC7F00
03FC7F00
07FDFE00
07FFFE00
07FFFE00
0FFFFC00
0FFFFC00
0FFFFC00
1FFFFC00
1FFFFC00
1FE3FC00
3FE3F800
3FE7F800
3FC7F800
3FC7F000
7FC7F000
7FC7F000
FF8F8000
ENDCHAR
STARTCHAR 0049
ENCODING 73
SWIDTH 334 0
DWIDTH 13 0
BBX 17 26 1 0
BITMAP
00FF80
00FF00
00FF00
01FE00
01FE00
01FE00
03FC00
03FC00
03FC00
07FC00
07F800
07F800
0FF800
0FF800
0FF000
0FF000
1FF000
1FF000
1FF000
1FE000
3FE000
3FC000
3FC000
7FC000
7F8000
F80000
ENDCHAR
STARTCHAR 004A
ENCODING 74
SWIDTH 437 0
DWIDTH 17 0
BBX 20 26 2 0
BITMAP
000FF0
001FF0
001FF0
003FF0
003FE0
003FE0
007FE0
007FE0
007FE0
007FE0
007FE0
00FFC0
00FFC0
00FFC0
007FC0
007F80
007F80
3C7F80
FC7F00
FEFF00
FEFE00
FFFE00
FFFC00
7FF800
3FE000
0FC000
ENDCHAR
STARTCHAR 004B
ENCODING 75
SWIDTH 540 0
DWIDTH 21 0
BBX 25 27 1 0
BITMAP
00010400
07FF1C00
03FE3F00
07FE7F80
07FE7F00
07FEFE00
0FFDFC00
0FFDF800
0FFFF000
0FFFE000
0FFFC000
1FFFC000
1FFF8000
1FFF0000
3FFE0000
3FFF0000
3FFF8000
3FFF8000
7FFFC000
7FFFE000
7FEFE000
7FE7F000
7FC7F000
FFC3F000
FFE3F000
FFC39000
CF830000
ENDCHAR
STARTCHAR 004C
ENCODING 76
SWIDTH 514 0
DWIDTH 20 0
BBX 19 28 1 -1
BITMAP
000100
007FE0
00FFC0
00FFC0
00FF80
01FF80
01FF80
01FF00
03FF00
03FF00
03FE00
07FE00
07FE00
07FC00
0FFC00
0FF800
1FF800
1FF800
1FF000
3FFFE0
3FFFE0
3FFFE0
3FFFE0
7FFFE0
7FFFE0
7FFFC0
FFB200
800000
ENDCHAR
STARTCHAR 004D
ENCODING 77
SWIDTH 642 0
DWIDTH 25 0
BBX 26 27 1 0
BITMAP
00400000
00E001C0
00E003C0
00F007C0
00F007C0
01F80FC0
01F81F80
01FC3F80
03FC3FC0
03FC7FC0
07FEFF80
07FFFF80
07FFFF80
0FFFFF80
0FFFFF80
0FFFFF80
1FF77F80
1FE2FF80
1FC0FF00
3FC0FF00
3F81FF00
7F81FF00
7F01FF00
7F01FF00
FE01FF00
FE03FF00
FC000000
ENDCHAR
STARTCHAR 004E
ENCODING 78
SWIDTH 565 0
DWIDTH 22 0
BBX 26 26 1 0
BITMAP
00780F80
01FE3FC0
01FE3F80
01FE3F80
03FE7F80
03FC7F00
07FC7F00
07FEFF00
07FEFE00
0FFEFE00
0FFEFE00
0FFEFC00
1FFFFC00
1FFFFC00
1FFFFC00
1FDFF800
3FDFF800
3FDFF800
3F9FF000
3F9FF000
7F9FF000
7F8FF000
7F0FE000
FF1FE000
FF1FE000
E0000000
ENDCHAR
STARTCHAR 004F
ENCODING 79
SWIDTH 514 0
DWIDTH 20 0
BBX 20 27 3 0
BITMAP
007800
00FC00
01FF00
03FF80
07FFC0
07FFC0
0FFFE0
1FFFE0
1FFFF0
3FFFF0
3F8FF0
7F87F0
7F07F0
FF07F0
FF0FF0
FF0FF0
FF9FE0
FFFFE0
FFFFE0
FFFFC0
FFFFC0
FFFF80
7FFF80
7FFF00
3FFE00
1FFC00
07F000
ENDCHAR
STARTCHAR 0050
ENCODING 80
SWIDTH 488 0
DWIDTH 19 0
BBX 21 27 1 0
BITMAP
000E00
01FFC0
03FFF0
03FFF0
03FFF8
07FFF8
07F3F8
07F0F8
07F0F8
0FF0F8
0FF1F8
0FF1F8
0FFFF8
1FFFF0
1FFFE0
1FFFC0
3FFE00
3FE000
3FE000
7FE000
7FE000
7FC000
7FC000
FFC000
FFC000
FFC000
FFC000
ENDCHAR
STARTCHAR 0051
ENCODING 81
SWIDTH 617 0
DWIDTH 24 0
BBX 21 29 3 -2
BITMAP
007E00
01FF00
03FF80
07FFC0
07FFE0
0FFFE0
1FFFF0
1FCFF0
1F87F0
3F87F0
3F03F0
7F03F0
7F03F0
7F03F0
FF07F0
FF8FE0
FFFFE0
FFFFC0
FFFFC0
FFFF80
FFFF80
FFFF80
7FFFC0
7FFFE0
3FFFE0
0FFFF0
001FF8
001FF0
000800
ENDCHAR
STARTCHAR 0052
ENCODING 82
SWIDTH 565 0
DWIDTH 22 0
BBX 20 28 3 -1
BITMAP
003C00
03FF00
1FFFC0
1FFFE0
3FFFF0
3FE1F0
3FE0F0
3FE0F0
3FE1F0
3FE1F0
3FE3E0
3FEFE0
7FFFC0
7FFF80
7FFE00
7FFE00
7FFF00
7FFF00
FFDF80
FFDF80
FFDF80
FF8FC0
FF8FC0
FF8FE0
FF8FE0
FF87E0
FF87C0
780000
ENDCHAR
STARTCHAR 0053
ENCODING 83
SWIDTH 488 0
DWIDTH 19 0
BBX 23 27 1 0
BITMAP
0007F0
003FFE
00FFFE
00FFFC
01FFF8
03FFF8
03FFF0
07FFE0
07FFE0
07FFC0
0FE0C0
07E000
07FC00
07FF00
07FFC0
01FFC0
003FE0
000FE0
000FE0
301FE0
7FFFE0
7FFFC0
7FFFC0
FFFF80
7FFF00
3FFC00
0FF000
ENDCHAR
STARTCHAR 0054
ENCODING 84
SWIDTH 565 0
DWIDTH 22 0
BBX 21 26 5 0
BITMAP
3FFFF0
7FFFF8
7FFFF8
7FFFF8
FFFFF8
FFFFF8
FFFFF8
FFFF00
E0FC00
01F800
01F800
01F800
03F000
03F000
03F000
03F000
03E000
07E000
07E000
07E000
07C000
0FC000
0FC000
0FC000
0FC000
0F8000
ENDCHAR
STARTCHAR 0055
ENCODING 85
SWIDTH 540 0
DWIDTH 21 0
BBX 23 26 3 1
BITMAP
030000
07E07E
07E0FE
0FC07E
0FC07C
0FC0FC
1FC0FC
1F80FC
3F81FC
3F01F8
3F01F8
7F03F8
7F03F8
FF07F8
FF87F0
FFCFF0
FFFFE0
FFFFE0
FFFFC0
FFFFC0
FFFF80
7FFF00
7FFE00
7FFC00
3FF800
0FF000
ENDCHAR
STARTCHAR 0056
ENCODING 86
SWIDTH 591 0
DWIDTH 23 0
BBX 22 25 6 1
BITMAP
000078
F807FC
FF83F8
7FC7F8
7FC7F8
7FC7F0
7FCFF0
7FCFE0
7FCFE0
3FDFC0
3FDFC0
3FDFC0
3FFF80
1FFF80
1FFF00
1FFF00
0FFE00
0FFE00
07FE00
07FC00
03FC00
03F800
01F800
01F800
00F000
ENDCHAR
STARTCHAR 0057
ENCODING 87
SWIDTH 720 0
DWIDTH 28 0
BBX 28 27 5 0
BITMAP
00000200
3F0003F0
7F0707F0
7F070FE0
FF870FC0
FF871FC0
FF8F1F80
7F8F3F80
7F8F3F80
7FDFFF80
7FDFFF00
7FFFFF00
7FFFFE00
3FFFFE00
3FFFFC00
3FFFFC00
1FF7FC00
1FF7F800
1FE7F800
1FE7F800
0FC7F000
0FC7F000
0F87F000
0783E000
0703E000
07030000
02000000
ENDCHAR
STARTCHAR 0058
ENCODING 88
SWIDTH 565 0
DWIDTH 22 0
BBX 25 25 2 1
BITMAP
00C01F80
07E03F80
0FE07F00
1FF07F00
1FF0FE00
1FF1FC00
0FF1FC00
0FFBF800
07FBF800
07FFF000
03FFE000
01FFC000
01FFC000
01FF8000
01FF8000
03FF8000
07FF8000
07FF8000
0FFF8000
1FDFC000
1FCFC000
3F8FC000
7F87C000
7F078000
FF000000
ENDCHAR
STARTCHAR 0059
ENCODING 89
SWIDTH 591 0
DWIDTH 23 0
BBX 23 27 6 0
BITMAP
000026
0400FC
7E00FC
FE01F8
FE03F0
FF07F0
FF07E0
7F0FC0
7F1FC0
7F3F80
3FBF00
3FFF00
3FFE00
3FFC00
1FFC00
1FF800
1FF000
0FF000
0FE000
0FC000
0FC000
0FC000
0FC000
0FC000
1FC000
1FC000
1F0000
ENDCHAR
STARTCHAR 005A
ENCODING 90
SWIDTH 591 0
DWIDTH 23 0
BBX 20 27 5 0
BITMAP
003F00
07FFF0
1FFFE0
3FFFC0
7FFF80
FFFF00
FFFF00
E07E00
00FC00
00FC00
01F800
01F000
03F000
07E000
07E000
0FE000
0FC000
1FC000
1F8000
3F0000
3FFFE0
7FFFE0
FFFFE0
FFFFC0
FFFF80
07FE00
007000
ENDCHAR
STARTCHAR 005B
ENCODING 91
SWIDTH 334 0
DWIDTH 13 0
BBX 20 38 0 -6
BITMAP
000100
01FFF0
01FFE0
01FFE0
01FFE0
03FFE0
03F000
03F000
03F000
03E000
07E000
07E000
07E000
07E000
07C000
0FC000
0FC000
0FC000
0FC000
1F8000
1F8000
1F8000
1F0000
1F0000
3F0000
3F0000
3F0000
3F0000
3E0000
7E0000
7E0000
7E0000
7FF800
FFF800
FFF800
FFF000
FFF000
F80000
ENDCHAR
STARTCHAR 005C
ENCODING 92
SWIDTH 437 0
DWIDTH 17 0
BBX 11 31 6 -2
BITMAP
7E00
FF00
FF00
7F00
7F00
7F00
7F00
7F00
7F00
7F00
7F00
3F80
3F80
3F80
3F80
3F80
3F80
1F80
1F80
1F80
1FC0
0FC0
0FC0
0FC0
0FC0
0FC0
07C0
07E0
07E0
03E0
0200
ENDCHAR
STARTCHAR 005D
ENCODING 93
SWIDTH 334 0
DWIDTH 13 0
BBX 20 38 0 -6
BITMAP
0001C0
01FFF0
01FFE0
01FFE0
01FFE0
03FFE0
0007E0
000FC0
000FC0
000FC0
000FC0
001F80
001F80
001F80
001F80
001F00
001F00
003F00
003F00
003F00
003E00
007E00
007E00
007E00
007E00
007C00
00FC00
00FC00
00F800
00F800
00F800
01F800
5FF800
FFF800
FFF000
FFF000
FFF000
380000
ENDCHAR
STARTCHAR 005E
ENCODING 94
SWIDTH 488 0
DWIDTH 19 0
BBX 18 16 4 12
BITMAP
003C00
007C00
00FC00
01FE00
03FE00
03FE00
07FE00
0FDF00
1F9F00
3F9F00
3F1F00
7F1F80
FE1F80
FE1F80
FC1FC0
000200
ENDCHAR
STARTCHAR 005F
ENCODING 95
SWIDTH 385 0
DWIDTH 15 0
BBX 14 5 0 -5
BITMAP
FFFC
FFFC
FFFC
FFFC
FFF8
ENDCHAR
STARTCHAR 0060
ENCODING 96
SWIDTH 231 0
DWIDTH 9 0
BBX 6 6 8 28
BITMAP
F8
F8
FC
7C
3C
3C
ENDCHAR
STARTCHAR 0061
ENCODING 97
SWIDTH 617 0
DWIDTH 24 0
BBX 23 27 1 -1
BITMAP
0000F0
0001F0
0003F0
0003F0
0007F0
0007F0
000FF0
000FF0
001FF0
003FF0
003FF0
007FF0
00FFF8
00FFF8
01E7F8
03E3F8
03C3F8
078FF8
0FFFF8
0FFFF8
1FFFFC
1F87FC
3F07FC
7F07FC
7E07FE
FE07FE
F00000
ENDCHAR
STARTCHAR 0062
ENCODING 98
SWIDTH 514 0
DWIDTH 20 0
BBX 17 27 4 0
BITMAP
07A000
1FFE00
3FFF00
3FFF00
3FFF00
7FFF80
7F3F80
7F1F80
3F1F00
3F1F00
7F3E00
7F7E00
7FF800
7FFC00
7FFF00
7FFF80
7F1F80
7F1F80
FF1F80
FF3F80
FF7F80
FFFF00
FFFF00
FFFC00
FFF800
FFE000
780000
ENDCHAR
STARTCHAR 0063
ENCODING 99
SWIDTH 488 0
DWIDTH 19 0
BBX 20 26 3 0
BITMAP
003FC0
01FFE0
03FFF0
07FFF0
0FFFF0
1FFFF0
3FFFE0
3FF000
7FC000
7F8000
7F8000
7F0000
7F0000
FF8000
FFC380
FFFF80
FFFF80
FFFF80
FFFF80
FFFF00
7FFF00
7FFF00
7FFC00
7FFC00
0FF000
008000
ENDCHAR
STARTCHAR 0064
ENCODING 100
SWIDTH 462 0
DWIDTH 18 0
BBX 17 27 4 0
BITMAP
060000
1FE000
3FFC00
3FFC00
7FFE00
7FFF00
7FFF00
7FFF00
7F1F80
7E0F80
FE0F80
FE1F80
FE1F80
FE3F00
FE3E00
FEFE00
FFFC00
FFF800
FFF800
FFF000
FFE000
FFC000
FF8000
FF0000
FC0000
F00000
C00000
ENDCHAR
STARTCHAR 0065
ENCODING 101
SWIDTH 488 0
DWIDTH 19 0
BBX 15 27 5 0
BITMAP
0FFC
3FFE
7FFE
7FFC
7FFC
7FF8
7FF8
7FF8
7F00
7E00
7F00
7FF0
7FF0
7FF0
7FF0
7E00
7E04
7FFC
FFFC
7FFC
7FFC
FFFC
FFFC
FFFC
FFF8
FF80
F000
ENDCHAR
STARTCHAR 0066
ENCODING 102
SWIDTH 488 0
DWIDTH 19 0
BBX 22 27 2 0
BITMAP
007FFC
07FFFC
0FFFFC
0FFFFC
1FFFFC
1FFFFC
1FE000
1FC000
1FC000
3F8000
3FFC00
3FF800
3FF800
3FF800
7FF800
7F9000
7F0000
7F0000
FE0000
FE0000
FE0000
FE0000
FE0000
FE0000
FE0000
FE0000
F80000
ENDCHAR
STARTCHAR 0067
ENCODING 103
SWIDTH 488 0
DWIDTH 19 0
BBX 21 27 2 0
BITMAP
000F80
003FE0
007FF0
00FFF8
01FFF8
03FFF8
03F9E0
07E000
07C000
0F8000
0F8000
1F0070
1F0FF0
3E1FF0
3E1FE0
3E1FE0
7E1FE0
7E1FE0
FF3FE0
FFFFC0
FFFFC0
FFFF80
FFFF00
7FFC00
7FF000
3FC000
080000
ENDCHAR
STARTCHAR 0068
ENCODING 104
SWIDTH 540 0
DWIDTH 21 0
BBX 25 25 1 1
BITMAP
007F0000
01FE1F80
01FE3F80
01FE3F80
01FE3F80
01FC7F00
03FC7F00
03FC7F00
03FC7F00
07FDFE00
07FFFE00
07FFFE00
0FFFFC00
0FFFFC00
0FFFFC00
1FFFFC00
1FFFFC00
1FE3FC00
3FE3F800
3FE7F800
3FC7F800
3FC7F000
7FC7F000
7FC7F000
FF8F8000
ENDCHAR
STARTCHAR 0069
ENCODING 105
SWIDTH 334 0
DWIDTH 13 0
BBX 17 26 1 0
BITMAP
00FF80
00FF00
00FF00
01FE00
01FE00
01FE00
03FC00
03FC00
03FC00
07FC00
07F800
07F800
0FF800
0FF800
0FF000
0FF000
1FF000
1FF000
1FF000
1FE000
3FE000
3FC000
3FC000
7FC000
7F8000
F80000
ENDCHAR
STARTCHAR 006A
ENCODING 106
SWIDTH 437 0
DWIDTH 17 0
BBX 20 26 2 0
BITMAP
000FF0
001FF0
001FF0
003FF0
003FE0
003FE0
007FE0
007FE0
007FE0
007FE0
007FE0
00FFC0
00FFC0
00FFC0
007FC0
007F80
007F80
3C7F80
FC7F00
FEFF00
FEFE00
FFFE00
FFFC00
7FF800
3FE000
0FC000
ENDCHAR
STARTCHAR 006B
ENCODING 107
SWIDTH 540 0
DWIDTH 21 0
BBX 25 27 1 0
BITMAP
00010400
07FF1C00
03FE3F00
07FE7F80
07FE7F00
07FEFE00
0FFDFC00
0FFDF800
0FFFF000
0FFFE000
0FFFC000
1FFFC000
1FFF8000
1FFF0000
3FFE0000
3FFF0000
3FFF8000
3FFF8000
7FFFC000
7FFFE000
7FEFE000
7FE7F000
7FC7F000
FFC3F000
FFE3F000
FFC39000
CF830000
ENDCHAR
STARTCHAR 006C
ENCODING 108
SWIDTH 514 0
DWIDTH 20 0
BBX 19 28 1 -1
BITMAP
000100
007FE0
00FFC0
00FFC0
00FF80
01FF80
01FF80
01FF00
03FF00
03FF00
03FE00
07FE00
07FE00
07FC00
0FFC00
0FF800
1FF800
1FF800
1FF000
3FFFE0
3FFFE0
3FFFE0
3FFFE0
7FFFE0
7FFFE0
7FFFC0
FFB200
800000
ENDCHAR
STARTCHAR 006D
ENCODING 109
SWIDTH 642 0
DWIDTH 25 0
BBX 26 27 1 0
BITMAP
00400000
00E001C0
00E003C0
00F007C0
00F007C0
01F80FC0
01F81F80
01FC3F80
03FC3FC0
03FC7FC0
07FEFF80
07FFFF80
07FFFF80
0FFFFF80
0FFFFF80
0FFFFF80
1FF77F80
1FE2FF80
1FC0FF00
3FC0FF00
3F81FF00
7F81FF00
7F01FF00
7F01FF00
FE01FF00
FE03FF00
FC000000
ENDCHAR
STARTCHAR 006E
ENCODING 110
SWIDTH 565 0
DWIDTH 22 0
BBX 26 26 1 0
BITMAP
00780F80
01FE3FC0
01FE3F80
01FE3F80
03FE7F80
03FC7F00
07FC7F00
07FEFF00
07FEFE00
0FFEFE00
0FFEFE00
0FFEFC00
1FFFFC00
1FFFFC00
1FFFFC00
1FDFF800
3FDFF800
3FDFF800
3F9FF000
3F9FF000
7F9FF000
7F8FF000
7F0FE000
FF1FE000
FF1FE000
E0000000
ENDCHAR
STARTCHAR 006F
ENCODING 111
SWIDTH 514 0
DWIDTH 20 0
BBX 20 27 3 0
BITMAP
007800
00FC00
01FF00
03FF80
07FFC0
07FFC0
0FFFE0
1FFFE0
1FFFF0
3FFFF0
3F8FF0
7F87F0
7F07F0
FF07F0
FF0FF0
FF0FF0
FF9FE0
FFFFE0
FFFFE0
FFFFC0
FFFFC0
FFFF80
7FFF80
7FFF00
3FFE00
1FFC00
07F000
ENDCHAR
STARTCHAR 0070
ENCODING 112
SWIDTH 488 0
DWIDTH 19 0
BBX 21 27 1 0
BITMAP
000E00
01FFC0
03FFF0
03FFF0
03FFF8
07FFF8
07F3F8
07F0F8
07F0F8
0FF0F8
0FF1F8
0FF1F8
0FFFF8
1FFFF0
1FFFE0
1FFFC0
3FFE00
3FE000
3FE000
7FE000
7FE000
7FC000
7FC000
FFC000
FFC000
FFC000
FFC000
ENDCHAR
STARTCHAR 0071
ENCODING 113
SWIDTH 617 0
DWIDTH 24 0
BBX 21 29 3 -2
BITMAP
007E00
01FF00
03FF80
07FFC0
07FFE0
0FFFE0
1FFFF0
1FCFF0
1F87F0
3F87F0
3F03F0
7F03F0
7F03F0
7F03F0
FF07F0
FF8FE0
FFFFE0
FFFFC0
FFFFC0
FFFF80
FFFF80
FFFF80
7FFFC0
7FFFE0
3FFFE0
0FFFF0
001FF8
001FF0
000800
ENDCHAR
STARTCHAR 0072
ENCODING 114
SWIDTH 565 0
DWIDTH 22 0
BBX 20 28 3 -1
BITMAP
003C00
03FF00
1FFFC0
1FFFE0
3FFFF0
3FE1F0
3FE0F0
3FE0F0
3FE1F0
3FE1F0
3FE3E0
3FEFE0
7FFFC0
7FFF80
7FFE00
7FFE00
7FFF00
7FFF00
FFDF80
FFDF80
FFDF80
FF8FC0
FF8FC0
FF8FE0
FF8FE0
FF87E0
FF87C0
780000
ENDCHAR
STARTCHAR 0073
ENCODING 115
SWIDTH 488 0
DWIDTH 19 0
BBX 23 27 1 0
BITMAP
0007F0
003FFE
00FFFE
00FFFC
01FFF8
03FFF8
03FFF0
07FFE0
07FFE0
07FFC0
0FE0C0
07E000
07FC00
07FF00
07FFC0
01FFC0
003FE0
000FE0
000FE0
301FE0
7FFFE0
7FFFC0
7FFFC0
FFFF80
7FFF00
3FFC00
0FF000
ENDCHAR
STARTCHAR 0074
ENCODING 116
SWIDTH 565 0
DWIDTH 22 0
BBX 21 26 5 0
BITMAP
3FFFF0
7FFFF8
7FFFF8
7FFFF8
FFFFF8
FFFFF8
FFFFF8
FFFF00
E0FC00
01F800
01F800
01F800
03F000
03F000
03F000
03F000
03E000
07E000
07E000
07E000
07C000
0FC000
0FC000
0FC000
0FC000
0F8000
ENDCHAR
STARTCHAR 0075
ENCODING 117
SWIDTH 540 0
DWIDTH 21 0
BBX 23 26 3 1
BITMAP
030000
07E07E
07E0FE
0FC07E
0FC07C
0FC0FC
1FC0FC
1F80FC
3F81FC
3F01F8
3F01F8
7F03F8
7F03F8
FF07F8
FF87F0
FFCFF0
FFFFE0
FFFFE0
FFFFC0
FFFFC0
FFFF80
7FFF00
7FFE00
7FFC00
3FF800
0FF000
ENDCHAR
STARTCHAR 0076
ENCODING 118
SWIDTH 591 0
DWIDTH 23 0
BBX 22 25 6 1
BITMAP
000078
F807FC
FF83F8
7FC7F8
7FC7F8
7FC7F0
7FCFF0
7FCFE0
7FCFE0
3FDFC0
3FDFC0
3FDFC0
3FFF80
1FFF80
1FFF00
1FFF00
0FFE00
0FFE00
07FE00
07FC00
03FC00
03F800
01F800
01F800
00F000
ENDCHAR
STARTCHAR 0077
ENCODING 119
SWIDTH 720 0
DWIDTH 28 0
BBX 28 27 5 0
BITMAP
00000200
3F0003F0
7F0707F0
7F070FE0
FF870FC0
FF871FC0
FF8F1F80
7F8F3F80
7F8F3F80
7FDFFF80
7FDFFF00
7FFFFF00
7FFFFE00
3FFFFE00
3FFFFC00
3FFFFC00
1FF7FC00
1FF7F800
1FE7F800
1FE7F800
0FC7F000
0FC7F000
0F87F000
0783E000
0703E000
07030000
02000000
ENDCHAR
STARTCHAR 0078
ENCODING 120
SWIDTH 565 0
DWIDTH 22 0
BBX 25 25 2 1
BITMAP
00C01F80
07E03F80
0FE07F00
1FF07F00
1FF0FE00
1FF1FC00
0FF1FC00
0FFBF800
07FBF800
07FFF000
03FFE000
01FFC000
01FFC000
01FF8000
01FF8000
03FF8000
07FF8000
07FF8000
0FFF8000
1FDFC000
1FCFC000
3F8FC000
7F87C000
7F078000
FF000000
ENDCHAR
STARTCHAR 0079
ENCODING 121
SWIDTH 591 0
DWIDTH 23 0
BBX 23 27 6 0
BITMAP
000026
0400FC
7E00FC
FE01F8
FE03F0
FF07F0
FF07E0
7F0FC0
7F1FC0
7F3F80
3FBF00
3FFF00
3FFE00
3FFC00
1FFC00
1FF800
1FF000
0FF000
0FE000
0FC000
0FC000
0FC000
0FC000
0FC000
1FC000
1FC000
1F0000
ENDCHAR
STARTCHAR 007A
ENCODING 122
SWIDTH 591 0
DWIDTH 23 0
BBX 20 27 5 0
BITMAP
003F00
07FFF0
1FFFE0
3FFFC0
7FFF80
FFFF00
FFFF00
E07E00
00FC00
00FC00
01F800
01F000
03F000
07E000
07E000
0FE000
0FC000
1FC000
1F8000
3F0000
3FFFE0
7FFFE0
FFFFE0
FFFFC0
FFFF80
07FE00
007000
ENDCHAR
STARTCHAR 007B
ENCODING 123
SWIDTH 334 0
DWIDTH 13 0
BBX 15 37 4 -4
BITMAP
0004
001C
003E
007E
007E
00FE
01F8
01F0
03E0
03E0
03C0
07C0
0780
0F80
1F80
1F00
7F00
FE00
FE00
FE00
FE00
3E00
3F00
3E00
3E00
3E00
3E00
3E00
3E00
3E00
7E00
7E00
7F00
7F00
3F00
1F00
0E00
ENDCHAR
STARTCHAR 007C
ENCODING 124
SWIDTH 180 0
DWIDTH 7 0
BBX 13 39 0 -6
BITMAP
00F8
00F8
01F8
01F8
01F8
01F0
03F0
03F0
03F0
03F0
03E0
07E0
07E0
07E0
07E0
0FC0
0FC0
0FC0
0FC0
0F80
1F80
1F80
1F80
1F80
1F00
3F00
3F00
3F00
3F00
3E00
3E00
7E00
7E00
7C00
7C00
FC00
FC00
FC00
F800
ENDCHAR
STARTCHAR 007D
ENCODING 125
SWIDTH 334 0
DWIDTH 13 0
BBX 15 37 1 -4
BITMAP
0080
00E0
01F0
01F8
03F8
01FC
00FC
00F8
00F8
00F8
00F8
00F8
01F8
01F0
01F0
01F0
01F0
01FE
01FE
00FE
00FE
01F8
01E0
03E0
03E0
07C0
07C0
0780
0F80
1F00
1F00
3F00
FE00
FC00
F800
F000
E000
ENDCHAR
STARTCHAR 007E
ENCODING 126
SWIDTH 462 0
DWIDTH 18 0
BBX 19 9 3 9
BITMAP
0F07E0
1F87E0
3FFFC0
7FFFC0
7FFFC0
FFFF80
FBFF00
F9FE00
F03800
ENDCHAR
STARTCHAR 00A0
ENCODING 160
SWIDTH 308 0
DWIDTH 12 0
BBX 0 0 0 0
BITMAP
ENDCHAR
STARTCHAR 00A1
ENCODING 161
SWIDTH 282 0
DWIDTH 11 0
BBX 14 30 -1 -8
BITMAP
0038
007C
00FC
01FC
01FC
01FC
00F8
0000
0000
0000
03E0
03F0
07F0
07E0
07E0
0FE0
0FE0
0FE0
1FE0
1FE0
1FE0
3FE0
3FC0
3FC0
7FC0
7FC0
7FC0
FFC0
FFE0
01C0
ENDCHAR
STARTCHAR 00A2
ENCODING 162
SWIDTH 488 0
DWIDTH 19 0
BBX 20 34 3 -4
BITMAP
0001C0
0001F0
0003F0
0003E0
003FE0
00FFE0
03FFF0
07FFF0
0FFFF0
0FFFF0
1FFFF0
3FFFE0
3FFFE0
7FBFE0
7F7E00
7E7C00
FCFC00
FCF800
FCF800
FDF000
FDF000
FFF000
FFFF80
FFFF80
FFFF80
FFFF80
7FFF80
3FFF00
1FFC00
1FE000
1F0000
3E0000
3E0000
040000
ENDCHAR
STARTCHAR 00A3
ENCODING 163
SWIDTH 540 0
DWIDTH 21 0
BBX 23 27 2 0
BITMAP
000080
0007F0
000FF8
003FFC
007FFE
007FFE
00FEFE
01FEFE
01FC7C
01FC00
03F800
03F800
3FFFE0
3FFFC0
7FFFC0
7FFFC0
07F000
07F000
0FF000
0FE000
0FF000
FFFFF0
FFFFE0
FFFFE0
FFFFE0
FFFFC0
1FFF00
ENDCHAR
STARTCHAR 00A4
ENCODING 164
SWIDTH 437 0
DWIDTH 17 0
BBX 17 16 3 6
BITMAP
040200
0E0700
1FEF00
3FFF80
3FFF80
3F7F00
1E3E00
1E1C00
1C3C00
3C3C00
3C7C00
7FFE00
FFFF00
FFFE00
7B7C00
303000
ENDCHAR
STARTCHAR 00A5
ENCODING 165
SWIDTH 591 0
DWIDTH 23 0
BBX 25 27 4 0
BITMAP
00000980
01003F00
1F803F00
3F807E00
3F80FC00
3FC1FC00
3FC1F800
1FC3F000
1FC7F000
1FCFE000
1FEFC000
0FFFC000
3FFFE000
3FFFE000
7FFFE000
7FFFC000
7FFFC000
03FC0000
3FFF0000
7FFFC000
FFFFC000
FFFFC000
FFFF8000
FFF00000
07F00000
07F00000
07C00000
ENDCHAR
STARTCHAR 00A6
ENCODING 166
SWIDTH 180 0
DWIDTH 7 0
BBX 13 39 0 -6
BITMAP
00F8
01F8
01F8
01F8
01F8
01F0
03F0
03F0
03F0
03F0
03F0
07E0
07E0
07E0
07E0
07C0
07C0
0000
0000
0000
0000
0000
1F80
1F00
1F00
3F00
3F00
3F00
3E00
7E00
7E00
7E00
7E00
7C00
FC00
FC00
FC00
FC00
F800
ENDCHAR
STARTCHAR 00A7
ENCODING 167
SWIDTH 488 0
DWIDTH 19 0
BBX 19 33 3 -3
BITMAP
003F80
00FFC0
01FFE0
03FFE0
07FFE0
07FFE0
07F9C0
07F000
07E000
07F000
0FFC00
1FFF80
3FFFC0
3FFFC0
7FFFE0
7F0FE0
FE0FE0
FF1FC0
7FFFC0
7FFF80
3FFF80
0FFF00
03FF00
00FE00
00FE00
20FE00
7FFE00
7FFC00
FFFC00
FFF800
7FF000
3FE000
0F8000
ENDCHAR
STARTCHAR 00A8
ENCODING 168
SWIDTH 308 0
DWIDTH 12 0
BBX 11 5 7 27
BITMAP
0080
71E0
F3E0
F3C0
6080
ENDCHAR
STARTCHAR 00A9
ENCODING 169
SWIDTH 668 0
DWIDTH 26 0
BBX 26 25 3 1
BITMAP
000FF800
007FFE00
01FFFF00
07FFFF80
0FF03F80
0FC00F80
1F0F0F80
3E1FC7C0
3C3FC7C0
787FC7C0
787F87C0
70F807C0
F0F00780
F0F00780
F0F00780
F0FF0F00
F8FF0F00
F87F1E00
FC3E1C00
7C007800
7E03F000
7FFFE000
3FFFC000
1FFF0000
01FC0000
ENDCHAR
STARTCHAR 00AA
ENCODING 170
SWIDTH 308 0
DWIDTH 12 0
BBX 11 13 4 13
BITMAP
01C0
01C0
03C0
07C0
07C0
0FC0
0FC0
1BC0
33C0
3FC0
73E0
E3E0
E3E0
ENDCHAR
STARTCHAR 00AB
ENCODING 171
SWIDTH 462 0
DWIDTH 18 0
BBX 19 17 2 1
BITMAP
002000
00E060
01C0E0
07C1E0
0FC7E0
1FCFE0
3FBFC0
7E3E00
787800
F87C00
FF7F00
7FBF80
3F1F80
1F0F80
0F0F80
070700
020300
ENDCHAR
STARTCHAR 00AC
ENCODING 172
SWIDTH 462 0
DWIDTH 18 0
BBX 18 10 3 7
BITMAP
3FFFC0
7FFFC0
7FFFC0
7FFFC0
FFFFC0
FFFFC0
001F80
001F80
001F80
001F00
ENDCHAR
STARTCHAR 00AD
ENCODING 173
SWIDTH 385 0
DWIDTH 15 0
BBX 15 6 3 11
BITMAP
3FFE
7FFE
7FFE
7FFC
FFFC
FFFC
ENDCHAR
STARTCHAR 00AE
ENCODING 174
SWIDTH 437 0
DWIDTH 17 0
BBX 16 17 5 11
BITMAP
00E0
0FF8
1FFE
3C0E
7BC7
77E3
E723
E763
C7C7
C7C7
C7C7
C76E
E65C
F03C
FFF8
3FF0
0F80
ENDCHAR
STARTCHAR 00AF
ENCODING 175
SWIDTH 308 0
DWIDTH 12 0
BBX 12 3 7 28
BITMAP
FFF0
FFE0
FFE0
ENDCHAR
STARTCHAR 00B0
ENCODING 176
SWIDTH 308 0
DWIDTH 12 0
BBX 12 13 5 15
BITMAP
0380
1FC0
3FE0
7FF0
78F0
F0F0
F0F0
F0E0
F1E0
FFC0
7F80
7F00
3C00
ENDCHAR
STARTCHAR 00B1
ENCODING 177
SWIDTH 462 0
DWIDTH 18 0
BBX 20 22 1 0
BITMAP
003E00
003E00
003E00
007E00
007E00
037DE0
1FFFF0
1FFFF0
3FFFF0
3FFFF0
3FFFE0
00F800
01F800
01F800
01F800
01F000
000000
000100
FFFF80
FFFF80
FFFF80
FFFF80
ENDCHAR
STARTCHAR 00B2
ENCODING 178
SWIDTH 257 0
DWIDTH 10 0
BBX 9 13 5 14
BITMAP
1C00
3F00
7F00
7700
0700
0600
0E00
1C00
1F80
3F00
7F00
FF00
FC00
ENDCHAR
STARTCHAR 00B3
ENCODING 179
SWIDTH 231 0
DWIDTH 9 0
BBX 9 13 4 13
BITMAP
1F00
3E00
0600
0C00
1F00
3F80
1780
0380
0380
0380
FF00
FE00
3800
ENDCHAR
STARTCHAR 00B4
ENCODING 180
SWIDTH 231 0
DWIDTH 9 0
BBX 8 6 7 28
BITMAP
0F
1F
3E
7C
F8
F0
ENDCHAR
STARTCHAR 00B5
ENCODING 181
SWIDTH 540 0
DWIDTH 21 0
BBX 24 27 0 -6
BITMAP
00601E
07E07E
07E07E
07C07E
0FC07F
0FC07F
0FC0FF
0FC0FE
1FC0FE
1FC1FE
1FC3FE
1FEFFC
3FFFFC
3FFFF8
3FFFF8
3FFFF0
3FFFE0
7FFFE0
7FFFC0
7FFE00
7E0000
7C0000
FC0000
FC0000
FC0000
FC0000
F80000
ENDCHAR
STARTCHAR 00B6
ENCODING 182
SWIDTH 385 0
DWIDTH 15 0
BBX 16 31 4 -3
BITMAP
003E
07FF
0FFF
1FFF
3FFF
3FFE
7F8E
7F9E
7F9E
7F9E
7FBC
FF3C
FF3C
FF3C
FF3C
7F78
1E78
1E78
1E78
1E70
1EF0
3CF0
3CF0
3CF0
3DE0
3DE0
79E0
79E0
79E0
79C0
F1C0
ENDCHAR
STARTCHAR 00B7
ENCODING 183
SWIDTH 205 0
DWIDTH 8 0
BBX 8 7 3 10
BITMAP
1E
7E
7F
FF
7E
7C
38
ENDCHAR
STARTCHAR 00B8
ENCODING 184
SWIDTH 282 0
DWIDTH 11 0
BBX 11 9 0 -7
BITMAP
0F00
0F00
0F00
0F80
07C0
C3E0
FFC0
FF80
0800
ENDCHAR
STARTCHAR 00B9
ENCODING 185
SWIDTH 205 0
DWIDTH 8 0
BBX 7 13 6 14
BITMAP
08
1E
7C
FC
DC
3C
3C
3C
78
78
78
F8
F8
ENDCHAR
STARTCHAR 00BA
ENCODING 186
SWIDTH 282 0
DWIDTH 11 0
BBX 10 14 5 13
BITMAP
0E00
1F00
3F80
7F80
7FC0
F3C0
F3C0
F3C0
FF80
FF80
FF00
FF00
7E00
1000
ENDCHAR
STARTCHAR 00BB
ENCODING 187
SWIDTH 462 0
DWIDTH 18 0
BBX 19 17 1 0
BITMAP
180800
1C0C00
1E0E00
1F1F00
1F1F80
1F9FC0
1FDFE0
07C7E0
03C1E0
07C3E0
3F8FC0
7F3F80
7E3F00
787E00
F07C00
E07800
806000
ENDCHAR
STARTCHAR 00BC
ENCODING 188
SWIDTH 565 0
DWIDTH 22 0
BBX 23 27 2 -1
BITMAP
00800C
01E01E
07C03C
0FC07C
0DC078
03C0F0
03C1F0
03C3E0
0783C0
078780
078F80
0F9F00
0FBE00
003C00
0078E0
00F0C0
01F1C0
03E180
07C380
0783F8
0F07F8
1F07F0
3E00C0
7C01C0
7801C0
F003C0
2003C0
ENDCHAR
STARTCHAR 00BD
ENCODING 189
SWIDTH 565 0
DWIDTH 22 0
BBX 23 27 2 0
BITMAP
00800C
01E01E
07C03C
0FC07C
0DC078
03C0F0
03C1F0
03C3E0
0783C0
078780
078F80
0F9F00
0FBE00
003C80
007BE0
00F7F0
01F7E0
03E460
07C0E0
0780C0
0F01C0
1F03F8
3E03F0
7C07F0
780FE0
F01FE0
200200
ENDCHAR
STARTCHAR 00BE
ENCODING 190
SWIDTH 565 0
DWIDTH 22 0
BBX 23 27 2 -1
BITMAP
00000C
07C01E
0F803C
01807C
030078
07C0F0
0FE1F0
05E3E0
00E3C0
00E780
00EF80
3FDF00
3FBE00
0E3C00
0078E0
00F0C0
01F1C0
03E180
07C380
0783F8
0F07F8
1F07F0
3E00C0
7C01C0
7801C0
F003C0
2003C0
ENDCHAR
STARTCHAR 00BF
ENCODING 191
SWIDTH 462 0
DWIDTH 18 0
BBX 17 29 0 -8
BITMAP
000200
000F80
001F80
003F80
003F80
001F00
001E00
000000
000000
003E00
003F00
007E00
00FE00
01FE00
07FC00
1FFC00
3FF000
3F8000
7F0000
7E0000
7E0000
FE0780
FF1F80
FFFF80
FFFF00
FFFF00
7FFE00
3FFC00
006000
ENDCHAR
STARTCHAR 00C0
ENCODING 192
SWIDTH 617 0
DWIDTH 24 0
BBX 23 35 1 -1
BITMAP
0007C0
0007C0
0007C0
0003E0
0001E0
0001E0
000000
000000
0000F0
0001F0
0003F0
0003F0
0007F0
0007F0
000FF0
000FF0
001FF0
003FF0
003FF0
007FF0
00FFF8
00FFF8
01E7F8
03E3F8
03C3F8
078FF8
0FFFF8
0FFFF8
1FFFFC
1F87FC
3F07FC
7F07FC
7E07FE
FE07FE
F00000
ENDCHAR
STARTCHAR 00C1
ENCODING 193
SWIDTH 617 0
DWIDTH 24 0
BBX 25 35 1 -1
BITMAP
00000F80
00000F80
00001F00
00003E00
00007C00
00007800
00000000
00000000
0000F000
0001F000
0003F000
0003F000
0007F000
0007F000
000FF000
000FF000
001FF000
003FF000
003FF000
007FF000
00FFF800
00FFF800
01E7F800
03E3F800
03C3F800
078FF800
0FFFF800
0FFFF800
1FFFFC00
1F87FC00
3F07FC00
7F07FC00
7E07FE00
FE07FE00
F0000000
ENDCHAR
STARTCHAR 00C2
ENCODING 194
SWIDTH 617 0
DWIDTH 24 0
BBX 24 35 1 -1
BITMAP
000010
000078
0001FC
0003FE
0007DF
000F8F
000000
000000
0000F0
0001F0
0003F0
0003F0
0007F0
0007F0
000FF0
000FF0
001FF0
003FF0
003FF0
007FF0
00FFF8
00FFF8
01E7F8
03E3F8
03C3F8
078FF8
0FFFF8
0FFFF8
1FFFFC
1F87FC
3F07FC
7F07FC
7E07FE
FE07FE
F00000
ENDCHAR
STARTCHAR 00C3
ENCODING 195
SWIDTH 617 0
DWIDTH 24 0
BBX 25 34 1 -1
BITMAP
0001C780
0003FF80
0007FF00
0007FF00
00077C00
00000000
00000000
0000F000
0001F000
0003F000
0003F000
0007F000
0007F000
000FF000
000FF000
001FF000
003FF000
003FF000
007FF000
00FFF800
00FFF800
01E7F800
03E3F800
03C3F800
078FF800
0FFFF800
0FFFF800
1FFFFC00
1F87FC00
3F07FC00
7F07FC00
7E07FE00
FE07FE00
F0000000
ENDCHAR
STARTCHAR 00C4
ENCODING 196
SWIDTH 617 0
DWIDTH 24 0
BBX 24 33 1 -1
BITMAP
000006
00038F
00078F
00078E
000304
000000
0000F0
0001F0
0003F0
0003F0
0007F0
0007F0
000FF0
000FF0
001FF0
003FF0
003FF0
007FF0
00FFF8
00FFF8
01E7F8
03E3F8
03C3F8
078FF8
0FFFF8
0FFFF8
1FFFFC
1F87FC
3F07FC
7F07FC
7E07FE
FE07FE
F00000
ENDCHAR
STARTCHAR 00C5
ENCODING 197
SWIDTH 617 0
DWIDTH 24 0
BBX 24 35 1 -1
BITMAP
000030
0001FC
0003FE
00079F
000F0F
000F0F
000F1E
000FBE
0007FC
0003F0
0003F0
0003F0
0007F0
0007F0
000FF0
000FF0
001FF0
003FF0
003FF0
007FF0
00FFF8
00FFF8
01E7F8
03E3F8
03C3F8
078FF8
0FFFF8
0FFFF8
1FFFFC
1F87FC
3F07FC
7F07FC
7E07FE
FE07FE
F00000
ENDCHAR
STARTCHAR 00C6
ENCODING 198
SWIDTH 720 0
DWIDTH 28 0
BBX 29 28 1 -1
BITMAP
00001FE0
0000FFF8
0001FFF0
0003FFF0
0003FFE0
0007FFE0
0007FFE0
000FFFC0
001FFC00
001FF800
003FF800
003FFBC0
007FFF80
00FFFF80
00F7FF80
01E7F800
03C3F800
03C3FFF0
079FFFF0
0FFFFFF0
0FFFFFF0
1FF7FFF0
3F87FFF0
3F07FFF0
7F07FFE0
7E07FE00
FE07C000
E0000000
ENDCHAR
STARTCHAR 00C7
ENCODING 199
SWIDTH 488 0
DWIDTH 19 0
BBX 20 33 3 -7
BITMAP
003FC0
00FFE0
03FFF0
07FFF0
0FFFF0
1FFFF0
3FFFE0
3FF000
7FC000
7F8000
7F8000
7F0000
7F0000
FF8000
FFC380
FFFF80
FFFF80
FFFF80
FFFF80
FFFF00
7FFF00
7FFF00
7FFC00
7FFC00
0FF000
0F8000
0F0000
0F8000
03C000
E3E000
FFC000
FF8000
080000
ENDCHAR
STARTCHAR 00C8
ENCODING 200
SWIDTH 488 0
DWIDTH 19 0
BBX 15 34 5 0
BITMAP
0F00
1F80
1F80
0FC0
07C0
03C0
0000
0FFC
3FFE
7FFE
7FFC
7FFC
7FF8
7FF8
7FF8
7F00
7E00
7F00
7FF0
7FF0
7FF0
7FF0
7E00
7E04
7FFC
FFFC
7FFC
7FFC
FFFC
FFFC
FFFC
FFF8
FF80
F000
ENDCHAR
STARTCHAR 00C9
ENCODING 201
SWIDTH 488 0
DWIDTH 19 0
BBX 15 34 5 1
BITMAP
007C
00F8
00F0
01F0
03E0
03C0
0000
0FFC
3FFE
7FFE
7FFC
7FFC
7FF8
7FF8
7FF8
7F00
7E00
7F00
7FF0
7FF0
7FF0
7FF0
7E00
7E04
7FFC
FFFC
7FFC
7FFC
FFFC
FFFC
FFFC
FFF8
FF80
F000
ENDCHAR
STARTCHAR 00CA
ENCODING 202
SWIDTH 488 0
DWIDTH 19 0
BBX 15 34 5 0
BITMAP
01C0
07E0
0FF8
1FFC
3E7C
3C20
0000
0FFC
3FFE
7FFE
7FFC
7FFC
7FF8
7FF8
7FF8
7F00
7E00
7F00
7FF0
7FF0
7FF0
7FF0
7E00
7E04
7FFC
FFFC
7FFC
7FFC
FFFC
FFFC
FFFC
FFF8
FF80
F000
ENDCHAR
STARTCHAR 00CB
ENCODING 203
SWIDTH 488 0
DWIDTH 19 0
BBX 15 32 5 0
BITMAP
0078
1C78
3C78
3C70
1800
0FFC
3FFE
7FFE
7FFC
7FFC
7FF8
7FF8
7FF8
7F00
7E00
7F00
7FF0
7FF0
7FF0
7FF0
7E00
7E04
7FFC
FFFC
7FFC
7FFC
FFFC
FFFC
FFFC
FFF8
FF80
F000
ENDCHAR
STARTCHAR 00CC
ENCODING 204
SWIDTH 334 0
DWIDTH 13 0
BBX 17 34 1 0
BITMAP
007C00
007C00
007C00
003E00
001E00
001E00
000000
000000
00FF80
00FF00
00FF00
01FE00
01FE00
01FE00
03FC00
03FC00
03FC00
07FC00
07F800
07F800
0FF800
0FF800
0FF000
0FF000
1FF000
1FF000
1FF000
1FE000
3FE000
3FC000
3FC000
7FC000
7F8000
F80000
ENDCHAR
STARTCHAR 00CD
ENCODING 205
SWIDTH 334 0
DWIDTH 13 0
BBX 20 34 1 0
BITMAP
0001F0
0003F0
0003E0
0007C0
000F80
000F00
000000
000000
00FF80
00FF00
00FF00
01FE00
01FE00
01FE00
03FC00
03FC00
03FC00
07FC00
07F800
07F800
0FF800
0FF800
0FF000
0FF000
1FF000
1FF000
1FF000
1FE000
3FE000
3FC000
3FC000
7FC000
7F8000
F80000
ENDCHAR
STARTCHAR 00CE
ENCODING 206
SWIDTH 334 0
DWIDTH 13 0
BBX 19 34 1 0
BITMAP
000200
000F00
003FC0
007FC0
00FFE0
01F1E0
000000
000000
00FF80
00FF00
00FF00
01FE00
01FE00
01FE00
03FC00
03FC00
03FC00
07FC00
07F800
07F800
0FF800
0FF800
0FF000
0FF000
1FF000
1FF000
1FF000
1FE000
3FE000
3FC000
3FC000
7FC000
7F8000
F80000
ENDCHAR
STARTCHAR 00CF
ENCODING 207
SWIDTH 334 0
DWIDTH 13 0
BBX 19 32 1 0
BITMAP
0000C0
0071E0
00F1E0
00F1C0
006080
000000
00FF80
00FF00
00FF00
01FE00
01FE00
01FE00
03FC00
03FC00
03FC00
07FC00
07F800
07F800
0FF800
0FF800
0FF000
0FF000
1FF000
1FF000
1FF000
1FE000
3FE000
3FC000
3FC000
7FC000
7F8000
F80000
ENDCHAR
STARTCHAR 00D0
ENCODING 208
SWIDTH 488 0
DWIDTH 19 0
BBX 19 27 3 0
BITMAP
018000
07F800
0FFF00
0FFF80
0FFF80
1FFFC0
1FFFC0
1FFFE0
1FC7E0
1FF3E0
7FF3E0
FFF3E0
FFF7E0
FFF7C0
FF8FC0
FF9F80
3FFF00
3FFF00
3FFE00
3FFC00
3FF800
3FF000
3FE000
3FC000
3F0000
3C0000
300000
ENDCHAR
STARTCHAR 00D1
ENCODING 209
SWIDTH 565 0
DWIDTH 22 0
BBX 26 33 1 0
BITMAP
0003CF00
0007FF00
0007FF00
000FFE00
000E7C00
00000000
00000000
00780F80
01FE3FC0
01FE3F80
01FE3F80
03FE7F80
03FC7F00
07FC7F00
07FEFF00
07FEFE00
0FFEFE00
0FFEFE00
0FFEFC00
1FFFFC00
1FFFFC00
1FFFFC00
1FDFF800
3FDFF800
3FDFF800
3F9FF000
3F9FF000
7F9FF000
7F8FF000
7F0FE000
FF1FE000
FF1FE000
E0000000
ENDCHAR
STARTCHAR 00D2
ENCODING 210
SWIDTH 514 0
DWIDTH 20 0
BBX 20 34 3 0
BITMAP
07C000
07C000
03E000
03E000
01E000
00F000
000000
007800
00FC00
01FF00
03FF80
07FFC0
07FFC0
0FFFE0
1FFFE0
1FFFF0
3FFFF0
3F8FF0
7F87F0
7F07F0
FF07F0
FF0FF0
FF0FF0
FF9FE0
FFFFE0
FFFFE0
FFFFC0
FFFFC0
FFFF80
7FFF80
7FFF00
3FFE00
1FFC00
07F000
ENDCHAR
STARTCHAR 00D3
ENCODING 211
SWIDTH 514 0
DWIDTH 20 0
BBX 20 34 3 0
BITMAP
0007C0
000FC0
000F80
001F00
003E00
007800
000000
007800
00FC00
01FF00
03FF80
07FFC0
07FFC0
0FFFE0
1FFFE0
1FFFF0
3FFFF0
3F8FF0
7F87F0
7F07F0
FF07F0
FF0FF0
FF0FF0
FF9FE0
FFFFE0
FFFFE0
FFFFC0
FFFFC0
FFFF80
7FFF80
7FFF00
3FFE00
1FFC00
07F000
ENDCHAR
STARTCHAR 00D4
ENCODING 212
SWIDTH 514 0
DWIDTH 20 0
BBX 20 34 3 0
BITMAP
003800
007C00
01FE00
03FF00
07DF80
078F00
000000
007800
00FC00
01FF00
03FF80
07FFC0
07FFC0
0FFFE0
1FFFE0
1FFFF0
3FFFF0
3F8FF0
7F87F0
7F07F0
FF07F0
FF0FF0
FF0FF0
FF9FE0
FFFFE0
FFFFE0
FFFFC0
FFFFC0
FFFF80
7FFF80
7FFF00
3FFE00
1FFC00
07F000
ENDCHAR
STARTCHAR 00D5
ENCODING 213
SWIDTH 514 0
DWIDTH 20 0
BBX 20 34 3 0
BITMAP
000780
01C780
03FF80
07FF00
07FE00
073C00
070000
007800
00FC00
01FF00
03FF80
07FFC0
07FFC0
0FFFE0
1FFFE0
1FFFF0
3FFFF0
3F8FF0
7F87F0
7F07F0
FF07F0
FF0FF0
FF0FF0
FF9FE0
FFFFE0
FFFFE0
FFFFC0
FFFFC0
FFFF80
7FFF80
7FFF00
3FFE00
1FFC00
07F000
ENDCHAR
STARTCHAR 00D6
ENCODING 214
SWIDTH 514 0
DWIDTH 20 0
BBX 20 32 3 0
BITMAP
000200
03CF00
07CF00
078F00
030400
007800
00FC00
01FF00
03FF80
07FFC0
07FFC0
0FFFE0
1FFFE0
1FFFF0
3FFFF0
3F8FF0
7F87F0
7F07F0
FF07F0
FF0FF0
FF0FF0
FF9FE0
FFFFE0
FFFFE0
FFFFC0
FFFFC0
FFFF80
7FFF80
7FFF00
3FFE00
1FFC00
07F000
ENDCHAR
STARTCHAR 00D7
ENCODING 215
SWIDTH 411 0
DWIDTH 16 0
BBX 17 16 3 6
BITMAP
000200
0E0600
1F0F00
3FBF80
3FFF80
3FFF00
1FFC00
0FF800
0FF000
1FF800
3FFC00
7FFE00
FEFE00
FCFC00
787800
303000
ENDCHAR
STARTCHAR 00D8
ENCODING 216
SWIDTH 514 0
DWIDTH 20 0
BBX 27 29 0 -1
BITMAP
00000400
000F0FE0
001F9FC0
003FFF80
007FFF00
00FFFE00
00FFFE00
01FFFC00
03FFFC00
03FFFE00
07FFFE00
07EFFE00
0FCFFE00
0F9FFE00
1FBF7E00
1FFEFE00
1FFCFE00
1FF9FC00
1FF3FC00
1FFFFC00
1FFFF800
1FFFF800
1FFFF000
1FFFF000
3FFFE000
7FFFC000
7FFF8000
F8FE0000
10000000
ENDCHAR
STARTCHAR 00D9
ENCODING 217
SWIDTH 540 0
DWIDTH 21 0
BBX 23 33 3 1
BITMAP
003E00
007E00
003E00
001F00
001F00
000F00
000000
030000
07E07E
07E0FE
0FC07E
0FC07C
0FC0FC
1FC0FC
1F80FC
3F81FC
3F01F8
3F01F8
7F03F8
7F03F8
FF07F8
FF87F0
FFCFF0
FFFFE0
FFFFE0
FFFFC0
FFFFC0
FFFF80
7FFF00
7FFE00
7FFC00
3FF800
0FF000
ENDCHAR
STARTCHAR 00DA
ENCODING 218
SWIDTH 540 0
DWIDTH 21 0
BBX 23 33 3 1
BITMAP
00007C
0000FC
0000F8
0001F0
0003E0
0003C0
000000
030000
07E07E
07E0FE
0FC07E
0FC07C
0FC0FC
1FC0FC
1F80FC
3F81FC
3F01F8
3F01F8
7F03F8
7F03F8
FF07F8
FF87F0
FFCFF0
FFFFE0
FFFFE0
FFFFC0
FFFFC0
FFFF80
7FFF00
7FFE00
7FFC00
3FF800
0FF000
ENDCHAR
STARTCHAR 00DB
ENCODING 219
SWIDTH 540 0
DWIDTH 21 0
BBX 23 33 3 1
BITMAP
000080
0003C0
000FE0
001FF0
003EF8
007C78
000000
030000
07E07E
07E0FE
0FC07E
0FC07C
0FC0FC
1FC0FC
1F80FC
3F81FC
3F01F8
3F01F8
7F03F8
7F03F8
FF07F8
FF87F0
FFCFF0
FFFFE0
FFFFE0
FFFFC0
FFFFC0
FFFF80
7FFF00
7FFE00
7FFC00
3FF800
0FF000
ENDCHAR
STARTCHAR 00DC
ENCODING 220
SWIDTH 540 0
DWIDTH 21 0
BBX 23 31 3 1
BITMAP
000800
003C70
003C78
003CF8
001060
030000
07E07E
07E0FE
0FC07E
0FC07C
0FC0FC
1FC0FC
1F80FC
3F81FC
3F01F8
3F01F8
7F03F8
7F03F8
FF07F8
FF87F0
FFCFF0
FFFFE0
FFFFE0
FFFFC0
FFFFC0
FFFF80
7FFF00
7FFE00
7FFC00
3FF800
0FF000
ENDCHAR
STARTCHAR 00DD
ENCODING 221
SWIDTH 591 0
DWIDTH 23 0
BBX 23 34 6 0
BITMAP
0001E0
0003E0
0007C0
000F80
001F00
001E00
000000
000026
0400FC
7E00FC
FE01F8
FE03F0
FF07F0
FF07E0
7F0FC0
7F1FC0
7F3F80
3FBF00
3FFF00
3FFE00
3FFC00
1FFC00
1FF800
1FF000
0FF000
0FE000
0FC000
0FC000
0FC000
0FC000
0FC000
1FC000
1FC000
1F0000
ENDCHAR
STARTCHAR 00DE
ENCODING 222
SWIDTH 488 0
DWIDTH 19 0
BBX 19 27 2 0
BITMAP
07E000
0FE000
0FE000
0FE000
0FFE00
1FFF80
1FFFC0
1FFFE0
1FFFE0
1FCFE0
1F83E0
3F83E0
3F83E0
3F83E0
3F87E0
3F87E0
3F8FE0
3FFFE0
7FFFC0
7FFF80
7FFF00
7FFC00
7F0000
7F0000
FF0000
FF0000
FE0000
ENDCHAR
STARTCHAR 00DF
ENCODING 223
SWIDTH 540 0
DWIDTH 21 0
BBX 21 30 2 -3
BITMAP
00FE00
01FF80
03FFC0
0FFFC0
0FFFC0
1FFFC0
1F87C0
1F87C0
1F07C0
3F0780
3F0F80
3F1F00
3F3E00
3F3FE0
3F3FF0
3E3FF8
7E3FF8
7E03F8
7E03F8
7E03F8
7E03F8
7E07F0
7C3FF0
7C7FE0
FC7FE0
FC7F80
FC7E00
FC0000
F80000
200000
ENDCHAR
STARTCHAR 00E0
ENCODING 224
SWIDTH 617 0
DWIDTH 24 0
BBX 23 35 1 -1
BITMAP
0007C0
0007C0
0007C0
0003E0
0001E0
0001E0
000000
000000
0000F0
0001F0
0003F0
0003F0
0007F0
0007F0
000FF0
000FF0
001FF0
003FF0
003FF0
007FF0
00FFF8
00FFF8
01E7F8
03E3F8
03C3F8
078FF8
0FFFF8
0FFFF8
1FFFFC
1F87FC
3F07FC
7F07FC
7E07FE
FE07FE
F00000
ENDCHAR
STARTCHAR 00E1
ENCODING 225
SWIDTH 617 0
DWIDTH 24 0
BBX 25 35 1 -1
BITMAP
00000F80
00000F80
00001F00
00003E00
00007C00
00007800
00000000
00000000
0000F000
0001F000
0003F000
0003F000
0007F000
0007F000
000FF000
000FF000
001FF000
003FF000
003FF000
007FF000
00FFF800
00FFF800
01E7F800
03E3F800
03C3F800
078FF800
0FFFF800
0FFFF800
1FFFFC00
1F87FC00
3F07FC00
7F07FC00
7E07FE00
FE07FE00
F0000000
ENDCHAR
STARTCHAR 00E2
ENCODING 226
SWIDTH 617 0
DWIDTH 24 0
BBX 24 35 1 -1
BITMAP
000010
000078
0001FC
0003FE
0007DF
000F8F
000000
000000
0000F0
0001F0
0003F0
0003F0
0007F0
0007F0
000FF0
000FF0
001FF0
003FF0
003FF0
007FF0
00FFF8
00FFF8
01E7F8
03E3F8
03C3F8
078FF8
0FFFF8
0FFFF8
1FFFFC
1F87FC
3F07FC
7F07FC
7E07FE
FE07FE
F00000
ENDCHAR
STARTCHAR 00E3
ENCODING 227
SWIDTH 617 0
DWIDTH 24 0
BBX 25 34 1 -1
BITMAP
0001C780
0003FF80
0007FF00
0007FF00
00077C00
00000000
00000000
0000F000
0001F000
0003F000
0003F000
0007F000
0007F000
000FF000
000FF000
001FF000
003FF000
003FF000
007FF000
00FFF800
00FFF800
01E7F800
03E3F800
03C3F800
078FF800
0FFFF800
0FFFF800
1FFFFC00
1F87FC00
3F07FC00
7F07FC00
7E07FE00
FE07FE00
F0000000
ENDCHAR
STARTCHAR 00E4
ENCODING 228
SWIDTH 617 0
DWIDTH 24 0
BBX 24 33 1 -1
BITMAP
000006
00038F
00078F
00078E
000304
000000
0000F0
0001F0
0003F0
0003F0
0007F0
0007F0
000FF0
000FF0
001FF0
003FF0
003FF0
007FF0
00FFF8
00FFF8
01E7F8
03E3F8
03C3F8
078FF8
0FFFF8
0FFFF8
1FFFFC
1F87FC
3F07FC
7F07FC
7E07FE
FE07FE
F00000
ENDCHAR
STARTCHAR 00E5
ENCODING 229
SWIDTH 617 0
DWIDTH 24 0
BBX 24 35 1 -1
BITMAP
000030
0001FC
0003FE
00079F
000F0F
000F0F
000F1E
000FBE
0007FC
0003F0
0003F0
0003F0
0007F0
0007F0
000FF0
000FF0
001FF0
003FF0
003FF0
007FF0
00FFF8
00FFF8
01E7F8
03E3F8
03C3F8
078FF8
0FFFF8
0FFFF8
1FFFFC
1F87FC
3F07FC
7F07FC
7E07FE
FE07FE
F00000
ENDCHAR
STARTCHAR 00E6
ENCODING 230
SWIDTH 720 0
DWIDTH 28 0
BBX 29 28 1 -1
BITMAP
00001FE0
0000FFF8
0001FFF0
0003FFF0
0003FFE0
0007FFE0
0007FFE0
000FFFC0
001FFC00
001FF800
003FF800
003FFBC0
007FFF80
00FFFF80
00F7FF80
01E7F800
03C3F800
03C3FFF0
079FFFF0
0FFFFFF0
0FFFFFF0
1FF7FFF0
3F87FFF0
3F07FFF0
7F07FFE0
7E07FE00
FE07C000
E0000000
ENDCHAR
STARTCHAR 00E7
ENCODING 231
SWIDTH 488 0
DWIDTH 19 0
BBX 20 33 3 -7
BITMAP
003FC0
00FFE0
03FFF0
07FFF0
0FFFF0
1FFFF0
3FFFE0
3FF000
7FC000
7F8000
7F8000
7F0000
7F0000
FF8000
FFC380
FFFF80
FFFF80
FFFF80
FFFF80
FFFF00
7FFF00
7FFF00
7FFC00
7FFC00
0FF000
0F8000
0F0000
0F8000
03C000
E3E000
FFC000
FF8000
080000
ENDCHAR
STARTCHAR 00E8
ENCODING 232
SWIDTH 488 0
DWIDTH 19 0
BBX 15 34 5 0
BITMAP
0F00
1F80
1F80
0FC0
07C0
03C0
0000
0FFC
3FFE
7FFE
7FFC
7FFC
7FF8
7FF8
7FF8
7F00
7E00
7F00
7FF0
7FF0
7FF0
7FF0
7E00
7E04
7FFC
FFFC
7FFC
7FFC
FFFC
FFFC
FFFC
FFF8
FF80
F000
ENDCHAR
STARTCHAR 00E9
ENCODING 233
SWIDTH 488 0
DWIDTH 19 0
BBX 15 34 5 1
BITMAP
007C
00F8
00F0
01F0
03E0
03C0
0000
0FFC
3FFE
7FFE
7FFC
7FFC
7FF8
7FF8
7FF8
7F00
7E00
7F00
7FF0
7FF0
7FF0
7FF0
7E00
7E04
7FFC
FFFC
7FFC
7FFC
FFFC
FFFC
FFFC
FFF8
FF80
F000
ENDCHAR
STARTCHAR 00EA
ENCODING 234
SWIDTH 488 0
DWIDTH 19 0
BBX 15 34 5 0
BITMAP
01C0
07E0
0FF8
1FFC
3E7C
3C20
0000
0FFC
3FFE
7FFE
7FFC
7FFC
7FF8
7FF8
7FF8
7F00
7E00
7F00
7FF0
7FF0
7FF0
7FF0
7E00
7E04
7FFC
FFFC
7FFC
7FFC
FFFC
FFFC
FFFC
FFF8
FF80
F000
ENDCHAR
STARTCHAR 00EB
ENCODING 235
SWIDTH 488 0
DWIDTH 19 0
BBX 15 32 5 0
BITMAP
0078
1C78
3C78
3C70
1800
0FFC
3FFE
7FFE
7FFC
7FFC
7FF8
7FF8
7FF8
7F00
7E00
7F00
7FF0
7FF0
7FF0
7FF0
7E00
7E04
7FFC
FFFC
7FFC
7FFC
FFFC
FFFC
FFFC
FFF8
FF80
F000
ENDCHAR
STARTCHAR 00EC
ENCODING 236
SWIDTH 334 0
DWIDTH 13 0
BBX 17 34 1 0
BITMAP
007C00
007C00
007C00
003E00
001E00
001E00
000000
000000
00FF80
00FF00
00FF00
01FE00
01FE00
01FE00
03FC00
03FC00
03FC00
07FC00
07F800
07F800
0FF800
0FF800
0FF000
0FF000
1FF000
1FF000
1FF000
1FE000
3FE000
3FC000
3FC000
7FC000
7F8000
F80000
ENDCHAR
STARTCHAR 00ED
ENCODING 237
SWIDTH 334 0
DWIDTH 13 0
BBX 20 34 1 0
BITMAP
0001F0
0003F0
0003E0
0007C0
000F80
000F00
000000
000000
00FF80
00FF00
00FF00
01FE00
01FE00
01FE00
03FC00
03FC00
03FC00
07FC00
07F800
07F800
0FF800
0FF800
0FF000
0FF000
1FF000
1FF000
1FF000
1FE000
3FE000
3FC000
3FC000
7FC000
7F8000
F80000
ENDCHAR
STARTCHAR 00EE
ENCODING 238
SWIDTH 334 0
DWIDTH 13 0
BBX 19 34 1 0
BITMAP
000200
000F00
003FC0
007FC0
00FFE0
01F1E0
000000
000000
00FF80
00FF00
00FF00
01FE00
01FE00
01FE00
03FC00
03FC00
03FC00
07FC00
07F800
07F800
0FF800
0FF800
0FF000
0FF000
1FF000
1FF000
1FF000
1FE000
3FE000
3FC000
3FC000
7FC000
7F8000
F80000
ENDCHAR
STARTCHAR 00EF
ENCODING 239
SWIDTH 334 0
DWIDTH 13 0
BBX 19 32 1 0
BITMAP
0000C0
0071E0
00F1E0
00F1C0
006080
000000
00FF80
00FF00
00FF00
01FE00
01FE00
01FE00
03FC00
03FC00
03FC00
07FC00
07F800
07F800
0FF800
0FF800
0FF000
0FF000
1FF000
1FF000
1FF000
1FE000
3FE000
3FC000
3FC000
7FC000
7F8000
F80000
ENDCHAR
STARTCHAR 00F0
ENCODING 240
SWIDTH 488 0
DWIDTH 19 0
BBX 19 27 3 0
BITMAP
018000
07F800
0FFF00
0FFF80
0FFF80
1FFFC0
1FFFC0
1FFFE0
1FC7E0
1FF3E0
7FF3E0
FFF3E0
FFF7E0
FFF7C0
FF8FC0
FF9F80
3FFF00
3FFF00
3FFE00
3FFC00
3FF800
3FF000
3FE000
3FC000
3F0000
3C0000
300000
ENDCHAR
STARTCHAR 00F1
ENCODING 241
SWIDTH 565 0
DWIDTH 22 0
BBX 26 33 1 0
BITMAP
0003CF00
0007FF00
0007FF00
000FFE00
000E7C00
00000000
00000000
00780F80
01FE3FC0
01FE3F80
01FE3F80
03FE7F80
03FC7F00
07FC7F00
07FEFF00
07FEFE00
0FFEFE00
0FFEFE00
0FFEFC00
1FFFFC00
1FFFFC00
1FFFFC00
1FDFF800
3FDFF800
3FDFF800
3F9FF000
3F9FF000
7F9FF000
7F8FF000
7F0FE000
FF1FE000
FF1FE000
E0000000
ENDCHAR
STARTCHAR 00F2
ENCODING 242
SWIDTH 514 0
DWIDTH 20 0
BBX 20 34 3 0
BITMAP
07C000
07C000
03E000
03E000
01E000
00F000
000000
007800
00FC00
01FF00
03FF80
07FFC0
07FFC0
0FFFE0
1FFFE0
1FFFF0
3FFFF0
3F8FF0
7F87F0
7F07F0
FF07F0
FF0FF0
FF0FF0
FF9FE0
FFFFE0
FFFFE0
FFFFC0
FFFFC0
FFFF80
7FFF80
7FFF00
3FFE00
1FFC00
07F000
ENDCHAR
STARTCHAR 00F3
ENCODING 243
SWIDTH 514 0
DWIDTH 20 0
BBX 20 34 3 0
BITMAP
0007C0
000FC0
000F80
001F00
003E00
007800
000000
007800
00FC00
01FF00
03FF80
07FFC0
07FFC0
0FFFE0
1FFFE0
1FFFF0
3FFFF0
3F8FF0
7F87F0
7F07F0
FF07F0
FF0FF0
FF0FF0
FF9FE0
FFFFE0
FFFFE0
FFFFC0
FFFFC0
FFFF80
7FFF80
7FFF00
3FFE00
1FFC00
07F000
ENDCHAR
STARTCHAR 00F4
ENCODING 244
SWIDTH 514 0
DWIDTH 20 0
BBX 20 34 3 0
BITMAP
003800
007C00
01FE00
03FF00
07DF80
078F00
000000
007800
00FC00
01FF00
03FF80
07FFC0
07FFC0
0FFFE0
1FFFE0
1FFFF0
3FFFF0
3F8FF0
7F87F0
7F07F0
FF07F0
FF0FF0
FF0FF0
FF9FE0
FFFFE0
FFFFE0
FFFFC0
FFFFC0
FFFF80
7FFF80
7FFF00
3FFE00
1FFC00
07F000
ENDCHAR
STARTCHAR 00F5
ENCODING 245
SWIDTH 514 0
DWIDTH 20 0
BBX 20 34 3 0
BITMAP
000780
01C780
03FF80
07FF00
07FE00
073C00
070000
007800
00FC00
01FF00
03FF80
07FFC0
07FFC0
0FFFE0
1FFFE0
1FFFF0
3FFFF0
3F8FF0
7F87F0
7F07F0
FF07F0
FF0FF0
FF0FF0
FF9FE0
FFFFE0
FFFFE0
FFFFC0
FFFFC0
FFFF80
7FFF80
7FFF00
3FFE00
1FFC00
07F000
ENDCHAR
STARTCHAR 00F6
ENCODING 246
SWIDTH 514 0
DWIDTH 20 0
BBX 20 32 3 0
BITMAP
000200
03CF00
07CF00
078F00
030400
007800
00FC00
01FF00
03FF80
07FFC0
07FFC0
0FFFE0
1FFFE0
1FFFF0
3FFFF0
3F8FF0
7F87F0
7F07F0
FF07F0
FF0FF0
FF0FF0
FF9FE0
FFFFE0
FFFFE0
FFFFC0
FFFFC0
FFFF80
7FFF80
7FFF00
3FFE00
1FFC00
07F000
ENDCHAR
STARTCHAR 00F7
ENCODING 247
SWIDTH 462 0
DWIDTH 18 0
BBX 18 21 3 3
BITMAP
003800
007C00
00FC00
01FC00
01F800
00F800
000000
000000
7FFFC0
7FFFC0
7FFFC0
FFFFC0
FFF000
000000
018000
07E000
07E000
07E000
0FC000
0FC000
030000
ENDCHAR
STARTCHAR 00F8
ENCODING 248
SWIDTH 514 0
DWIDTH 20 0
BBX 27 29 0 -1
BITMAP
00000400
000F0FE0
001F9FC0
003FFF80
007FFF00
00FFFE00
00FFFE00
01FFFC00
03FFFC00
03FFFE00
07FFFE00
07EFFE00
0FCFFE00
0F9FFE00
1FBF7E00
1FFEFE00
1FFCFE00
1FF9FC00
1FF3FC00
1FFFFC00
1FFFF800
1FFFF800
1FFFF000
1FFFF000
3FFFE000
7FFFC000
7FFF8000
F8FE0000
10000000
ENDCHAR
STARTCHAR 00F9
ENCODING 249
SWIDTH 540 0
DWIDTH 21 0
BBX 23 33 3 1
BITMAP
003E00
007E00
003E00
001F00
001F00
000F00
000000
030000
07E07E
07E0FE
0FC07E
0FC07C
0FC0FC
1FC0FC
1F80FC
3F81FC
3F01F8
3F01F8
7F03F8
7F03F8
FF07F8
FF87F0
FFCFF0
FFFFE0
FFFFE0
FFFFC0
FFFFC0
FFFF80
7FFF00
7FFE00
7FFC00
3FF800
0FF000
ENDCHAR
STARTCHAR 00FA
ENCODING 250
SWIDTH 540 0
DWIDTH 21 0
BBX 23 33 3 1
BITMAP
00007C
0000FC
0000F8
0001F0
0003E0
0003C0
000000
030000
07E07E
07E0FE
0FC07E
0FC07C
0FC0FC
1FC0FC
1F80FC
3F81FC
3F01F8
3F01F8
7F03F8
7F03F8
FF07F8
FF87F0
FFCFF0
FFFFE0
FFFFE0
FFFFC0
FFFFC0
FFFF80
7FFF00
7FFE00
7FFC00
3FF800
0FF000
ENDCHAR
STARTCHAR 00FB
ENCODING 251
SWIDTH 540 0
DWIDTH 21 0
BBX 23 33 3 1
BITMAP
000080
0003C0
000FE0
001FF0
003EF8
007C78
000000
030000
07E07E
07E0FE
0FC07E
0FC07C
0FC0FC
1FC0FC
1F80FC
3F81FC
3F01F8
3F01F8
7F03F8
7F03F8
FF07F8
FF87F0
FFCFF0
FFFFE0
FFFFE0
FFFFC0
FFFFC0
FFFF80
7FFF00
7FFE00
7FFC00
3FF800
0FF000
ENDCHAR
STARTCHAR 00FC
ENCODING 252
SWIDTH 540 0
DWIDTH 21 0
BBX 23 31 3 1
BITMAP
000800
003C70
003C78
003CF8
001060
030000
07E07E
07E0FE
0FC07E
0FC07C
0FC0FC
1FC0FC
1F80FC
3F81FC
3F01F8
3F01F8
7F03F8
7F03F8
FF07F8
FF87F0
FFCFF0
FFFFE0
FFFFE0
FFFFC0
FFFFC0
FFFF80
7FFF00
7FFE00
7FFC00
3FF800
0FF000
ENDCHAR
STARTCHAR 00FD
ENCODING 253
SWIDTH 591 0
DWIDTH 23 0
BBX 23 34 6 0
BITMAP
0001E0
0003E0
0007C0
000F80
001F00
001E00
000000
000026
0400FC
7E00FC
FE01F8
FE03F0
FF07F0
FF07E0
7F0FC0
7F1FC0
7F3F80
3FBF00
3FFF00
3FFE00
3FFC00
1FFC00
1FF800
1FF000
0FF000
0FE000
0FC000
0FC000
0FC000
0FC000
0FC000
1FC000
1FC000
1F0000
ENDCHAR
STARTCHAR 00FE
ENCODING 254
SWIDTH 488 0
DWIDTH 19 0
BBX 19 27 2 0
BITMAP
07E000
0FE000
0FE000
0FE000
0FFE00
1FFF80
1FFFC0
1FFFE0
1FFFE0
1FCFE0
1F83E0
3F83E0
3F83E0
3F83E0
3F87E0
3F87E0
3F8FE0
3FFFE0
7FFFC0
7FFF80
7FFF00
7FFC00
7F0000
7F0000
FF0000
FF0000
FE0000
ENDCHAR
STARTCHAR 00FF
ENCODING 255
SWIDTH 591 0
DWIDTH 23 0
BBX 23 32 6 0
BITMAP
000100
00E3C0
01E3C0
01E780
00C100
000026
0400FC
7E00FC
FE01F8
FE03F0
FF07F0
FF07E0
7F0FC0
7F1FC0
7F3F80
3FBF00
3FFF00
3FFE00
3FFC00
1FFC00
1FF800
1FF000
0FF000
0FE000
0FC000
0FC000
0FC000
0FC000
0FC000
1FC000
1FC000
1F0000
ENDCHAR
STARTCHAR 0100
ENCODING 256
SWIDTH 617 0
DWIDTH 24 0
BBX 24 32 1 -1
BITMAP
0007FF
0007FF
0007FF
000000
000000
0000F0
0001F0
0003F0
0003F0
0007F0
0007F0
000FF0
000FF0
001FF0
003FF0
003FF0
007FF0
00FFF8
00FFF8
01E7F8
03E3F8
03C3F8
078FF8
0FFFF8
0FFFF8
1FFFFC
1F87FC
3F07FC
7F07FC
7E07FE
FE07FE
F00000
ENDCHAR
STARTCHAR 0101
ENCODING 257
SWIDTH 617 0
DWIDTH 24 0
BBX 24 32 1 -1
BITMAP
0007FF
0007FF
0007FF
000000
000000
0000F0
0001F0
0003F0
0003F0
0007F0
0007F0
000FF0
000FF0
001FF0
003FF0
003FF0
007FF0
00FFF8
00FFF8
01E7F8
03E3F8
03C3F8
078FF8
0FFFF8
0FFFF8
1FFFFC
1F87FC
3F07FC
7F07FC
7E07FE
FE07FE
F00000
ENDCHAR
STARTCHAR 0102
ENCODING 258
SWIDTH 617 0
DWIDTH 24 0
BBX 25 34 1 -1
BITMAP
00070780
00079F00
0007FE00
0003FC00
0001F800
00000000
00000000
0000F000
0001F000
0003F000
0003F000
0007F000
0007F000
000FF000
000FF000
001FF000
003FF000
003FF000
007FF000
00FFF800
00FFF800
01E7F800
03E3F800
03C3F800
078FF800
0FFFF800
0FFFF800
1FFFFC00
1F87FC00
3F07FC00
7F07FC00
7E07FE00
FE07FE00
F0000000
ENDCHAR
STARTCHAR 0103
ENCODING 259
SWIDTH 617 0
DWIDTH 24 0
BBX 25 34 1 -1
BITMAP
00070780
00079F00
0007FE00
0003FC00
0001F800
00000000
00000000
0000F000
0001F000
0003F000
0003F000
0007F000
0007F000
000FF000
000FF000
001FF000
003FF000
003FF000
007FF000
00FFF800
00FFF800
01E7F800
03E3F800
03C3F800
078FF800
0FFFF800
0FFFF800
1FFFFC00
1F87FC00
3F07FC00
7F07FC00
7E07FE00
FE07FE00
F0000000
ENDCHAR
STARTCHAR 0104
ENCODING 260
SWIDTH 617 0
DWIDTH 24 0
BBX 23 33 1 -7
BITMAP
0000F0
0001F0
0003F0
0003F0
0007F0
0007F0
000FF0
000FF0
001FF0
003FF0
003FF0
007FF0
00FFF8
00FFF8
01E7F8
03E3F8
03C3F8
078FF8
0FFFF8
0FFFF8
1FFFFC
1F87FC
3F07FC
7F07FC
7E07FE
FE07FE
F00F00
001E00
001E00
003FF8
003FF0
001FF0
000300
ENDCHAR
STARTCHAR 0105
ENCODING 261
SWIDTH 617 0
DWIDTH 24 0
BBX 23 33 1 -7
BITMAP
0000F0
0001F0
0003F0
0003F0
0007F0
0007F0
000FF0
000FF0
001FF0
003FF0
003FF0
007FF0
00FFF8
00FFF8
01E7F8
03E3F8
03C3F8
078FF8
0FFFF8
0FFFF8
1FFFFC
1F87FC
3F07FC
7F07FC
7E07FE
FE07FE
F00F00
001E00
001E00
003FF8
003FF0
001FF0
000300
ENDCHAR
STARTCHAR 0106
ENCODING 262
SWIDTH 488 0
DWIDTH 19 0
BBX 22 34 3 0
BITMAP
00007C
0000FC
0000F8
0001F0
0003E0
000780
000000
000000
003FC0
01FFE0
03FFF0
07FFF0
0FFFF0
1FFFF0
3FFFE0
3FF000
7FC000
7F8000
7F8000
7F0000
7F0000
FF8000
FFC380
FFFF80
FFFF80
FFFF80
FFFF80
FFFF00
7FFF00
7FFF00
7FFC00
7FFC00
0FF000
008000
ENDCHAR
STARTCHAR 0107
ENCODING 263
SWIDTH 488 0
DWIDTH 19 0
BBX 22 34 3 0
BITMAP
00007C
0000FC
0000F8
0001F0
0003E0
000780
000000
000000
003FC0
01FFE0
03FFF0
07FFF0
0FFFF0
1FFFF0
3FFFE0
3FF000
7FC000
7F8000
7F8000
7F0000
7F0000
FF8000
FFC380
FFFF80
FFFF80
FFFF80
FFFF80
FFFF00
7FFF00
7FFF00
7FFC00
7FFC00
0FF000
008000
ENDCHAR
STARTCHAR 0108
ENCODING 264
SWIDTH 488 0
DWIDTH 19 0
BBX 21 34 3 0
BITMAP
000180
0007C0
000FE0
003FF0
007EF8
0078F0
000000
000000
003FC0
01FFE0
03FFF0
07FFF0
0FFFF0
1FFFF0
3FFFE0
3FF000
7FC000
7F8000
7F8000
7F0000
7F0000
FF8000
FFC380
FFFF80
FFFF80
FFFF80
FFFF80
FFFF00
7FFF00
7FFF00
7FFC00
7FFC00
0FF000
008000
ENDCHAR
STARTCHAR 0109
ENCODING 265
SWIDTH 488 0
DWIDTH 19 0
BBX 21 34 3 0
BITMAP
000180
0007C0
000FE0
003FF0
007EF8
0078F0
000000
000000
003FC0
01FFE0
03FFF0
07FFF0
0FFFF0
1FFFF0
3FFFE0
3FF000
7FC000
7F8000
7F8000
7F0000
7F0000
FF8000
FFC380
FFFF80
FFFF80
FFFF80
FFFF80
FFFF00
7FFF00
7FFF00
7FFC00
7FFC00
0FF000
008000
ENDCHAR
STARTCHAR 010A
ENCODING 266
SWIDTH 488 0
DWIDTH 19 0
BBX 20 31 3 0
BITMAP
000780
000F80
000F00
000600
000000
003FC0
01FFE0
03FFF0
07FFF0
0FFFF0
1FFFF0
3FFFE0
3FF000
7FC000
7F8000
7F8000
7F0000
7F0000
FF8000
FFC380
FFFF80
FFFF80
FFFF80
FFFF80
FFFF00
7FFF00
7FFF00
7FFC00
7FFC00
0FF000
008000
ENDCHAR
STARTCHAR 010B
ENCODING 267
SWIDTH 488 0
DWIDTH 19 0
BBX 20 31 3 0
BITMAP
000780
000F80
000F00
000600
000000
003FC0
01FFE0
03FFF0
07FFF0
0FFFF0
1FFFF0
3FFFE0
3FF000
7FC000
7F8000
7F8000
7F0000
7F0000
FF8000
FFC380
FFFF80
FFFF80
FFFF80
FFFF80
FFFF00
7FFF00
7FFF00
7FFC00
7FFC00
0FF000
008000
ENDCHAR
STARTCHAR 010C
ENCODING 268
SWIDTH 488 0
DWIDTH 19 0
BBX 21 34 3 0
BITMAP
000800
003C78
003FF8
003FF0
001FC0
000F80
000000
000000
003FC0
01FFE0
03FFF0
07FFF0
0FFFF0
1FFFF0
3FFFE0
3FF000
7FC000
7F8000
7F8000
7F0000
7F0000
FF8000
FFC380
FFFF80
FFFF80
FFFF80
FFFF80
FFFF00
7FFF00
7FFF00
7FFC00
7FFC00
0FF000
008000
ENDCHAR
STARTCHAR 010D
ENCODING 269
SWIDTH 488 0
DWIDTH 19 0
BBX 21 34 3 0
BITMAP
000800
003C78
003FF8
003FF0
001FC0
000F80
000000
000000
003FC0
01FFE0
03FFF0
07FFF0
0FFFF0
1FFFF0
3FFFE0
3FF000
7FC000
7F8000
7F8000
7F0000
7F0000
FF8000
FFC380
FFFF80
FFFF80
FFFF80
FFFF80
FFFF00
7FFF00
7FFF00
7FFC00
7FFC00
0FF000
008000
ENDCHAR
STARTCHAR 010E
ENCODING 270
SWIDTH 462 0
DWIDTH 18 0
BBX 17 34 4 0
BITMAP
000E00
0F3E00
1FFC00
0FF800
07F000
01C000
000000
060000
1FE000
3FFC00
3FFC00
7FFE00
7FFF00
7FFF00
7FFF00
7F1F80
7E0F80
FE0F80
FE1F80
FE1F80
FE3F00
FE3E00
FEFE00
FFFC00
FFF800
FFF800
FFF000
FFE000
FFC000
FF8000
FF0000
FC0000
F00000
C00000
ENDCHAR
STARTCHAR 010F
ENCODING 271
SWIDTH 462 0
DWIDTH 18 0
BBX 17 34 4 0
BITMAP
000E00
0F3E00
1FFC00
0FF800
07F000
01C000
000000
060000
1FE000
3FFC00
3FFC00
7FFE00
7FFF00
7FFF00
7FFF00
7F1F80
7E0F80
FE0F80
FE1F80
FE1F80
FE3F00
FE3E00
FEFE00
FFFC00
FFF800
FFF800
FFF000
FFE000
FFC000
FF8000
FF0000
FC0000
F00000
C00000
ENDCHAR
STARTCHAR 0110
ENCODING 272
SWIDTH 488 0
DWIDTH 19 0
BBX 19 27 3 0
BITMAP
018000
07F800
0FFF00
0FFF80
0FFF80
1FFFC0
1FFFC0
1FFFE0
1FC7E0
1FF3E0
7FF3E0
FFF3E0
FFF7E0
FFF7C0
FF8FC0
FF9F80
3FFF00
3FFF00
3FFE00
3FFC00
3FF800
3FF000
3FE000
3FC000
3F0000
3C0000
300000
ENDCHAR
STARTCHAR 0111
ENCODING 273
SWIDTH 488 0
DWIDTH 19 0
BBX 19 27 3 0
BITMAP
018000
07F800
0FFF00
0FFF80
0FFF80
1FFFC0
1FFFC0
1FFFE0
1FC7E0
1FF3E0
7FF3E0
FFF3E0
FFF7E0
FFF7C0
FF8FC0
FF9F80
3FFF00
3FFF00
3FFE00
3FFC00
3FF800
3FF000
3FE000
3FC000
3F0000
3C0000
300000
ENDCHAR
STARTCHAR 0112
ENCODING 274
SWIDTH 488 0
DWIDTH 19 0
BBX 15 32 5 0
BITMAP
007C
3FFC
3FF8
3FC0
3000
0FFC
3FFE
7FFE
7FFC
7FFC
7FF8
7FF8
7FF8
7F00
7E00
7F00
7FF0
7FF0
7FF0
7FF0
7E00
7E04
7FFC
FFFC
7FFC
7FFC
FFFC
FFFC
FFFC
FFF8
FF80
F000
ENDCHAR
STARTCHAR 0113
ENCODING 275
SWIDTH 488 0
DWIDTH 19 0
BBX 15 32 5 0
BITMAP
007C
3FFC
3FF8
3FC0
3000
0FFC
3FFE
7FFE
7FFC
7FFC
7FF8
7FF8
7FF8
7F00
7E00
7F00
7FF0
7FF0
7FF0
7FF0
7E00
7E04
7FFC
FFFC
7FFC
7FFC
FFFC
FFFC
FFFC
FFF8
FF80
F000
ENDCHAR
STARTCHAR 0114
ENCODING 276
SWIDTH 488 0
DWIDTH 19 0
BBX 15 34 5 0
BITMAP
001C
1C3C
1FF8
1FF8
1FE0
07C0
0000
0FFC
3FFE
7FFE
7FFC
7FFC
7FF8
7FF8
7FF8
7F00
7E00
7F00
7FF0
7FF0
7FF0
7FF0
7E00
7E04
7FFC
FFFC
7FFC
7FFC
FFFC
FFFC
FFFC
FFF8
FF80
F000
ENDCHAR
STARTCHAR 0115
ENCODING 277
SWIDTH 488 0
DWIDTH 19 0
BBX 15 34 5 0
BITMAP
001C
1C3C
1FF8
1FF8
1FE0
07C0
0000
0FFC
3FFE
7FFE
7FFC
7FFC
7FF8
7FF8
7FF8
7F00
7E00
7F00
7FF0
7FF0
7FF0
7FF0
7E00
7E04
7FFC
FFFC
7FFC
7FFC
FFFC
FFFC
FFFC
FFF8
FF80
F000
ENDCHAR
STARTCHAR 0116
ENCODING 278
SWIDTH 488 0
DWIDTH 19 0
BBX 15 32 5 0
BITMAP
01C0
03C0
07C0
0380
0000
0FFC
3FFE
7FFE
7FFC
7FFC
7FF8
7FF8
7FF8
7F00
7E00
7F00
7FF0
7FF0
7FF0
7FF0
7E00
7E04
7FFC
FFFC
7FFC
7FFC
FFFC
FFFC
FFFC
FFF8
FF80
F000
ENDCHAR
STARTCHAR 0117
ENCODING 279
SWIDTH 488 0
DWIDTH 19 0
BBX 15 32 5 0
BITMAP
01C0
03C0
07C0
0380
0000
0FFC
3FFE
7FFE
7FFC
7FFC
7FF8
7FF8
7FF8
7F00
7E00
7F00
7FF0
7FF0
7FF0
7FF0
7E00
7E04
7FFC
FFFC
7FFC
7FFC
FFFC
FFFC
FFFC
FFF8
FF80
F000
ENDCHAR
STARTCHAR 0118
ENCODING 280
SWIDTH 488 0
DWIDTH 19 0
BBX 15 33 5 -6
BITMAP
0FFC
3FFE
7FFE
7FFC
7FFC
7FF8
7FF8
7FF8
7F00
7E00
7F00
7FF0
7FF0
7FF0
7FF0
7E00
7E04
7FFC
FFFC
7FFC
7FFC
FFFC
FFFC
FFFC
FFF8
FF80
F700
0E00
1E00
1E78
1FF8
1FF8
0FC0
ENDCHAR
STARTCHAR 0119
ENCODING 281
SWIDTH 488 0
DWIDTH 19 0
BBX 15 33 5 -6
BITMAP
0FFC
3FFE
7FFE
7FFC
7FFC
7FF8
7FF8
7FF8
7F00
7E00
7F00
7FF0
7FF0
7FF0
7FF0
7E00
7E04
7FFC
FFFC
7FFC
7FFC
FFFC
FFFC
FFFC
FFF8
FF80
F700
0E00
1E00
1E78
1FF8
1FF8
0FC0
ENDCHAR
STARTCHAR 011A
ENCODING 282
SWIDTH 488 0
DWIDTH 19 0
BBX 15 34 5 0
BITMAP
001C
1E7C
3FF8
1FF0
0FE0
0380
0000
0FFC
3FFE
7FFE
7FFC
7FFC
7FF8
7FF8
7FF8
7F00
7E00
7F00
7FF0
7FF0
7FF0
7FF0
7E00
7E04
7FFC
FFFC
7FFC
7FFC
FFFC
FFFC
FFFC
FFF8
FF80
F000
ENDCHAR
STARTCHAR 011B
ENCODING 283
SWIDTH 488 0
DWIDTH 19 0
BBX 15 34 5 0
BITMAP
001C
1E7C
3FF8
1FF0
0FE0
0380
0000
0FFC
3FFE
7FFE
7FFC
7FFC
7FF8
7FF8
7FF8
7F00
7E00
7F00
7FF0
7FF0
7FF0
7FF0
7E00
7E04
7FFC
FFFC
7FFC
7FFC
FFFC
FFFC
FFFC
FFF8
FF80
F000
ENDCHAR
STARTCHAR 011C
ENCODING 284
SWIDTH 488 0
DWIDTH 19 0
BBX 21 34 2 0
BITMAP
000180
0007C0
000FE0
003FF0
007EF8
0078F8
000000
000F80
003FE0
007FF0
00FFF8
01FFF8
03FFF8
03F9E0
07E000
07C000
0F8000
0F8000
1F0070
1F0FF0
3E1FF0
3E1FE0
3E1FE0
7E1FE0
7E1FE0
FF3FE0
FFFFC0
FFFFC0
FFFF80
FFFF00
7FFC00
7FF000
3FC000
080000
ENDCHAR
STARTCHAR 011D
ENCODING 285
SWIDTH 488 0
DWIDTH 19 0
BBX 21 34 2 0
BITMAP
000180
0007C0
000FE0
003FF0
007EF8
0078F8
000000
000F80
003FE0
007FF0
00FFF8
01FFF8
03FFF8
03F9E0
07E000
07C000
0F8000
0F8000
1F0070
1F0FF0
3E1FF0
3E1FE0
3E1FE0
7E1FE0
7E1FE0
FF3FE0
FFFFC0
FFFFC0
FFFF80
FFFF00
7FFC00
7FF000
3FC000
080000
ENDCHAR
STARTCHAR 011E
ENCODING 286
SWIDTH 488 0
DWIDTH 19 0
BBX 21 33 2 0
BITMAP
003838
003CF8
003FF0
003FE0
001FC0
000000
000F80
003FE0
007FF0
00FFF8
01FFF8
03FFF8
03F9E0
07E000
07C000
0F8000
0F8000
1F0070
1F0FF0
3E1FF0
3E1FE0
3E1FE0
7E1FE0
7E1FE0
FF3FE0
FFFFC0
FFFFC0
FFFF80
FFFF00
7FFC00
7FF000
3FC000
080000
ENDCHAR
STARTCHAR 011F
ENCODING 287
SWIDTH 488 0
DWIDTH 19 0
BBX 21 33 2 0
BITMAP
003838
003CF8
003FF0
003FE0
001FC0
000000
000F80
003FE0
007FF0
00FFF8
01FFF8
03FFF8
03F9E0
07E000
07C000
0F8000
0F8000
1F0070
1F0FF0
3E1FF0
3E1FE0
3E1FE0
7E1FE0
7E1FE0
FF3FE0
FFFFC0
FFFFC0
FFFF80
FFFF00
7FFC00
7FF000
3FC000
080000
ENDCHAR
STARTCHAR 0120
ENCODING 288
SWIDTH 488 0
DWIDTH 19 0
BBX 21 31 2 0
BITMAP
000780
000F80
000F00
000600
000F80
003FE0
007FF0
00FFF8
01FFF8
03FFF8
03F9E0
07E000
07C000
0F8000
0F8000
1F0070
1F0FF0
3E1FF0
3E1FE0
3E1FE0
7E1FE0
7E1FE0
FF3FE0
FFFFC0
FFFFC0
FFFF80
FFFF00
7FFC00
7FF000
3FC000
080000
ENDCHAR
STARTCHAR 0121
ENCODING 289
SWIDTH 488 0
DWIDTH 19 0
BBX 21 31 2 0
BITMAP
000780
000F80
000F00
000600
000F80
003FE0
007FF0
00FFF8
01FFF8
03FFF8
03F9E0
07E000
07C000
0F8000
0F8000
1F0070
1F0FF0
3E1FF0
3E1FE0
3E1FE0
7E1FE0
7E1FE0
FF3FE0
FFFFC0
FFFFC0
FFFF80
FFFF00
7FFC00
7FF000
3FC000
080000
ENDCHAR
STARTCHAR 0122
ENCODING 290
SWIDTH 488 0
DWIDTH 19 0
BBX 21 34 2 -7
BITMAP
000F80
003FE0
007FF0
00FFF8
01FFF8
03FFF8
03F9E0
07E000
07C000
0F8000
0F8000
1F0070
1F0FF0
3E1FF0
3E1FE0
3E1FE0
7E1FE0
7E1FE0
FF3FE0
FFFFC0
FFFFC0
FFFF80
FFFF00
7FFC00
7FF000
3FC000
080000
0C0000
1F0000
3F0000
3E0000
3C0000
780000
100000
ENDCHAR
STARTCHAR 0123
ENCODING 291
SWIDTH 488 0
DWIDTH 19 0
BBX 21 34 2 -7
BITMAP
000F80
003FE0
007FF0
00FFF8
01FFF8
03FFF8
03F9E0
07E000
07C000
0F8000
0F8000
1F0070
1F0FF0
3E1FF0
3E1FE0
3E1FE0
7E1FE0
7E1FE0
FF3FE0
FFFFC0
FFFFC0
FFFF80
FFFF00
7FFC00
7FF000
3FC000
080000
0C0000
1F0000
3F0000
3E0000
3C0000
780000
100000
ENDCHAR
STARTCHAR 0124
ENCODING 292
SWIDTH 540 0
DWIDTH 21 0
BBX 25 33 1 1
BITMAP
00000800
00007C00
0000FE00
0003FF00
0007EF80
00078F80
00000000
00000000
007F0000
01FE1F80
01FE3F80
01FE3F80
01FE3F80
01FC7F00
03FC7F00
03FC7F00
03FC7F00
07FDFE00
07FFFE00
07FFFE00
0FFFFC00
0FFFFC00
0FFFFC00
1FFFFC00
1FFFFC00
1FE3FC00
3FE3F800
3FE7F800
3FC7F800
3FC7F000
7FC7F000
7FC7F000
FF8F8000
ENDCHAR
STARTCHAR 0125
ENCODING 293
SWIDTH 540 0
DWIDTH 21 0
BBX 25 33 1 1
BITMAP
00000800
00007C00
0000FE00
0003FF00
0007EF80
00078F80
00000000
00000000
007F0000
01FE1F80
01FE3F80
01FE3F80
01FE3F80
01FC7F00
03FC7F00
03FC7F00
03FC7F00
07FDFE00
07FFFE00
07FFFE00
0FFFFC00
0FFFFC00
0FFFFC00
1FFFFC00
1FFFFC00
1FE3FC00
3FE3F800
3FE7F800
3FC7F800
3FC7F000
7FC7F000
7FC7F000
FF8F8000
ENDCHAR
STARTCHAR 0126
ENCODING 294
SWIDTH 591 0
DWIDTH 23 0
BBX 26 25 1 1
BITMAP
007F0000
01FE1F80
01FFFFC0
07FFFFC0
0FFFFFC0
0FFFFFC0
0FFFFFC0
0FFFFF00
03FC7F00
07FDFE00
07FFFE00
07FFFE00
0FFFFC00
0FFFFC00
0FFFFC00
1FFFFC00
1FFFFC00
1FE3FC00
3FE3F800
3FE7F800
3FC7F800
3FC7F000
7FC7F000
7FC7F000
FF8F8000
ENDCHAR
STARTCHAR 0127
ENCODING 295
SWIDTH 591 0
DWIDTH 23 0
BBX 26 25 1 1
BITMAP
007F0000
01FE1F80
01FFFFC0
07FFFFC0
0FFFFFC0
0FFFFFC0
0FFFFFC0
0FFFFF00
03FC7F00
07FDFE00
07FFFE00
07FFFE00
0FFFFC00
0FFFFC00
0FFFFC00
1FFFFC00
1FFFFC00
1FE3FC00
3FE3F800
3FE7F800
3FC7F800
3FC7F000
7FC7F000
7FC7F000
FF8F8000
ENDCHAR
STARTCHAR 0128
ENCODING 296
SWIDTH 334 0
DWIDTH 13 0
BBX 20 33 1 0
BITMAP
003CF0
007FF0
00FFE0
00FFE0
00EFC0
000000
000000
00FF80
00FF00
00FF00
01FE00
01FE00
01FE00
03FC00
03FC00
03FC00
07FC00
07F800
07F800
0FF800
0FF800
0FF000
0FF000
1FF000
1FF000
1FF000
1FE000
3FE000
3FC000
3FC000
7FC000
7F8000
F80000
ENDCHAR
STARTCHAR 0129
ENCODING 297
SWIDTH 334 0
DWIDTH 13 0
BBX 20 33 1 0
BITMAP
003CF0
007FF0
00FFE0
00FFE0
00EFC0
000000
000000
00FF80
00FF00
00FF00
01FE00
01FE00
01FE00
03FC00
03FC00
03FC00
07FC00
07F800
07F800
0FF800
0FF800
0FF000
0FF000
1FF000
1FF000
1FF000
1FE000
3FE000
3FC000
3FC000
7FC000
7F8000
F80000
ENDCHAR
STARTCHAR 012A
ENCODING 298
SWIDTH 334 0
DWIDTH 13 0
BBX 20 31 1 0
BITMAP
00FFF0
00FFE0
00FFE0
000000
000000
00FF80
00FF00
00FF00
01FE00
01FE00
01FE00
03FC00
03FC00
03FC00
07FC00
07F800
07F800
0FF800
0FF800
0FF000
0FF000
1FF000
1FF000
1FF000
1FE000
3FE000
3FC000
3FC000
7FC000
7F8000
F80000
ENDCHAR
STARTCHAR 012B
ENCODING 299
SWIDTH 334 0
DWIDTH 13 0
BBX 20 31 1 0
BITMAP
00FFF0
00FFE0
00FFE0
000000
000000
00FF80
00FF00
00FF00
01FE00
01FE00
01FE00
03FC00
03FC00
03FC00
07FC00
07F800
07F800
0FF800
0FF800
0FF000
0FF000
1FF000
1FF000
1FF000
1FE000
3FE000
3FC000
3FC000
7FC000
7F8000
F80000
ENDCHAR
STARTCHAR 012C
ENCODING 300
SWIDTH 334 0
DWIDTH 13 0
BBX 20 33 1 0
BITMAP
0070F0
0079F0
007FE0
007FC0
003F80
000000
000000
00FF80
00FF00
00FF00
01FE00
01FE00
01FE00
03FC00
03FC00
03FC00
07FC00
07F800
07F800
0FF800
0FF800
0FF000
0FF000
1FF000
1FF000
1FF000
1FE000
3FE000
3FC000
3FC000
7FC000
7F8000
F80000
ENDCHAR
STARTCHAR 012D
ENCODING 301
SWIDTH 334 0
DWIDTH 13 0
BBX 20 33 1 0
BITMAP
0070F0
0079F0
007FE0
007FC0
003F80
000000
000000
00FF80
00FF00
00FF00
01FE00
01FE00
01FE00
03FC00
03FC00
03FC00
07FC00
07F800
07F800
0FF800
0FF800
0FF000
0FF000
1FF000
1FF000
1FF000
1FE000
3FE000
3FC000
3FC000
7FC000
7F8000
F80000
ENDCHAR
STARTCHAR 012E
ENCODING 302
SWIDTH 334 0
DWIDTH 13 0
BBX 17 33 1 -7
BITMAP
00FF80
00FF00
00FF00
01FE00
01FE00
01FE00
03FC00
03FC00
03FC00
07FC00
07F800
07F800
0FF800
0FF800
0FF000
0FF000
1FF000
1FF000
1FF000
1FE000
3FE000
3FC000
3FC000
7FC000
7F8000
FC0000
3C0000
780000
780000
FFE000
FFC000
7FC000
0C0000
ENDCHAR
STARTCHAR 012F
ENCODING 303
SWIDTH 334 0
DWIDTH 13 0
BBX 17 33 1 -7
BITMAP
00FF80
00FF00
00FF00
01FE00
01FE00
01FE00
03FC00
03FC00
03FC00
07FC00
07F800
07F800
0FF800
0FF800
0FF000
0FF000
1FF000
1FF000
1FF000
1FE000
3FE000
3FC000
3FC000
7FC000
7F8000
FC0000
3C0000
780000
780000
FFE000
FFC000
7FC000
0C0000
ENDCHAR
STARTCHAR 0130
ENCODING 304
SWIDTH 334 0
DWIDTH 13 0
BBX 17 32 1 0
BITMAP
000400
000F00
000F00
001E00
000400
000000
00FF80
00FF00
00FF00
01FE00
01FE00
01FE00
03FC00
03FC00
03FC00
07FC00
07F800
07F800
0FF800
0FF800
0FF000
0FF000
1FF000
1FF000
1FF000
1FE000
3FE000
3FC000
3FC000
7FC000
7F8000
F80000
ENDCHAR
STARTCHAR 0131
ENCODING 305
SWIDTH 334 0
DWIDTH 13 0
BBX 17 32 1 0
BITMAP
000400
000F00
000F00
001E00
000400
000000
00FF80
00FF00
00FF00
01FE00
01FE00
01FE00
03FC00
03FC00
03FC00
07FC00
07F800
07F800
0FF800
0FF800
0FF000
0FF000
1FF000
1FF000
1FF000
1FE000
3FE000
3FC000
3FC000
7FC000
7F8000
F80000
ENDCHAR
STARTCHAR 0132
ENCODING 306
SWIDTH 591 0
DWIDTH 23 0
BBX 27 26 1 0
BITMAP
00FC0FE0
01FC0FE0
01FC1FE0
01F81FC0
03F81FC0
03F83FC0
03F03FC0
07F03FC0
07F03FC0
07E07F80
07E07F80
0FE07F80
0FE07F80
0FC07F80
0FC07F00
1FC07F00
1FC07F00
1FCE7E00
1FBE7E00
3FBFFE00
3FBF7C00
3F3FFC00
7F3FF800
7F3FF000
7E1FE000
F007C000
ENDCHAR
STARTCHAR 0133
ENCODING 307
SWIDTH 591 0
DWIDTH 23 0
BBX 27 26 1 0
BITMAP
00FC0FE0
01FC0FE0
01FC1FE0
01F81FC0
03F81FC0
03F83FC0
03F03FC0
07F03FC0
07F03FC0
07E07F80
07E07F80
0FE07F80
0FE07F80
0FC07F80
0FC07F00
1FC07F00
1FC07F00
1FCE7E00
1FBE7E00
3FBFFE00
3FBF7C00
3F3FFC00
7F3FF800
7F3FF000
7E1FE000
F007C000
ENDCHAR
STARTCHAR 0134
ENCODING 308
SWIDTH 437 0
DWIDTH 17 0
BBX 22 34 2 0
BITMAP
0000C0
0003F0
0007F8
000FFC
001F7C
003E38
001000
000000
000FF0
001FF0
001FF0
003FF0
003FE0
003FE0
007FE0
007FE0
007FE0
007FE0
007FE0
00FFC0
00FFC0
00FFC0
007FC0
007F80
007F80
3C7F80
FC7F00
FEFF00
FEFE00
FFFE00
FFFC00
7FF800
3FE000
0FC000
ENDCHAR
STARTCHAR 0135
ENCODING 309
SWIDTH 437 0
DWIDTH 17 0
BBX 22 34 2 0
BITMAP
0000C0
0003F0
0007F8
000FFC
001F7C
003E38
001000
000000
000FF0
001FF0
001FF0
003FF0
003FE0
003FE0
007FE0
007FE0
007FE0
007FE0
007FE0
00FFC0
00FFC0
00FFC0
007FC0
007F80
007F80
3C7F80
FC7F00
FEFF00
FEFE00
FFFE00
FFFC00
7FF800
3FE000
0FC000
ENDCHAR
STARTCHAR 0136
ENCODING 310
SWIDTH 540 0
DWIDTH 21 0
BBX 25 33 1 -7
BITMAP
00010400
07FF1C00
03FE3F00
07FE7F80
07FE7F00
07FEFE00
0FFDFC00
0FFDF800
0FFFF000
0FFFE000
0FFFC000
1FFFC000
1FFF8000
1FFF0000
3FFE0000
3FFF0000
3FFF8000
3FFF8000
7FFFC000
7FFFE000
7FEFE000
7FE7F000
7FC7F000
FFC3F000
FFE3F000
FFC39000
CF830000
00600000
01F80000
01F80000
01F00000
03E00000
03C00000
ENDCHAR
STARTCHAR 0137
ENCODING 311
SWIDTH 540 0
DWIDTH 21 0
BBX 25 33 1 -7
BITMAP
00010400
07FF1C00
03FE3F00
07FE7F80
07FE7F00
07FEFE00
0FFDFC00
0FFDF800
0FFFF000
0FFFE000
0FFFC000
1FFFC000
1FFF8000
1FFF0000
3FFE0000
3FFF0000
3FFF8000
3FFF8000
7FFFC000
7FFFE000
7FEFE000
7FE7F000
7FC7F000
FFC3F000
FFE3F000
FFC39000
CF830000
00600000
01F80000
01F80000
01F00000
03E00000
03C00000
ENDCHAR
STARTCHAR 0138
ENCODING 312
SWIDTH 514 0
DWIDTH 20 0
BBX 23 22 1 -1
BITMAP
004C30
0FFC78
0FFCFE
0FF9FC
0FFBF8
1FFFF0
1FFFE0
1FFFC0
1FFF80
3FFF00
3FFE00
3FFC00
7FFE00
7FFF00
7FFF80
7FFFC0
7FCFC0
FFCFE0
FFC7E0
FFC7E0
FF8300
000200
ENDCHAR
STARTCHAR 0139
ENCODING 313
SWIDTH 514 0
DWIDTH 20 0
BBX 22 35 1 -1
BITMAP
00007C
0000FC
0001F8
0001F0
0003C0
000780
000000
000100
007FE0
00FFC0
00FFC0
00FF80
01FF80
01FF80
01FF00
03FF00
03FF00
03FE00
07FE00
07FE00
07FC00
0FFC00
0FF800
1FF800
1FF800
1FF000
3FFFE0
3FFFE0
3FFFE0
3FFFE0
7FFFE0
7FFFE0
7FFFC0
FFB200
800000
ENDCHAR
STARTCHAR 013A
ENCODING 314
SWIDTH 514 0
DWIDTH 20 0
BBX 22 35 1 -1
BITMAP
00007C
0000FC
0001F8
0001F0
0003C0
000780
000000
000100
007FE0
00FFC0
00FFC0
00FF80
01FF80
01FF80
01FF00
03FF00
03FF00
03FE00
07FE00
07FE00
07FC00
0FFC00
0FF800
1FF800
1FF800
1FF000
3FFFE0
3FFFE0
3FFFE0
3FFFE0
7FFFE0
7FFFE0
7FFFC0
FFB200
800000
ENDCHAR
STARTCHAR 013B
ENCODING 315
SWIDTH 514 0
DWIDTH 20 0
BBX 19 34 1 -7
BITMAP
000100
007FE0
00FFC0
00FFC0
00FF80
01FF80
01FF80
01FF00
03FF00
03FF00
03FE00
07FE00
07FE00
07FC00
0FFC00
0FF800
1FF800
1FF800
1FF000
3FFFE0
3FFFE0
3FFFE0
3FFFE0
7FFFE0
7FFFE0
7FFFC0
FFB200
818000
03E000
07E000
07C000
0F8000
0F0000
020000
ENDCHAR
STARTCHAR 013C
ENCODING 316
SWIDTH 514 0
DWIDTH 20 0
BBX 19 34 1 -7
BITMAP
000100
007FE0
00FFC0
00FFC0
00FF80
01FF80
01FF80
01FF00
03FF00
03FF00
03FE00
07FE00
07FE00
07FC00
0FFC00
0FF800
1FF800
1FF800
1FF000
3FFFE0
3FFFE0
3FFFE0
3FFFE0
7FFFE0
7FFFE0
7FFFC0
FFB200
818000
03E000
07E000
07C000
0F8000
0F0000
020000
ENDCHAR
STARTCHAR 013D
ENCODING 317
SWIDTH 514 0
DWIDTH 20 0
BBX 24 29 1 -1
BITMAP
000006
00010F
007FEF
00FFDF
00FFDE
00FF9E
01FFBC
01FFBC
01FF38
03FF10
03FF00
03FE00
07FE00
07FE00
07FC00
0FFC00
0FF800
1FF800
1FF800
1FF000
3FFFE0
3FFFE0
3FFFE0
3FFFE0
7FFFE0
7FFFE0
7FFFC0
FFB200
800000
ENDCHAR
STARTCHAR 013E
ENCODING 318
SWIDTH 514 0
DWIDTH 20 0
BBX 24 29 1 -1
BITMAP
000006
00010F
007FEF
00FFDF
00FFDE
00FF9E
01FFBC
01FFBC
01FF38
03FF10
03FF00
03FE00
07FE00
07FE00
07FC00
0FFC00
0FF800
1FF800
1FF800
1FF000
3FFFE0
3FFFE0
3FFFE0
3FFFE0
7FFFE0
7FFFE0
7FFFC0
FFB200
800000
ENDCHAR
STARTCHAR 013F
ENCODING 319
SWIDTH 514 0
DWIDTH 20 0
BBX 19 28 1 -1
BITMAP
000100
007FE0
00FFC0
00FFC0
00FF80
01FF80
01FF80
01FF00
03FF00
03FF00
03FE00
07FE40
07FEE0
07FDE0
0FFDE0
0FF8C0
1FF800
1FF800
1FF000
3FFFE0
3FFFE0
3FFFE0
3FFFE0
7FFFE0
7FFFE0
7FFFC0
FFB200
800000
ENDCHAR
STARTCHAR 0140
ENCODING 320
SWIDTH 514 0
DWIDTH 20 0
BBX 19 28 1 -1
BITMAP
000100
007FE0
00FFC0
00FFC0
00FF80
01FF80
01FF80
01FF00
03FF00
03FF00
03FE00
07FE40
07FEE0
07FDE0
0FFDE0
0FF8C0
1FF800
1FF800
1FF000
3FFFE0
3FFFE0
3FFFE0
3FFFE0
7FFFE0
7FFFE0
7FFFC0
FFB200
800000
ENDCHAR
STARTCHAR 0141
ENCODING 321
SWIDTH 540 0
DWIDTH 21 0
BBX 22 28 2 -1
BITMAP
000080
003FE0
007FC0
00FFC0
00FFC0
01FF98
01FFFC
01FFFC
01FFFC
03FFF8
03FFF0
03FFC0
07FF80
07FE00
0FFC00
1FFC00
7FF800
FFF800
FFF800
FFFFF0
FFFFE0
FFFFE0
3FFFE0
3FFFE0
7FFFE0
7FFFC0
7FB200
800000
ENDCHAR
STARTCHAR 0142
ENCODING 322
SWIDTH 540 0
DWIDTH 21 0
BBX 22 28 2 -1
BITMAP
000080
003FE0
007FC0
00FFC0
00FFC0
01FF98
01FFFC
01FFFC
01FFFC
03FFF8
03FFF0
03FFC0
07FF80
07FE00
0FFC00
1FFC00
7FF800
FFF800
FFF800
FFFFF0
FFFFE0
FFFFE0
3FFFE0
3FFFE0
7FFFE0
7FFFC0
7FB200
800000
ENDCHAR
STARTCHAR 0143
ENCODING 323
SWIDTH 565 0
DWIDTH 22 0
BBX 26 34 1 0
BITMAP
00000F80
00001F80
00001F00
00003E00
00007C00
0000F000
00000000
00000000
00780F80
01FE3FC0
01FE3F80
01FE3F80
03FE7F80
03FC7F00
07FC7F00
07FEFF00
07FEFE00
0FFEFE00
0FFEFE00
0FFEFC00
1FFFFC00
1FFFFC00
1FFFFC00
1FDFF800
3FDFF800
3FDFF800
3F9FF000
3F9FF000
7F9FF000
7F8FF000
7F0FE000
FF1FE000
FF1FE000
E0000000
ENDCHAR
STARTCHAR 0144
ENCODING 324
SWIDTH 565 0
DWIDTH 22 0
BBX 26 34 1 0
BITMAP
00000F80
00001F80
00001F00
00003E00
00007C00
0000F000
00000000
00000000
00780F80
01FE3FC0
01FE3F80
01FE3F80
03FE7F80
03FC7F00
07FC7F00
07FEFF00
07FEFE00
0FFEFE00
0FFEFE00
0FFEFC00
1FFFFC00
1FFFFC00
1FFFFC00
1FDFF800
3FDFF800
3FDFF800
3F9FF000
3F9FF000
7F9FF000
7F8FF000
7F0FE000
FF1FE000
FF1FE000
E0000000
ENDCHAR
STARTCHAR 0145
ENCODING 325
SWIDTH 565 0
DWIDTH 22 0
BBX 26 33 1 -7
BITMAP
00780F80
01FE3FC0
01FE3F80
01FE3F80
03FE7F80
03FC7F00
07FC7F00
07FEFF00
07FEFE00
0FFEFE00
0FFEFE00
0FFEFC00
1FFFFC00
1FFFFC00
1FFFFC00
1FDFF800
3FDFF800
3FDFF800
3F9FF000
3F9FF000
7F9FF000
7F8FF000
7F0FE000
FF1FE000
FF1FE000
E0000000
01800000
03E00000
07E00000
07C00000
0F800000
0F000000
02000000
ENDCHAR
STARTCHAR 0146
ENCODING 326
SWIDTH 565 0
DWIDTH 22 0
BBX 26 33 1 -7
BITMAP
00780F80
01FE3FC0
01FE3F80
01FE3F80
03FE7F80
03FC7F00
07FC7F00
07FEFF00
07FEFE00
0FFEFE00
0FFEFE00
0FFEFC00
1FFFFC00
1FFFFC00
1FFFFC00
1FDFF800
3FDFF800
3FDFF800
3F9FF000
3F9FF000
7F9FF000
7F8FF000
7F0FE000
FF1FE000
FF1FE000
E0000000
01800000
03E00000
07E00000
07C00000
0F800000
0F000000
02000000
ENDCHAR
STARTCHAR 0147
ENCODING 327
SWIDTH 565 0
DWIDTH 22 0
BBX 26 33 1 0
BITMAP
00078F00
0007DF00
0007FE00
0003FC00
0001F800
0000E000
00000000
00780F80
01FE3FC0
01FE3F80
01FE3F80
03FE7F80
03FC7F00
07FC7F00
07FEFF00
07FEFE00
0FFEFE00
0FFEFE00
0FFEFC00
1FFFFC00
1FFFFC00
1FFFFC00
1FDFF800
3FDFF800
3FDFF800
3F9FF000
3F9FF000
7F9FF000
7F8FF000
7F0FE000
FF1FE000
FF1FE000
E0000000
ENDCHAR
STARTCHAR 0148
ENCODING 328
SWIDTH 565 0
DWIDTH 22 0
BBX 26 33 1 0
BITMAP
00078F00
0007DF00
0007FE00
0003FC00
0001F800
0000E000
00000000
00780F80
01FE3FC0
01FE3F80
01FE3F80
03FE7F80
03FC7F00
07FC7F00
07FEFF00
07FEFE00
0FFEFE00
0FFEFE00
0FFEFC00
1FFFFC00
1FFFFC00
1FFFFC00
1FDFF800
3FDFF800
3FDFF800
3F9FF000
3F9FF000
7F9FF000
7F8FF000
7F0FE000
FF1FE000
FF1FE000
E0000000
ENDCHAR
STARTCHAR 0149
ENCODING 329
SWIDTH 617 0
DWIDTH 24 0
BBX 25 28 4 0
BITMAP
1F000000
1F000000
1F3C0700
3F7F1F80
3FFF3F80
3FFE3F80
3EFE3F00
7FFE3F00
7DFE7F00
7DFE7F00
FBFE7E00
7BFE7E00
73FEFE00
27FEFC00
07FEFC00
07FEFC00
07FFF800
0FEFF800
0FEFF800
0FEFF800
0FCFF000
1FCFF000
1FCFF000
1FCFF000
3F8FE000
3F8FE000
3F8FE000
38000000
ENDCHAR
STARTCHAR 014A
ENCODING 330
SWIDTH 540 0
DWIDTH 21 0
BBX 22 32 2 -5
BITMAP
07C780
0FDFE0
0FFFF0
0FFFF8
0FFFF8
1FFFFC
1FFFFC
1FFFFC
1FFFFC
1FC3FC
3F81FC
3F81FC
3F01FC
3F01FC
3F01F8
7E01F8
7E03F8
7E03F0
7E03F0
7E03F0
7C07F0
7C07E0
FC07E0
FC07C0
FC0FC0
F81FC0
007FC0
01FF80
01FF00
03FE00
03FC00
038000
ENDCHAR
STARTCHAR 014B
ENCODING 331
SWIDTH 540 0
DWIDTH 21 0
BBX 22 32 2 -5
BITMAP
07C780
0FDFE0
0FFFF0
0FFFF8
0FFFF8
1FFFFC
1FFFFC
1FFFFC
1FFFFC
1FC3FC
3F81FC
3F81FC
3F01FC
3F01FC
3F01F8
7E01F8
7E03F8
7E03F0
7E03F0
7E03F0
7C07F0
7C07E0
FC07E0
FC07C0
FC0FC0
F81FC0
007FC0
01FF80
01FF00
03FE00
03FC00
038000
ENDCHAR
STARTCHAR 014C
ENCODING 332
SWIDTH 514 0
DWIDTH 20 0
BBX 20 31 3 0
BITMAP
07FF80
07FF80
07FF00
000000
007800
00FC00
01FF00
03FF80
07FFC0
07FFC0
0FFFE0
1FFFE0
1FFFF0
3FFFF0
3F8FF0
7F87F0
7F07F0
FF07F0
FF0FF0
FF0FF0
FF9FE0
FFFFE0
FFFFE0
FFFFC0
FFFFC0
FFFF80
7FFF80
7FFF00
3FFE00
1FFC00
07F000
ENDCHAR
STARTCHAR 014D
ENCODING 333
SWIDTH 514 0
DWIDTH 20 0
BBX 20 31 3 0
BITMAP
07FF80
07FF80
07FF00
000000
007800
00FC00
01FF00
03FF80
07FFC0
07FFC0
0FFFE0
1FFFE0
1FFFF0
3FFFF0
3F8FF0
7F87F0
7F07F0
FF07F0
FF0FF0
FF0FF0
FF9FE0
FFFFE0
FFFFE0
FFFFC0
FFFFC0
FFFF80
7FFF80
7FFF00
3FFE00
1FFC00
07F000
ENDCHAR
STARTCHAR 014E
ENCODING 334
SWIDTH 514 0
DWIDTH 20 0
BBX 20 34 3 0
BITMAP
0383C0
038780
03FF80
03FF00
01FE00
00FC00
000000
007800
00FC00
01FF00
03FF80
07FFC0
07FFC0
0FFFE0
1FFFE0
1FFFF0
3FFFF0
3F8FF0
7F87F0
7F07F0
FF07F0
FF0FF0
FF0FF0
FF9FE0
FFFFE0
FFFFE0
FFFFC0
FFFFC0
FFFF80
7FFF80
7FFF00
3FFE00
1FFC00
07F000
ENDCHAR
STARTCHAR 014F
ENCODING 335
SWIDTH 514 0
DWIDTH 20 0
BBX 20 34 3 0
BITMAP
0383C0
038780
03FF80
03FF00
01FE00
00FC00
000000
007800
00FC00
01FF00
03FF80
07FFC0
07FFC0
0FFFE0
1FFFE0
1FFFF0
3FFFF0
3F8FF0
7F87F0
7F07F0
FF07F0
FF0FF0
FF0FF0
FF9FE0
FFFFE0
FFFFE0
FFFFC0
FFFFC0
FFFF80
7FFF80
7FFF00
3FFE00
1FFC00
07F000
ENDCHAR
STARTCHAR 0150
ENCODING 336
SWIDTH 514 0
DWIDTH 20 0
BBX 21 34 3 0
BITMAP
007CF8
007DF8
00F9F0
01F3E0
03E7C0
03CF00
000000
007800
00FC00
01FF00
03FF80
07FFC0
07FFC0
0FFFE0
1FFFE0
1FFFF0
3FFFF0
3F8FF0
7F87F0
7F07F0
FF07F0
FF0FF0
FF0FF0
FF9FE0
FFFFE0
FFFFE0
FFFFC0
FFFFC0
FFFF80
7FFF80
7FFF00
3FFE00
1FFC00
07F000
ENDCHAR
STARTCHAR 0151
ENCODING 337
SWIDTH 514 0
DWIDTH 20 0
BBX 21 34 3 0
BITMAP
007CF8
007DF8
00F9F0
01F3E0
03E7C0
03CF00
000000
007800
00FC00
01FF00
03FF80
07FFC0
07FFC0
0FFFE0
1FFFE0
1FFFF0
3FFFF0
3F8FF0
7F87F0
7F07F0
FF07F0
FF0FF0
FF0FF0
FF9FE0
FFFFE0
FFFFE0
FFFFC0
FFFFC0
FFFF80
7FFF80
7FFF00
3FFE00
1FFC00
07F000
ENDCHAR
STARTCHAR 0152
ENCODING 338
SWIDTH 720 0
DWIDTH 28 0
BBX 27 28 3 -1
BITMAP
0003FF80
000FFFE0
003FFFC0
00FFFFC0
01FFFF80
03FFFF80
07FFFF80
0FFFFF00
1FFFF000
1FFFE000
3FCFE000
3F87EF00
7F07FE00
7F07FE00
FF07FE00
FF0FE000
FF1FE000
FFFFFFC0
FFFFFFC0
FFFFFFC0
FFFFFFC0
FFFFFFC0
FFFFFFC0
FFFFFFC0
FFFFFF80
7FFFF800
3FEF0000
07000000
ENDCHAR
STARTCHAR 0153
ENCODING 339
SWIDTH 720 0
DWIDTH 28 0
BBX 27 28 3 -1
BITMAP
0003FF80
000FFFE0
003FFFC0
00FFFFC0
01FFFF80
03FFFF80
07FFFF80
0FFFFF00
1FFFF000
1FFFE000
3FCFE000
3F87EF00
7F07FE00
7F07FE00
FF07FE00
FF0FE000
FF1FE000
FFFFFFC0
FFFFFFC0
FFFFFFC0
FFFFFFC0
FFFFFFC0
FFFFFFC0
FFFFFFC0
FFFFFF80
7FFFF800
3FEF0000
07000000
ENDCHAR
STARTCHAR 0154
ENCODING 340
SWIDTH 565 0
DWIDTH 22 0
BBX 20 35 3 -1
BITMAP
001F00
001F00
003E00
007C00
00F800
00F000
000000
003C00
03FF00
1FFFC0
1FFFE0
3FFFF0
3FE1F0
3FE0F0
3FE0F0
3FE1F0
3FE1F0
3FE3E0
3FEFE0
7FFFC0
7FFF80
7FFE00
7FFE00
7FFF00
7FFF00
FFDF80
FFDF80
FFDF80
FF8FC0
FF8FC0
FF8FE0
FF8FE0
FF87E0
FF87C0
780000
ENDCHAR
STARTCHAR 0155
ENCODING 341
SWIDTH 565 0
DWIDTH 22 0
BBX 20 35 3 -1
BITMAP
001F00
001F00
003E00
007C00
00F800
00F000
000000
003C00
03FF00
1FFFC0
1FFFE0
3FFFF0
3FE1F0
3FE0F0
3FE0F0
3FE1F0
3FE1F0
3FE3E0
3FEFE0
7FFFC0
7FFF80
7FFE00
7FFE00
7FFF00
7FFF00
FFDF80
FFDF80
FFDF80
FF8FC0
FF8FC0
FF8FE0
FF8FE0
FF87E0
FF87C0
780000
ENDCHAR
STARTCHAR 0156
ENCODING 342
SWIDTH 565 0
DWIDTH 22 0
BBX 20 34 3 -7
BITMAP
003C00
03FF00
1FFFC0
1FFFE0
3FFFF0
3FE1F0
3FE0F0
3FE0F0
3FE1F0
3FE1F0
3FE3E0
3FEFE0
7FFFC0
7FFF80
7FFE00
7FFE00
7FFF00
7FFF00
FFDF80
FFDF80
FFDF80
FF8FC0
FF8FC0
FF8FE0
FF8FE0
FF87E0
FF87C0
78C000
01F000
01F000
03F000
03E000
03C000
010000
ENDCHAR
STARTCHAR 0157
ENCODING 343
SWIDTH 565 0
DWIDTH 22 0
BBX 20 34 3 -7
BITMAP
003C00
03FF00
1FFFC0
1FFFE0
3FFFF0
3FE1F0
3FE0F0
3FE0F0
3FE1F0
3FE1F0
3FE3E0
3FEFE0
7FFFC0
7FFF80
7FFE00
7FFE00
7FFF00
7FFF00
FFDF80
FFDF80
FFDF80
FF8FC0
FF8FC0
FF8FE0
FF8FE0
FF87E0
FF87C0
78C000
01F000
01F000
03F000
03E000
03C000
010000
ENDCHAR
STARTCHAR 0158
ENCODING 344
SWIDTH 565 0
DWIDTH 22 0
BBX 20 35 3 -1
BITMAP
000700
071F00
0FFE00
07FC00
03F800
01F000
004000
003C00
03FF00
1FFFC0
1FFFE0
3FFFF0
3FE1F0
3FE0F0
3FE0F0
3FE1F0
3FE1F0
3FE3E0
3FEFE0
7FFFC0
7FFF80
7FFE00
7FFE00
7FFF00
7FFF00
FFDF80
FFDF80
FFDF80
FF8FC0
FF8FC0
FF8FE0
FF8FE0
FF87E0
FF87C0
780000
ENDCHAR
STARTCHAR 0159
ENCODING 345
SWIDTH 565 0
DWIDTH 22 0
BBX 20 35 3 -1
BITMAP
000700
071F00
0FFE00
07FC00
03F800
01F000
004000
003C00
03FF00
1FFFC0
1FFFE0
3FFFF0
3FE1F0
3FE0F0
3FE0F0
3FE1F0
3FE1F0
3FE3E0
3FEFE0
7FFFC0
7FFF80
7FFE00
7FFE00
7FFF00
7FFF00
FFDF80
FFDF80
FFDF80
FF8FC0
FF8FC0
FF8FE0
FF8FE0
FF87E0
FF87C0
780000
ENDCHAR
STARTCHAR 015A
ENCODING 346
SWIDTH 488 0
DWIDTH 19 0
BBX 23 34 1 0
BITMAP
00003E
00007E
0000FC
0000F0
0001E0
0003C0
000000
0007F0
003FFE
00FFFE
00FFFC
01FFF8
03FFF8
03FFF0
07FFE0
07FFE0
07FFC0
0FE0C0
07E000
07FC00
07FF00
07FFC0
01FFC0
003FE0
000FE0
000FE0
301FE0
7FFFE0
7FFFC0
7FFFC0
FFFF80
7FFF00
3FFC00
0FF000
ENDCHAR
STARTCHAR 015B
ENCODING 347
SWIDTH 488 0
DWIDTH 19 0
BBX 23 34 1 0
BITMAP
00003E
00007E
0000FC
0000F0
0001E0
0003C0
000000
0007F0
003FFE
00FFFE
00FFFC
01FFF8
03FFF8
03FFF0
07FFE0
07FFE0
07FFC0
0FE0C0
07E000
07FC00
07FF00
07FFC0
01FFC0
003FE0
000FE0
000FE0
301FE0
7FFFE0
7FFFC0
7FFFC0
FFFF80
7FFF00
3FFC00
0FF000
ENDCHAR
STARTCHAR 015C
ENCODING 348
SWIDTH 488 0
DWIDTH 19 0
BBX 23 34 1 0
BITMAP
000040
0001E0
0007F0
000FF8
001F7C
003E3C
000000
0007F0
003FFE
00FFFE
00FFFC
01FFF8
03FFF8
03FFF0
07FFE0
07FFE0
07FFC0
0FE0C0
07E000
07FC00
07FF00
07FFC0
01FFC0
003FE0
000FE0
000FE0
301FE0
7FFFE0
7FFFC0
7FFFC0
FFFF80
7FFF00
3FFC00
0FF000
ENDCHAR
STARTCHAR 015D
ENCODING 349
SWIDTH 488 0
DWIDTH 19 0
BBX 23 34 1 0
BITMAP
000040
0001E0
0007F0
000FF8
001F7C
003E3C
000000
0007F0
003FFE
00FFFE
00FFFC
01FFF8
03FFF8
03FFF0
07FFE0
07FFE0
07FFC0
0FE0C0
07E000
07FC00
07FF00
07FFC0
01FFC0
003FE0
000FE0
000FE0
301FE0
7FFFE0
7FFFC0
7FFFC0
FFFF80
7FFF00
3FFC00
0FF000
ENDCHAR
STARTCHAR 015E
ENCODING 350
SWIDTH 488 0
DWIDTH 19 0
BBX 23 34 1 -7
BITMAP
0007F0
003FFE
00FFFE
00FFFC
01FFF8
03FFF8
03FFF0
07FFE0
07FFE0
07FFC0
0FE0C0
07E000
07FC00
07FF00
07FFC0
01FFC0
003FE0
000FE0
000FE0
301FE0
7FFFE0
7FFFC0
7FFFC0
FFFF80
7FFF00
3FFC00
0FF000
03C000
03E000
00F000
38F800
3FF000
3FE000
020000
ENDCHAR
STARTCHAR 015F
ENCODING 351
SWIDTH 488 0
DWIDTH 19 0
BBX 23 34 1 -7
BITMAP
0007F0
003FFE
00FFFE
00FFFC
01FFF8
03FFF8
03FFF0
07FFE0
07FFE0
07FFC0
0FE0C0
07E000
07FC00
07FF00
07FFC0
01FFC0
003FE0
000FE0
000FE0
301FE0
7FFFE0
7FFFC0
7FFFC0
FFFF80
7FFF00
3FFC00
0FF000
03C000
03E000
00F000
38F800
3FF000
3FE000
020000
ENDCHAR
STARTCHAR 0160
ENCODING 352
SWIDTH 488 0
DWIDTH 19 0
BBX 23 34 1 0
BITMAP
000400
001E3E
001FFC
000FF8
0007F0
0003C0
000000
0007F0
003FFE
00FFFE
00FFFC
01FFF8
03FFF8
03FFF0
07FFE0
07FFE0
07FFC0
0FE0C0
07E000
07FC00
07FF00
07FFC0
01FFC0
003FE0
000FE0
000FE0
301FE0
7FFFE0
7FFFC0
7FFFC0
FFFF80
7FFF00
3FFC00
0FF000
ENDCHAR
STARTCHAR 0161
ENCODING 353
SWIDTH 488 0
DWIDTH 19 0
BBX 23 34 1 0
BITMAP
000400
001E3E
001FFC
000FF8
0007F0
0003C0
000000
0007F0
003FFE
00FFFE
00FFFC
01FFF8
03FFF8
03FFF0
07FFE0
07FFE0
07FFC0
0FE0C0
07E000
07FC00
07FF00
07FFC0
01FFC0
003FE0
000FE0
000FE0
301FE0
7FFFE0
7FFFC0
7FFFC0
FFFF80
7FFF00
3FFC00
0FF000
ENDCHAR
STARTCHAR 0162
ENCODING 354
SWIDTH 565 0
DWIDTH 22 0
BBX 21 33 5 -7
BITMAP
3FFFF0
7FFFF8
7FFFF8
7FFFF8
FFFFF8
FFFFF8
FFFFF8
FFFF00
E0FC00
01F800
01F800
01F800
03F000
03F000
03F000
03F000
03E000
07E000
07E000
07E000
07C000
0FC000
0FC000
0FC000
0FC000
0F8000
078000
07C000
03E000
61E000
7FE000
7FC000
040000
ENDCHAR
STARTCHAR 0163
ENCODING 355
SWIDTH 565 0
DWIDTH 22 0
BBX 21 33 5 -7
BITMAP
3FFFF0
7FFFF8
7FFFF8
7FFFF8
FFFFF8
FFFFF8
FFFFF8
FFFF00
E0FC00
01F800
01F800
01F800
03F000
03F000
03F000
03F000
03E000
07E000
07E000
07E000
07C000
0FC000
0FC000
0FC000
0FC000
0F8000
078000
07C000
03E000
61E000
7FE000
7FC000
040000
ENDCHAR
STARTCHAR 0164
ENCODING 356
SWIDTH 565 0
DWIDTH 22 0
BBX 21 34 5 0
BITMAP
000080
00F1E0
00FBE0
00FFC0
007F00
003E00
000000
000000
3FFFF0
7FFFF8
7FFFF8
7FFFF8
FFFFF8
FFFFF8
FFFFF8
FFFF00
E0FC00
01F800
01F800
01F800
03F000
03F000
03F000
03F000
03E000
07E000
07E000
07E000
07C000
0FC000
0FC000
0FC000
0FC000
0F8000
ENDCHAR
STARTCHAR 0165
ENCODING 357
SWIDTH 565 0
DWIDTH 22 0
BBX 21 34 5 0
BITMAP
000080
00F1E0
00FBE0
00FFC0
007F00
003E00
000000
000000
3FFFF0
7FFFF8
7FFFF8
7FFFF8
FFFFF8
FFFFF8
FFFFF8
FFFF00
E0FC00
01F800
01F800
01F800
03F000
03F000
03F000
03F000
03E000
07E000
07E000
07E000
07C000
0FC000
0FC000
0FC000
0FC000
0F8000
ENDCHAR
STARTCHAR 0166
ENCODING 358
SWIDTH 565 0
DWIDTH 22 0
BBX 21 26 5 0
BITMAP
3FFFF0
7FFFF8
7FFFF8
7FFFF8
FFFFF8
FFFFF8
FFFFF8
FFFF00
E0FC00
01F800
01F800
01FB80
7FFFC0
7FFF80
7FFF80
7FFF80
7FFF00
07E000
07E000
07E000
07C000
0FC000
0FC000
0FC000
0FC000
0F8000
ENDCHAR
STARTCHAR 0167
ENCODING 359
SWIDTH 565 0
DWIDTH 22 0
BBX 21 26 5 0
BITMAP
3FFFF0
7FFFF8
7FFFF8
7FFFF8
FFFFF8
FFFFF8
FFFFF8
FFFF00
E0FC00
01F800
01F800
01FB80
7FFFC0
7FFF80
7FFF80
7FFF80
7FFF00
07E000
07E000
07E000
07C000
0FC000
0FC000
0FC000
0FC000
0F8000
ENDCHAR
STARTCHAR 0168
ENCODING 360
SWIDTH 540 0
DWIDTH 21 0
BBX 23 32 3 1
BITMAP
000F3C
001FFC
003FFC
003FF8
0039F0
000000
030000
07E07E
07E0FE
0FC07E
0FC07C
0FC0FC
1FC0FC
1F80FC
3F81FC
3F01F8
3F01F8
7F03F8
7F03F8
FF07F8
FF87F0
FFCFF0
FFFFE0
FFFFE0
FFFFC0
FFFFC0
FFFF80
7FFF00
7FFE00
7FFC00
3FF800
0FF000
ENDCHAR
STARTCHAR 0169
ENCODING 361
SWIDTH 540 0
DWIDTH 21 0
BBX 23 32 3 1
BITMAP
000F3C
001FFC
003FFC
003FF8
0039F0
000000
030000
07E07E
07E0FE
0FC07E
0FC07C
0FC0FC
1FC0FC
1F80FC
3F81FC
3F01F8
3F01F8
7F03F8
7F03F8
FF07F8
FF87F0
FFCFF0
FFFFE0
FFFFE0
FFFFC0
FFFFC0
FFFF80
7FFF00
7FFE00
7FFC00
3FF800
0FF000
ENDCHAR
STARTCHAR 016A
ENCODING 362
SWIDTH 540 0
DWIDTH 21 0
BBX 23 30 3 1
BITMAP
003FF8
003FF8
007FF8
000000
030000
07E07E
07E0FE
0FC07E
0FC07C
0FC0FC
1FC0FC
1F80FC
3F81FC
3F01F8
3F01F8
7F03F8
7F03F8
FF07F8
FF87F0
FFCFF0
FFFFE0
FFFFE0
FFFFC0
FFFFC0
FFFF80
7FFF00
7FFE00
7FFC00
3FF800
0FF000
ENDCHAR
STARTCHAR 016B
ENCODING 363
SWIDTH 540 0
DWIDTH 21 0
BBX 23 30 3 1
BITMAP
003FF8
003FF8
007FF8
000000
030000
07E07E
07E0FE
0FC07E
0FC07C
0FC0FC
1FC0FC
1F80FC
3F81FC
3F01F8
3F01F8
7F03F8
7F03F8
FF07F8
FF87F0
FFCFF0
FFFFE0
FFFFE0
FFFFC0
FFFFC0
FFFF80
7FFF00
7FFE00
7FFC00
3FF800
0FF000
ENDCHAR
STARTCHAR 016C
ENCODING 364
SWIDTH 540 0
DWIDTH 21 0
BBX 23 32 3 1
BITMAP
001C1C
001E3C
001FF8
000FF0
0007E0
000000
030000
07E07E
07E0FE
0FC07E
0FC07C
0FC0FC
1FC0FC
1F80FC
3F81FC
3F01F8
3F01F8
7F03F8
7F03F8
FF07F8
FF87F0
FFCFF0
FFFFE0
FFFFE0
FFFFC0
FFFFC0
FFFF80
7FFF00
7FFE00
7FFC00
3FF800
0FF000
ENDCHAR
STARTCHAR 016D
ENCODING 365
SWIDTH 540 0
DWIDTH 21 0
BBX 23 32 3 1
BITMAP
001C1C
001E3C
001FF8
000FF0
0007E0
000000
030000
07E07E
07E0FE
0FC07E
0FC07C
0FC0FC
1FC0FC
1F80FC
3F81FC
3F01F8
3F01F8
7F03F8
7F03F8
FF07F8
FF87F0
FFCFF0
FFFFE0
FFFFE0
FFFFC0
FFFFC0
FFFF80
7FFF00
7FFE00
7FFC00
3FF800
0FF000
ENDCHAR
STARTCHAR 016E
ENCODING 366
SWIDTH 540 0
DWIDTH 21 0
BBX 23 34 3 1
BITMAP
0007F0
000FF8
001E78
003C78
003878
003C78
003FF0
001FE0
030700
07E07E
07E0FE
0FC07E
0FC07C
0FC0FC
1FC0FC
1F80FC
3F81FC
3F01F8
3F01F8
7F03F8
7F03F8
FF07F8
FF87F0
FFCFF0
FFFFE0
FFFFE0
FFFFC0
FFFFC0
FFFF80
7FFF00
7FFE00
7FFC00
3FF800
0FF000
ENDCHAR
STARTCHAR 016F
ENCODING 367
SWIDTH 540 0
DWIDTH 21 0
BBX 23 34 3 1
BITMAP
0007F0
000FF8
001E78
003C78
003878
003C78
003FF0
001FE0
030700
07E07E
07E0FE
0FC07E
0FC07C
0FC0FC
1FC0FC
1F80FC
3F81FC
3F01F8
3F01F8
7F03F8
7F03F8
FF07F8
FF87F0
FFCFF0
FFFFE0
FFFFE0
FFFFC0
FFFFC0
FFFF80
7FFF00
7FFE00
7FFC00
3FF800
0FF000
ENDCHAR
STARTCHAR 0170
ENCODING 368
SWIDTH 540 0
DWIDTH 21 0
BBX 25 33 3 1
BITMAP
0003CF80
0007CF80
000F9F00
001F3E00
001E7C00
003C7800
00000000
03000000
07E07E00
07E0FE00
0FC07E00
0FC07C00
0FC0FC00
1FC0FC00
1F80FC00
3F81FC00
3F01F800
3F01F800
7F03F800
7F03F800
FF07F800
FF87F000
FFCFF000
FFFFE000
FFFFE000
FFFFC000
FFFFC000
FFFF8000
7FFF0000
7FFE0000
7FFC0000
3FF80000
0FF00000
ENDCHAR
STARTCHAR 0171
ENCODING 369
SWIDTH 540 0
DWIDTH 21 0
BBX 25 33 3 1
BITMAP
0003CF80
0007CF80
000F9F00
001F3E00
001E7C00
003C7800
00000000
03000000
07E07E00
07E0FE00
0FC07E00
0FC07C00
0FC0FC00
1FC0FC00
1F80FC00
3F81FC00
3F01F800
3F01F800
7F03F800
7F03F800
FF07F800
FF87F000
FFCFF000
FFFFE000
FFFFE000
FFFFC000
FFFFC000
FFFF8000
7FFF0000
7FFE0000
7FFC0000
3FF80000
0FF00000
ENDCHAR
STARTCHAR 0172
ENCODING 370
SWIDTH 540 0
DWIDTH 21 0
BBX 23 33 3 -6
BITMAP
030000
07E07E
07E0FE
0FC07E
0FC07C
0FC0FC
1FC0FC
1F80FC
3F81FC
3F01F8
3F01F8
7F03F8
7F03F8
FF07F8
FF87F0
FFCFF0
FFFFE0
FFFFE0
FFFFC0
FFFFC0
FFFF80
7FFF00
7FFE00
7FFC00
3FF800
0FF000
070000
0E0000
1E0000
1E0000
3FF800
3FF000
1FF000
ENDCHAR
STARTCHAR 0173
ENCODING 371
SWIDTH 540 0
DWIDTH 21 0
BBX 23 33 3 -6
BITMAP
030000
07E07E
07E0FE
0FC07E
0FC07C
0FC0FC
1FC0FC
1F80FC
3F81FC
3F01F8
3F01F8
7F03F8
7F03F8
FF07F8
FF87F0
FFCFF0
FFFFE0
FFFFE0
FFFFC0
FFFFC0
FFFF80
7FFF00
7FFE00
7FFC00
3FF800
0FF000
070000
0E0000
1E0000
1E0000
3FF800
3FF000
1FF000
ENDCHAR
STARTCHAR 0174
ENCODING 372
SWIDTH 720 0
DWIDTH 28 0
BBX 28 34 5 0
BITMAP
00018000
0007E000
000FF000
001FF800
003EF800
007C7000
00200000
00000200
3F0003F0
7F0707F0
7F070FE0
FF870FC0
FF871FC0
FF8F1F80
7F8F3F80
7F8F3F80
7FDFFF80
7FDFFF00
7FFFFF00
7FFFFE00
3FFFFE00
3FFFFC00
3FFFFC00
1FF7FC00
1FF7F800
1FE7F800
1FE7F800
0FC7F000
0FC7F000
0F87F000
0783E000
0703E000
07030000
02000000
ENDCHAR
STARTCHAR 0175
ENCODING 373
SWIDTH 720 0
DWIDTH 28 0
BBX 28 34 5 0
BITMAP
00018000
0007E000
000FF000
001FF800
003EF800
007C7000
00200000
00000200
3F0003F0
7F0707F0
7F070FE0
FF870FC0
FF871FC0
FF8F1F80
7F8F3F80
7F8F3F80
7FDFFF80
7FDFFF00
7FFFFF00
7FFFFE00
3FFFFE00
3FFFFC00
3FFFFC00
1FF7FC00
1FF7F800
1FE7F800
1FE7F800
0FC7F000
0FC7F000
0F87F000
0783E000
0703E000
07030000
02000000
ENDCHAR
STARTCHAR 0176
ENCODING 374
SWIDTH 591 0
DWIDTH 23 0
BBX 23 34 6 0
BITMAP
001C00
003E00
00FF80
01FFC0
03E7C0
03C380
000000
000026
0400FC
7E00FC
FE01F8
FE03F0
FF07F0
FF07E0
7F0FC0
7F1FC0
7F3F80
3FBF00
3FFF00
3FFE00
3FFC00
1FFC00
1FF800
1FF000
0FF000
0FE000
0FC000
0FC000
0FC000
0FC000
0FC000
1FC000
1FC000
1F0000
ENDCHAR
STARTCHAR 0177
ENCODING 375
SWIDTH 591 0
DWIDTH 23 0
BBX 23 34 6 0
BITMAP
001C00
003E00
00FF80
01FFC0
03E7C0
03C380
000000
000026
0400FC
7E00FC
FE01F8
FE03F0
FF07F0
FF07E0
7F0FC0
7F1FC0
7F3F80
3FBF00
3FFF00
3FFE00
3FFC00
1FFC00
1FF800
1FF000
0FF000
0FE000
0FC000
0FC000
0FC000
0FC000
0FC000
1FC000
1FC000
1F0000
ENDCHAR
STARTCHAR 0178
ENCODING 376
SWIDTH 591 0
DWIDTH 23 0
BBX 23 32 6 0
BITMAP
000100
00E3C0
01E3C0
01E780
00C100
000026
0400FC
7E00FC
FE01F8
FE03F0
FF07F0
FF07E0
7F0FC0
7F1FC0
7F3F80
3FBF00
3FFF00
3FFE00
3FFC00
1FFC00
1FF800
1FF000
0FF000
0FE000
0FC000
0FC000
0FC000
0FC000
0FC000
1FC000
1FC000
1F0000
ENDCHAR
STARTCHAR 0179
ENCODING 377
SWIDTH 591 0
DWIDTH 23 0
BBX 20 34 5 0
BITMAP
0007C0
0007C0
000F80
001F00
003E00
003C00
000000
003F00
07FFF0
1FFFE0
3FFFC0
7FFF80
FFFF00
FFFF00
E07E00
00FC00
00FC00
01F800
01F000
03F000
07E000
07E000
0FE000
0FC000
1FC000
1F8000
3F0000
3FFFE0
7FFFE0
FFFFE0
FFFFC0
FFFF80
07FE00
007000
ENDCHAR
STARTCHAR 017A
ENCODING 378
SWIDTH 591 0
DWIDTH 23 0
BBX 20 34 5 0
BITMAP
0007C0
0007C0
000F80
001F00
003E00
003C00
000000
003F00
07FFF0
1FFFE0
3FFFC0
7FFF80
FFFF00
FFFF00
E07E00
00FC00
00FC00
01F800
01F000
03F000
07E000
07E000
0FE000
0FC000
1FC000
1F8000
3F0000
3FFFE0
7FFFE0
FFFFE0
FFFFC0
FFFF80
07FE00
007000
ENDCHAR
STARTCHAR 017B
ENCODING 379
SWIDTH 591 0
DWIDTH 23 0
BBX 20 32 5 0
BITMAP
001000
003C00
007800
007800
003000
003F00
07FFF0
1FFFE0
3FFFC0
7FFF80
FFFF00
FFFF00
E07E00
00FC00
00FC00
01F800
01F000
03F000
07E000
07E000
0FE000
0FC000
1FC000
1F8000
3F0000
3FFFE0
7FFFE0
FFFFE0
FFFFC0
FFFF80
07FE00
007000
ENDCHAR
STARTCHAR 017C
ENCODING 380
SWIDTH 591 0
DWIDTH 23 0
BBX 20 32 5 0
BITMAP
001000
003C00
007800
007800
003000
003F00
07FFF0
1FFFE0
3FFFC0
7FFF80
FFFF00
FFFF00
E07E00
00FC00
00FC00
01F800
01F000
03F000
07E000
07E000
0FE000
0FC000
1FC000
1F8000
3F0000
3FFFE0
7FFFE0
FFFFE0
FFFFC0
FFFF80
07FE00
007000
ENDCHAR
STARTCHAR 017D
ENCODING 381
SWIDTH 591 0
DWIDTH 23 0
BBX 20 34 5 0
BITMAP
004000
01E3C0
01FFC0
01FF80
00FE00
007C00
000000
003F00
07FFF0
1FFFE0
3FFFC0
7FFF80
FFFF00
FFFF00
E07E00
00FC00
00FC00
01F800
01F000
03F000
07E000
07E000
0FE000
0FC000
1FC000
1F8000
3F0000
3FFFE0
7FFFE0
FFFFE0
FFFFC0
FFFF80
07FE00
007000
ENDCHAR
STARTCHAR 017E
ENCODING 382
SWIDTH 591 0
DWIDTH 23 0
BBX 20 34 5 0
BITMAP
004000
01E3C0
01FFC0
01FF80
00FE00
007C00
000000
003F00
07FFF0
1FFFE0
3FFFC0
7FFF80
FFFF00
FFFF00
E07E00
00FC00
00FC00
01F800
01F000
03F000
07E000
07E000
0FE000
0FC000
1FC000
1F8000
3F0000
3FFFE0
7FFFE0
FFFFE0
FFFFC0
FFFF80
07FE00
007000
ENDCHAR
STARTCHAR 017F
ENCODING 383
SWIDTH 437 0
DWIDTH 17 0
BBX 20 33 1 -6
BITMAP
003F80
007FE0
01FFF0
03FFF0
07FFF0
07F1F0
0FE1C0
0FC000
0FC000
1FC000
1FC000
1F8000
1F8000
1F8000
1F8000
1F8000
1F8000
1F8000
3F8000
3F0000
3F0000
3F0000
3F0000
3F0000
7E0000
7E0000
7E0000
7E0000
7E0000
7E0000
FC0000
7C0000
400000
ENDCHAR
STARTCHAR 0180
ENCODING 384
SWIDTH 514 0
DWIDTH 20 0
BBX 19 27 2 0
BITMAP
01E800
07FF80
0FFFC0
0FFFC0
0FFFC0
1FFFE0
1FCFE0
0FC7E0
0FC7C0
0FC7C0
1FCF80
1FDF80
1FFE00
1FFF00
1FFFC0
1FFFE0
1FC7E0
1FF7E0
FFF7E0
FFF7E0
FFEFE0
FFFFC0
3FFFC0
3FFF00
3FFE00
3FF800
1E0000
ENDCHAR
STARTCHAR 0181
ENCODING 385
SWIDTH 668 0
DWIDTH 26 0
BBX 24 27 4 0
BITMAP
001E80
03FFF8
0FFFFC
1FFFFC
1FFFFC
3FFFFE
7FFEFE
7EFC7E
78FC3C
F8FC7C
F9FC78
F9FDF8
FDFFE0
7DFFF8
7DFFFC
7DFFFE
7DFC7E
01FC7E
01FC7F
03FCFE
03FDFE
03FFFC
03FFFC
03FFF0
03FFE0
03FF80
01E000
ENDCHAR
STARTCHAR 0186
ENCODING 390
SWIDTH 488 0
DWIDTH 19 0
BBX 20 26 2 0
BITMAP
01FE00
07FF80
0FFFC0
1FFFE0
1FFFF0
1FFFF0
1FFFF0
003FF0
001FF0
000FF0
000FF0
000FF0
000FE0
001FE0
3C7FE0
7FFFE0
7FFFC0
7FFFC0
7FFF80
7FFF80
FFFF00
FFFE00
7FFE00
3FFC00
1FE000
040000
ENDCHAR
STARTCHAR 0187
ENCODING 391
SWIDTH 488 0
DWIDTH 19 0
BBX 22 33 3 0
BITMAP
0000FC
0001FC
0007FC
000FFC
000FF8
001FE0
001FC0
003FC0
00FFE0
03FFF0
07FFF0
0FFFF0
1FFFF0
3FFFE0
3FF000
7FC000
7F8000
7F8000
7F0000
7F0000
FF8000
FFC380
FFFF80
FFFF80
FFFF80
FFFF80
FFFF00
7FFF00
7FFF00
7FFC00
7FFC00
0FF000
008000
ENDCHAR
STARTCHAR 0188
ENCODING 392
SWIDTH 488 0
DWIDTH 19 0
BBX 22 33 3 0
BITMAP
0000FC
0001FC
0007FC
000FFC
000FF8
001FE0
001FC0
003FC0
00FFE0
03FFF0
07FFF0
0FFFF0
1FFFF0
3FFFE0
3FF000
7FC000
7F8000
7F8000
7F0000
7F0000
FF8000
FFC380
FFFF80
FFFF80
FFFF80
FFFF80
FFFF00
7FFF00
7FFF00
7FFC00
7FFC00
0FF000
008000
ENDCHAR
STARTCHAR 0189
ENCODING 393
SWIDTH 488 0
DWIDTH 19 0
BBX 19 27 3 0
BITMAP
018000
07F800
0FFF00
0FFF80
0FFF80
1FFFC0
1FFFC0
1FFFE0
1FC7E0
1FF3E0
7FF3E0
FFF3E0
FFF7E0
FFF7C0
FF8FC0
FF9F80
3FFF00
3FFF00
3FFE00
3FFC00
3FF800
3FF000
3FE000
3FC000
3F0000
3C0000
300000
ENDCHAR
STARTCHAR 018A
ENCODING 394
SWIDTH 617 0
DWIDTH 24 0
BBX 24 27 4 0
BITMAP
001800
03FFC0
0FFFF0
1FFFF8
1FFFFC
3FFFFC
7FFFFE
7EFFFE
79FE3E
F9FC1F
F9FC1F
F9FC3E
FDFC3E
7DFC7E
7DFCFC
7DFDF8
7DFFF8
01FFF0
01FFE0
01FFE0
01FFC0
01FF80
01FF00
01FE00
01F800
01E000
010000
ENDCHAR
STARTCHAR 018F
ENCODING 399
SWIDTH 488 0
DWIDTH 19 0
BBX 18 27 3 0
BITMAP
006400
03FE00
0FFF00
1FFF80
1FFF80
1FFFC0
1E3FC0
000FC0
0007C0
0007C0
0007C0
7FFFC0
7FFFC0
7FFFC0
7FFFC0
7FDFC0
FE1F80
FE1F80
FE7F80
FFFF80
FFFF80
FFFF00
FFFF00
7FFE00
3FFC00
1FF000
006000
ENDCHAR
STARTCHAR 0190
ENCODING 400
SWIDTH 488 0
DWIDTH 19 0
BBX 19 27 3 0
BITMAP
00FE00
03FF80
07FFC0
0FFFE0
1FFFE0
1FE040
3FC000
3F8000
3F8000
3F0000
3F8000
3FFE00
1FFE00
1FFE00
1FFE00
3FF000
3F8000
7F0000
7E0000
7E0000
FF0780
FFFF80
FFFF00
7FFF00
7FFE00
3FFC00
0FE000
ENDCHAR
STARTCHAR 0191
ENCODING 401
SWIDTH 488 0
DWIDTH 19 0
BBX 27 32 -3 -5
BITMAP
0003FFE0
003FFFE0
007FFFE0
007FFFE0
00FFFFE0
00FFFFE0
00FF0000
00FE0000
00FE0000
01FC0000
01FFE000
01FFC000
01FFC000
01FFC000
03FFC000
03FC8000
03F80000
03F80000
07F00000
07F00000
07F00000
07F00000
07F00000
0FF00000
0FE00000
0FE00000
1FE00000
7FC00000
FFC00000
FF800000
FE000000
F8000000
ENDCHAR
STARTCHAR 0192
ENCODING 402
SWIDTH 488 0
DWIDTH 19 0
BBX 27 32 -3 -5
BITMAP
0003FFE0
003FFFE0
007FFFE0
007FFFE0
00FFFFE0
00FFFFE0
00FF0000
00FE0000
00FE0000
01FC0000
01FFE000
01FFC000
01FFC000
01FFC000
03FFC000
03FC8000
03F80000
03F80000
07F00000
07F00000
07F00000
07F00000
07F00000
0FF00000
0FE00000
0FE00000
1FE00000
7FC00000
FFC00000
FF800000
FE000000
F8000000
ENDCHAR
STARTCHAR 0193
ENCODING 403
SWIDTH 488 0
DWIDTH 19 0
BBX 24 33 2 0
BITMAP
00007F
0000FF
0001FF
0003FE
0007FE
0007F0
000FF0
003FF0
007FF0
00FFF8
01FFF8
03FFF8
03F9E0
07E000
07C000
0F8000
0F8000
1F0070
1F0FF0
3E1FF0
3E1FE0
3E1FE0
7E1FE0
7E1FE0
FF3FE0
FFFFC0
FFFFC0
FFFF80
FFFF00
7FFC00
7FF000
3FC000
080000
ENDCHAR
STARTCHAR 0194
ENCODING 404
SWIDTH 591 0
DWIDTH 23 0
BBX 22 31 6 -5
BITMAP
FE0040
FC00F8
FC01FC
FC03FC
FC03F8
7C07F0
7E07F0
7E0FE0
7E1FC0
7E1FC0
7E3F80
3F3F00
3F7F00
3F7E00
1FFC00
1FFC00
0FF800
0FF000
1FE000
3FF000
3FF000
7DF000
F9F000
F1F000
F1E000
F1E000
FBE000
FFC000
FF8000
7F0000
3C0000
ENDCHAR
STARTCHAR 0197
ENCODING 407
SWIDTH 360 0
DWIDTH 14 0
BBX 17 26 1 0
BITMAP
007F80
00FF80
00FF00
00FF00
00FF00
01FE00
01FE00
01FE00
03FC00
03FC00
03FE00
1FFF00
3FFE00
3FFE00
3FFE00
0FF800
0FF800
0FF000
1FF000
1FF000
1FF000
1FE000
3FE000
3FE000
7FC000
F80000
ENDCHAR
STARTCHAR 0198
ENCODING 408
SWIDTH 591 0
DWIDTH 23 0
BBX 26 27 1 0
BITMAP
00010700
07FF1F80
03FE3FC0
07FE7FC0
07FE7FC0
07FEFFC0
0FFDF7C0
0FFDF3C0
0FFFE7C0
0FFFC780
0FFFCF80
1FFF9F00
1FFF3F00
1FFE3E00
3FFE3800
3FFF0000
3FFF8000
3FFF8000
7FFFC000
7FFFE000
7FEFE000
7FE7F000
7FC7F000
FFC3F000
FFE3F000
FFC39000
CF830000
ENDCHAR
STARTCHAR 0199
ENCODING 409
SWIDTH 591 0
DWIDTH 23 0
BBX 26 27 1 0
BITMAP
00010700
07FF1F80
03FE3FC0
07FE7FC0
07FE7FC0
07FEFFC0
0FFDF7C0
0FFDF3C0
0FFFE7C0
0FFFC780
0FFFCF80
1FFF9F00
1FFF3F00
1FFE3E00
3FFE3800
3FFF0000
3FFF8000
3FFF8000
7FFFC000
7FFFE000
7FEFE000
7FE7F000
7FC7F000
FFC3F000
FFE3F000
FFC39000
CF830000
ENDCHAR
STARTCHAR 019D
ENCODING 413
SWIDTH 565 0
DWIDTH 22 0
BBX 30 31 -3 -5
BITMAP
000780F8
001FE3FC
001FE3F8
001FE3F8
003FE7F8
003FC7F0
007FC7F0
007FEFF0
007FEFE0
00FFEFE0
00FFEFE0
00FFEFC0
01FFFFC0
01FFFFC0
01FFFFC0
01FDFF80
03FDFF80
03FDFF80
03F9FF00
03F9FF00
07F9FF00
07F0FF00
07F0FE00
0FF1FE00
0FE1FE00
1FE00000
7FC00000
FFC00000
FF800000
FE000000
F8000000
ENDCHAR
STARTCHAR 01A0
ENCODING 416
SWIDTH 540 0
DWIDTH 21 0
BBX 23 28 3 0
BITMAP
00000E
00781E
00FC1E
01FF0E
03FF8E
07FFCE
07FFDC
0FFFFC
1FFFFC
1FFFF8
3FFFF0
3F8FF0
7F87F0
7F07F0
FF07F0
FF0FF0
FF0FF0
FF9FE0
FFFFE0
FFFFE0
FFFFC0
FFFFC0
FFFF80
7FFF80
7FFF00
3FFE00
1FFC00
07F000
ENDCHAR
STARTCHAR 01A1
ENCODING 417
SWIDTH 540 0
DWIDTH 21 0
BBX 23 28 3 0
BITMAP
00000E
00781E
00FC1E
01FF0E
03FF8E
07FFCE
07FFDC
0FFFFC
1FFFFC
1FFFF8
3FFFF0
3F8FF0
7F87F0
7F07F0
FF07F0
FF0FF0
FF0FF0
FF9FE0
FFFFE0
FFFFE0
FFFFC0
FFFFC0
FFFF80
7FFF80
7FFF00
3FFE00
1FFC00
07F000
ENDCHAR
STARTCHAR 01AF
ENCODING 431
SWIDTH 591 0
DWIDTH 23 0
BBX 26 28 3 0
BITMAP
00000380
000007C0
0F81E380
1F83E380
1F03E380
1F03E380
3F03E380
3F03FF00
3F03FF00
3F07FE00
3E07FC00
7E07F800
7E07E000
7E0FE000
7E0FE000
FE1FE000
FE3FC000
FFFFC000
7FFFC000
7FFF8000
7FFF8000
7FFF8000
7FFF0000
3FFE0000
3FFE0000
1FFC0000
1FF00000
03800000
ENDCHAR
STARTCHAR 01B0
ENCODING 432
SWIDTH 591 0
DWIDTH 23 0
BBX 26 28 3 0
BITMAP
00000380
000007C0
0F81E380
1F83E380
1F03E380
1F03E380
3F03E380
3F03FF00
3F03FF00
3F07FE00
3E07FC00
7E07F800
7E07E000
7E0FE000
7E0FE000
FE1FE000
FE3FC000
FFFFC000
7FFFC000
7FFF8000
7FFF8000
7FFF8000
7FFF0000
3FFE0000
3FFE0000
1FFC0000
1FF00000
03800000
ENDCHAR
STARTCHAR 01B1
ENCODING 433
SWIDTH 591 0
DWIDTH 23 0
BBX 26 27 3 0
BITMAP
1FF87FC0
1FF8FFC0
1FF8FF80
1FF0FF80
3FF0FF80
3FF0FF80
07E0FC00
0FC07C00
0F807E00
1F807E00
3F003E00
3F003E00
7E007E00
7E007E00
7E007E00
FE00FC00
FE01FC00
FE01FC00
FF07F800
FFFFF800
FFFFF000
FFFFE000
FFFFC000
7FFF8000
7FFF0000
3FFE0000
1FF00000
ENDCHAR
STARTCHAR 01B2
ENCODING 434
SWIDTH 540 0
DWIDTH 21 0
BBX 21 26 4 1
BITMAP
000700
3E3F80
3E1FC0
3E1FE0
7E0FE0
7E07F0
7E07F0
7E07F0
7E03F8
FE03F8
FE03F8
FE07F0
FE07F0
FE07F0
FF0FF0
FF1FF0
FFFFE0
FFFFE0
FFFFE0
7FFFC0
7FFFC0
7FFF80
3FFF00
3FFE00
1FFC00
0FF000
ENDCHAR
STARTCHAR 01B3
ENCODING 435
SWIDTH 668 0
DWIDTH 26 0
BBX 24 27 6 0
BITMAP
000020
0400FC
7E01FE
FE03FE
FE03FF
FF07FF
FF0FFF
7F0FFF
7F1FDF
7F3F9E
3FBF1E
3FFF3C
3FFEFC
3FFCF8
1FF8F8
1FF8F0
1FF0E0
0FF000
0FE000
0FC000
0FC000
0FC000
0FC000
0FC000
1FC000
1FC000
1F0000
ENDCHAR
STARTCHAR 01B4
ENCODING 436
SWIDTH 668 0
DWIDTH 26 0
BBX 24 27 6 0
BITMAP
000020
0400FC
7E01FE
FE03FE
FE03FF
FF07FF
FF0FFF
7F0FFF
7F1FDF
7F3F9E
3FBF1E
3FFF3C
3FFEFC
3FFCF8
1FF8F8
1FF8F0
1FF0E0
0FF000
0FE000
0FC000
0FC000
0FC000
0FC000
0FC000
1FC000
1FC000
1F0000
ENDCHAR
STARTCHAR 01B5
ENCODING 437
SWIDTH 591 0
DWIDTH 23 0
BBX 20 27 5 0
BITMAP
003F00
07FFF0
1FFFE0
3FFFC0
7FFF80
FFFF00
FFFF00
E07E00
00FC00
00FC00
01F800
7FFFC0
FFFFC0
FFFFC0
FFFF80
FFFF80
0FC000
1FC000
1F8000
3F0000
3FFFE0
7FFFE0
7FFFE0
FFFFC0
FFFF80
07FE00
007000
ENDCHAR
STARTCHAR 01B6
ENCODING 438
SWIDTH 591 0
DWIDTH 23 0
BBX 20 27 5 0
BITMAP
003F00
07FFF0
1FFFE0
3FFFC0
7FFF80
FFFF00
FFFF00
E07E00
00FC00
00FC00
01F800
7FFFC0
FFFFC0
FFFFC0
FFFF80
FFFF80
0FC000
1FC000
1F8000
3F0000
3FFFE0
7FFFE0
7FFFE0
FFFFC0
FFFF80
07FE00
007000
ENDCHAR
STARTCHAR 01B7
ENCODING 439
SWIDTH 488 0
DWIDTH 19 0
BBX 20 28 2 -1
BITMAP
001C00
07FFF0
07FFF0
07FFF0
07FFE0
0003C0
000F80
001F00
007E00
00FE00
03FF80
07FFC0
0FFFC0
0FFFC0
020FC0
0007E0
0003E0
0003E0
0003E0
E007C0
FE0FC0
FFFFC0
FFFF80
FFFF00
FFFE00
3FFC00
1FF000
004000
ENDCHAR
STARTCHAR 01BB
ENCODING 443
SWIDTH 514 0
DWIDTH 20 0
BBX 20 27 2 0
BITMAP
007800
00FE00
03FF80
07FFC0
0FFFC0
1FFFC0
0FFF80
0F0F80
060F80
001F80
00BFF0
0FFFF0
0FFFF0
0FFFF0
1FFE00
04F800
01FFF0
03FFE0
03FFE0
07FFC0
0FFFC0
1FFF80
3FFF80
FFFF80
FFFE00
3FF000
030000
ENDCHAR
STARTCHAR 01C0
ENCODING 448
SWIDTH 180 0
DWIDTH 7 0
BBX 11 27 1 0
BITMAP
0300
07E0
07E0
07C0
07C0
07C0
0FC0
0FC0
0FC0
1F80
1F80
1F80
1F80
1F00
3F00
3F00
3F00
3F00
3E00
7E00
7E00
7E00
7E00
7C00
FC00
FC00
FC00
ENDCHAR
STARTCHAR 01C1
ENCODING 449
SWIDTH 308 0
DWIDTH 12 0
BBX 16 27 1 0
BITMAP
000F
07DF
07DF
079E
079E
07BE
0FBE
0FBE
0F3C
1F7C
1F7C
1F7C
1F7C
1E78
3EF8
3EF8
3EF8
3EF0
3CF0
7DF0
7DF0
7DE0
79E0
79E0
FBE0
FBE0
F0C0
ENDCHAR
STARTCHAR 01C2
ENCODING 450
SWIDTH 308 0
DWIDTH 12 0
BBX 14 27 2 0
BITMAP
0080
01F8
01F8
01F0
03F0
03F0
03F0
1FFC
1FFC
3FFC
3FFC
3FF8
07C0
0FC0
0FC0
0FC0
0FC0
7FF0
7FF0
FFF0
FFF0
FF80
1F00
3F00
3F00
3E00
3E00
ENDCHAR
STARTCHAR 01C3
ENCODING 451
SWIDTH 205 0
DWIDTH 8 0
BBX 12 27 1 0
BITMAP
03F0
07F0
07F0
07F0
07E0
0FE0
0FE0
0FE0
0FE0
0FC0
1FC0
1FC0
1F80
1F80
1F80
1F00
3F00
1C00
0000
0000
1C00
7E00
7E00
FE00
FE00
7C00
3000
ENDCHAR
STARTCHAR 01CA
ENCODING 458
SWIDTH 720 0
DWIDTH 28 0
BBX 32 26 1 0
BITMAP
00E0E03F
01F3F03F
03F3F07F
03F3E07F
03F3E07E
07F7E0FE
07E7C0FE
07E7C0FE
0FE7C1FE
0FE781FE
0FEF81FC
1FEF81FC
1FEF81FC
1FEF01FC
1FFF01FC
3FFF01F8
3FFF01F8
3EFE39F8
3EFE79F0
7EFE7BF0
7EFEFFE0
7CFCFFE0
7CFC7FC0
FCFC7F80
FCF87F00
E0001E00
ENDCHAR
STARTCHAR 01CB
ENCODING 459
SWIDTH 720 0
DWIDTH 28 0
BBX 32 26 1 0
BITMAP
00E0E03F
01F3F03F
03F3F07F
03F3E07F
03F3E07E
07F7E0FE
07E7C0FE
07E7C0FE
0FE7C1FE
0FE781FE
0FEF81FC
1FEF81FC
1FEF81FC
1FEF01FC
1FFF01FC
3FFF01F8
3FFF01F8
3EFE39F8
3EFE79F0
7EFE7BF0
7EFEFFE0
7CFCFFE0
7CFC7FC0
FCFC7F80
FCF87F00
E0001E00
ENDCHAR
STARTCHAR 01CC
ENCODING 460
SWIDTH 720 0
DWIDTH 28 0
BBX 32 26 1 0
BITMAP
00E0E03F
01F3F03F
03F3F07F
03F3E07F
03F3E07E
07F7E0FE
07E7C0FE
07E7C0FE
0FE7C1FE
0FE781FE
0FEF81FC
1FEF81FC
1FEF81FC
1FEF01FC
1FFF01FC
3FFF01F8
3FFF01F8
3EFE39F8
3EFE79F0
7EFE7BF0
7EFEFFE0
7CFCFFE0
7CFC7FC0
FCFC7F80
FCF87F00
E0001E00
ENDCHAR
STARTCHAR 01CD
ENCODING 461
SWIDTH 617 0
DWIDTH 24 0
BBX 25 35 1 -1
BITMAP
00010000
00078F80
0007FF00
0003FE00
0001FC00
0000F000
00000000
00000000
0000F000
0001F000
0003F000
0003F000
0007F000
0007F000
000FF000
000FF000
001FF000
003FF000
003FF000
007FF000
00FFF800
00FFF800
01E7F800
03E3F800
03C3F800
078FF800
0FFFF800
0FFFF800
1FFFFC00
1F87FC00
3F07FC00
7F07FC00
7E07FE00
FE07FE00
F0000000
ENDCHAR
STARTCHAR 01CE
ENCODING 462
SWIDTH 617 0
DWIDTH 24 0
BBX 25 35 1 -1
BITMAP
00010000
00078F80
0007FF00
0003FE00
0001FC00
0000F000
00000000
00000000
0000F000
0001F000
0003F000
0003F000
0007F000
0007F000
000FF000
000FF000
001FF000
003FF000
003FF000
007FF000
00FFF800
00FFF800
01E7F800
03E3F800
03C3F800
078FF800
0FFFF800
0FFFF800
1FFFFC00
1F87FC00
3F07FC00
7F07FC00
7E07FE00
FE07FE00
F0000000
ENDCHAR
STARTCHAR 01CF
ENCODING 463
SWIDTH 334 0
DWIDTH 13 0
BBX 20 34 1 0
BITMAP
001000
00F8F0
00FFF0
007FE0
003F80
001F00
000000
000000
00FF80
00FF00
00FF00
01FE00
01FE00
01FE00
03FC00
03FC00
03FC00
07FC00
07F800
07F800
0FF800
0FF800
0FF000
0FF000
1FF000
1FF000
1FF000
1FE000
3FE000
3FC000
3FC000
7FC000
7F8000
F80000
ENDCHAR
STARTCHAR 01D0
ENCODING 464
SWIDTH 334 0
DWIDTH 13 0
BBX 20 34 1 0
BITMAP
001000
00F8F0
00FFF0
007FE0
003F80
001F00
000000
000000
00FF80
00FF00
00FF00
01FE00
01FE00
01FE00
03FC00
03FC00
03FC00
07FC00
07F800
07F800
0FF800
0FF800
0FF000
0FF000
1FF000
1FF000
1FF000
1FE000
3FE000
3FC000
3FC000
7FC000
7F8000
F80000
ENDCHAR
STARTCHAR 01D1
ENCODING 465
SWIDTH 514 0
DWIDTH 20 0
BBX 20 34 3 0
BITMAP
030300
07CF80
07FF00
03FE00
01F800
00F000
000000
007800
00FC00
01FF00
03FF80
07FFC0
07FFC0
0FFFE0
1FFFE0
1FFFF0
3FFFF0
3F8FF0
7F87F0
7F07F0
FF07F0
FF0FF0
FF0FF0
FF9FE0
FFFFE0
FFFFE0
FFFFC0
FFFFC0
FFFF80
7FFF80
7FFF00
3FFE00
1FFC00
07F000
ENDCHAR
STARTCHAR 01D2
ENCODING 466
SWIDTH 514 0
DWIDTH 20 0
BBX 20 34 3 0
BITMAP
030300
07CF80
07FF00
03FE00
01F800
00F000
000000
007800
00FC00
01FF00
03FF80
07FFC0
07FFC0
0FFFE0
1FFFE0
1FFFF0
3FFFF0
3F8FF0
7F87F0
7F07F0
FF07F0
FF0FF0
FF0FF0
FF9FE0
FFFFE0
FFFFE0
FFFFC0
FFFFC0
FFFF80
7FFF80
7FFF00
3FFE00
1FFC00
07F000
ENDCHAR
STARTCHAR 01D3
ENCODING 467
SWIDTH 540 0
DWIDTH 21 0
BBX 23 33 3 1
BITMAP
000400
001E3C
001FFC
001FF8
000FE0
0007C0
000000
030000
07E07E
07E0FE
0FC07E
0FC07C
0FC0FC
1FC0FC
1F80FC
3F81FC
3F01F8
3F01F8
7F03F8
7F03F8
FF07F8
FF87F0
FFCFF0
FFFFE0
FFFFE0
FFFFC0
FFFFC0
FFFF80
7FFF00
7FFE00
7FFC00
3FF800
0FF000
ENDCHAR
STARTCHAR 01D4
ENCODING 468
SWIDTH 540 0
DWIDTH 21 0
BBX 23 33 3 1
BITMAP
000400
001E3C
001FFC
001FF8
000FE0
0007C0
000000
030000
07E07E
07E0FE
0FC07E
0FC07C
0FC0FC
1FC0FC
1F80FC
3F81FC
3F01F8
3F01F8
7F03F8
7F03F8
FF07F8
FF87F0
FFCFF0
FFFFE0
FFFFE0
FFFFC0
FFFFC0
FFFF80
7FFF00
7FFE00
7FFC00
3FF800
0FF000
ENDCHAR
STARTCHAR 01D5
ENCODING 469
SWIDTH 540 0
DWIDTH 21 0
BBX 23 34 3 1
BITMAP
001FFC
001FFC
003FFC
000000
001C70
003C78
003CF0
001860
030000
07E07E
07E0FE
0FC07E
0FC07C
0FC0FC
1FC0FC
1F80FC
3F81FC
3F01F8
3F01F8
7F03F8
7F03F8
FF07F8
FF87F0
FFCFF0
FFFFE0
FFFFE0
FFFFC0
FFFFC0
FFFF80
7FFF00
7FFE00
7FFC00
3FF800
0FF000
ENDCHAR
STARTCHAR 01D6
ENCODING 470
SWIDTH 540 0
DWIDTH 21 0
BBX 23 34 3 1
BITMAP
001FFC
001FFC
003FFC
000000
001C70
003C78
003CF0
001860
030000
07E07E
07E0FE
0FC07E
0FC07C
0FC0FC
1FC0FC
1F80FC
3F81FC
3F01F8
3F01F8
7F03F8
7F03F8
FF07F8
FF87F0
FFCFF0
FFFFE0
FFFFE0
FFFFC0
FFFFC0
FFFF80
7FFF00
7FFE00
7FFC00
3FF800
0FF000
ENDCHAR
STARTCHAR 01D7
ENCODING 471
SWIDTH 540 0
DWIDTH 21 0
BBX 23 34 3 1
BITMAP
00007E
0000F8
0001F0
0003C0
001C70
003C78
003CF0
001860
030000
07E07E
07E0FE
0FC07E
0FC07C
0FC0FC
1FC0FC
1F80FC
3F81FC
3F01F8
3F01F8
7F03F8
7F03F8
FF07F8
FF87F0
FFCFF0
FFFFE0
FFFFE0
FFFFC0
FFFFC0
FFFF80
7FFF00
7FFE00
7FFC00
3FF800
0FF000
ENDCHAR
STARTCHAR 01D8
ENCODING 472
SWIDTH 540 0
DWIDTH 21 0
BBX 23 34 3 1
BITMAP
00007E
0000F8
0001F0
0003C0
001C70
003C78
003CF0
001860
030000
07E07E
07E0FE
0FC07E
0FC07C
0FC0FC
1FC0FC
1F80FC
3F81FC
3F01F8
3F01F8
7F03F8
7F03F8
FF07F8
FF87F0
FFCFF0
FFFFE0
FFFFE0
FFFFC0
FFFFC0
FFFF80
7FFF00
7FFE00
7FFC00
3FF800
0FF000
ENDCHAR
STARTCHAR 01D9
ENCODING 473
SWIDTH 540 0
DWIDTH 21 0
BBX 23 34 3 1
BITMAP
001E3C
001FFC
000FF0
0003C0
001C70
003C78
003CF0
001860
030000
07E07E
07E0FE
0FC07E
0FC07C
0FC0FC
1FC0FC
1F80FC
3F81FC
3F01F8
3F01F8
7F03F8
7F03F8
FF07F8
FF87F0
FFCFF0
FFFFE0
FFFFE0
FFFFC0
FFFFC0
FFFF80
7FFF00
7FFE00
7FFC00
3FF800
0FF000
ENDCHAR
STARTCHAR 01DA
ENCODING 474
SWIDTH 540 0
DWIDTH 21 0
BBX 23 34 3 1
BITMAP
001E3C
001FFC
000FF0
0003C0
001C70
003C78
003CF0
001860
030000
07E07E
07E0FE
0FC07E
0FC07C
0FC0FC
1FC0FC
1F80FC
3F81FC
3F01F8
3F01F8
7F03F8
7F03F8
FF07F8
FF87F0
FFCFF0
FFFFE0
FFFFE0
FFFFC0
FFFFC0
FFFF80
7FFF00
7FFE00
7FFC00
3FF800
0FF000
ENDCHAR
STARTCHAR 01DB
ENCODING 475
SWIDTH 540 0
DWIDTH 21 0
BBX 23 34 3 1
BITMAP
001F00
000F80
000780
0003C0
001C70
003C78
003CF0
001860
030000
07E07E
07E0FE
0FC07E
0FC07C
0FC0FC
1FC0FC
1F80FC
3F81FC
3F01F8
3F01F8
7F03F8
7F03F8
FF07F8
FF87F0
FFCFF0
FFFFE0
FFFFE0
FFFFC0
FFFFC0
FFFF80
7FFF00
7FFE00
7FFC00
3FF800
0FF000
ENDCHAR
STARTCHAR 01DC
ENCODING 476
SWIDTH 540 0
DWIDTH 21 0
BBX 23 34 3 1
BITMAP
001F00
000F80
000780
0003C0
001C70
003C78
003CF0
001860
030000
07E07E
07E0FE
0FC07E
0FC07C
0FC0FC
1FC0FC
1F80FC
3F81FC
3F01F8
3F01F8
7F03F8
7F03F8
FF07F8
FF87F0
FFCFF0
FFFFE0
FFFFE0
FFFFC0
FFFFC0
FFFF80
7FFF00
7FFE00
7FFC00
3FF800
0FF000
ENDCHAR
STARTCHAR 01DE
ENCODING 478
SWIDTH 617 0
DWIDTH 24 0
BBX 25 36 1 -1
BITMAP
0003FF80
0003FF80
0007FF80
00000000
00038F00
00078F00
00078E00
00030400
00000000
0000F000
0001F000
0003F000
0003F000
0007F000
0007F000
000FF000
000FF000
001FF000
003FF000
003FF000
007FF000
00FFF800
00FFF800
01E7F800
03E3F800
03C3F800
078FF800
0FFFF800
0FFFF800
1FFFFC00
1F87FC00
3F07FC00
7F07FC00
7E07FE00
FE07FE00
F0000000
ENDCHAR
STARTCHAR 01DF
ENCODING 479
SWIDTH 617 0
DWIDTH 24 0
BBX 25 36 1 -1
BITMAP
0003FF80
0003FF80
0007FF80
00000000
00038F00
00078F00
00078E00
00030400
00000000
0000F000
0001F000
0003F000
0003F000
0007F000
0007F000
000FF000
000FF000
001FF000
003FF000
003FF000
007FF000
00FFF800
00FFF800
01E7F800
03E3F800
03C3F800
078FF800
0FFFF800
0FFFF800
1FFFFC00
1F87FC00
3F07FC00
7F07FC00
7E07FE00
FE07FE00
F0000000
ENDCHAR
STARTCHAR 01E0
ENCODING 480
SWIDTH 617 0
DWIDTH 24 0
BBX 25 36 1 -1
BITMAP
0003FF80
0003FF80
0007FF80
00000000
00007000
00007800
0000F000
00006000
00000000
0000F000
0001F000
0003F000
0003F000
0007F000
0007F000
000FF000
000FF000
001FF000
003FF000
003FF000
007FF000
00FFF800
00FFF800
01E7F800
03E3F800
03C3F800
078FF800
0FFFF800
0FFFF800
1FFFFC00
1F87FC00
3F07FC00
7F07FC00
7E07FE00
FE07FE00
F0000000
ENDCHAR
STARTCHAR 01E1
ENCODING 481
SWIDTH 617 0
DWIDTH 24 0
BBX 25 36 1 -1
BITMAP
0003FF80
0003FF80
0007FF80
00000000
00007000
00007800
0000F000
00006000
00000000
0000F000
0001F000
0003F000
0003F000
0007F000
0007F000
000FF000
000FF000
001FF000
003FF000
003FF000
007FF000
00FFF800
00FFF800
01E7F800
03E3F800
03C3F800
078FF800
0FFFF800
0FFFF800
1FFFFC00
1F87FC00
3F07FC00
7F07FC00
7E07FE00
FE07FE00
F0000000
ENDCHAR
STARTCHAR 01E2
ENCODING 482
SWIDTH 720 0
DWIDTH 28 0
BBX 29 32 1 -1
BITMAP
00007FF8
00007FF0
00007FF0
00000000
00001FE0
0000FFF8
0001FFF0
0003FFF0
0003FFE0
0007FFE0
0007FFE0
000FFFC0
001FFC00
001FF800
003FF800
003FFBC0
007FFF80
00FFFF80
00F7FF80
01E7F800
03C3F800
03C3FFF0
079FFFF0
0FFFFFF0
0FFFFFF0
1FF7FFF0
3F87FFF0
3F07FFF0
7F07FFE0
7E07FE00
FE07C000
E0000000
ENDCHAR
STARTCHAR 01E3
ENCODING 483
SWIDTH 720 0
DWIDTH 28 0
BBX 29 32 1 -1
BITMAP
00007FF8
00007FF0
00007FF0
00000000
00001FE0
0000FFF8
0001FFF0
0003FFF0
0003FFE0
0007FFE0
0007FFE0
000FFFC0
001FFC00
001FF800
003FF800
003FFBC0
007FFF80
00FFFF80
00F7FF80
01E7F800
03C3F800
03C3FFF0
079FFFF0
0FFFFFF0
0FFFFFF0
1FF7FFF0
3F87FFF0
3F07FFF0
7F07FFE0
7E07FE00
FE07C000
E0000000
ENDCHAR
STARTCHAR 01E4
ENCODING 484
SWIDTH 540 0
DWIDTH 21 0
BBX 21 27 4 0
BITMAP
000B00
003FE0
007FF0
00FFF8
01FFF8
03FFF0
03F9E0
07E000
0FC000
FFE000
FFE000
FFE060
FFEFF0
FFDFE0
3E1FE0
7E1FE0
7E1FE0
7E1FE0
FF3FC0
FFFFC0
FFFFC0
FFFF80
FFFF00
FFFC00
7FF000
3FC000
180000
ENDCHAR
STARTCHAR 01E5
ENCODING 485
SWIDTH 540 0
DWIDTH 21 0
BBX 21 27 4 0
BITMAP
000B00
003FE0
007FF0
00FFF8
01FFF8
03FFF0
03F9E0
07E000
0FC000
FFE000
FFE000
FFE060
FFEFF0
FFDFE0
3E1FE0
7E1FE0
7E1FE0
7E1FE0
FF3FC0
FFFFC0
FFFFC0
FFFF80
FFFF00
FFFC00
7FF000
3FC000
180000
ENDCHAR
STARTCHAR 01E6
ENCODING 486
SWIDTH 488 0
DWIDTH 19 0
BBX 21 34 2 0
BITMAP
000800
003C78
003FF8
003FF0
001FC0
000F80
000000
000F80
003FE0
007FF0
00FFF8
01FFF8
03FFF8
03F9E0
07E000
07C000
0F8000
0F8000
1F0070
1F0FF0
3E1FF0
3E1FE0
3E1FE0
7E1FE0
7E1FE0
FF3FE0
FFFFC0
FFFFC0
FFFF80
FFFF00
7FFC00
7FF000
3FC000
080000
ENDCHAR
STARTCHAR 01E7
ENCODING 487
SWIDTH 488 0
DWIDTH 19 0
BBX 21 34 2 0
BITMAP
000800
003C78
003FF8
003FF0
001FC0
000F80
000000
000F80
003FE0
007FF0
00FFF8
01FFF8
03FFF8
03F9E0
07E000
07C000
0F8000
0F8000
1F0070
1F0FF0
3E1FF0
3E1FE0
3E1FE0
7E1FE0
7E1FE0
FF3FE0
FFFFC0
FFFFC0
FFFF80
FFFF00
7FFC00
7FF000
3FC000
080000
ENDCHAR
STARTCHAR 01E8
ENCODING 488
SWIDTH 540 0
DWIDTH 21 0
BBX 25 33 1 1
BITMAP
00078F80
0007DF00
0003FE00
0001FC00
0000F000
00000000
00010400
07FF1C00
03FE3F00
07FE7F80
07FE7F00
07FEFE00
0FFDFC00
0FFDF800
0FFFF000
0FFFE000
0FFFC000
1FFFC000
1FFF8000
1FFF0000
3FFE0000
3FFF0000
3FFF8000
3FFF8000
7FFFC000
7FFFE000
7FEFE000
7FE7F000
7FC7F000
FFC3F000
FFE3F000
FFC39000
CF830000
ENDCHAR
STARTCHAR 01E9
ENCODING 489
SWIDTH 540 0
DWIDTH 21 0
BBX 25 33 1 1
BITMAP
00078F80
0007DF00
0003FE00
0001FC00
0000F000
00000000
00010400
07FF1C00
03FE3F00
07FE7F80
07FE7F00
07FEFE00
0FFDFC00
0FFDF800
0FFFF000
0FFFE000
0FFFC000
1FFFC000
1FFF8000
1FFF0000
3FFE0000
3FFF0000
3FFF8000
3FFF8000
7FFFC000
7FFFE000
7FEFE000
7FE7F000
7FC7F000
FFC3F000
FFE3F000
FFC39000
CF830000
ENDCHAR
STARTCHAR 01EA
ENCODING 490
SWIDTH 514 0
DWIDTH 20 0
BBX 20 33 3 -6
BITMAP
007800
00FC00
01FF00
03FF80
07FFC0
07FFC0
0FFFE0
1FFFE0
1FFFF0
3FFFF0
3F8FF0
7F87F0
7F07F0
FF07F0
FF0FF0
FF0FF0
FF9FE0
FFFFE0
FFFFE0
FFFFC0
FFFFC0
FFFF80
7FFF80
7FFF00
3FFE00
1FFC00
07F000
038000
078000
070000
0FFC00
0FFC00
07FC00
ENDCHAR
STARTCHAR 01EB
ENCODING 491
SWIDTH 514 0
DWIDTH 20 0
BBX 20 33 3 -6
BITMAP
007800
00FC00
01FF00
03FF80
07FFC0
07FFC0
0FFFE0
1FFFE0
1FFFF0
3FFFF0
3F8FF0
7F87F0
7F07F0
FF07F0
FF0FF0
FF0FF0
FF9FE0
FFFFE0
FFFFE0
FFFFC0
FFFFC0
FFFF80
7FFF80
7FFF00
3FFE00
1FFC00
07F000
038000
078000
070000
0FFC00
0FFC00
07FC00
ENDCHAR
STARTCHAR 01EC
ENCODING 492
SWIDTH 514 0
DWIDTH 20 0
BBX 20 37 3 -6
BITMAP
07FF80
07FF80
07FF00
000000
007800
00FC00
01FF00
03FF80
07FFC0
07FFC0
0FFFE0
1FFFE0
1FFFF0
3FFFF0
3F8FF0
7F87F0
7F07F0
FF07F0
FF0FF0
FF0FF0
FF9FE0
FFFFE0
FFFFE0
FFFFC0
FFFFC0
FFFF80
7FFF80
7FFF00
3FFE00
1FFC00
07F000
038000
078000
070000
0FFC00
0FFC00
07FC00
ENDCHAR
STARTCHAR 01ED
ENCODING 493
SWIDTH 514 0
DWIDTH 20 0
BBX 20 37 3 -6
BITMAP
07FF80
07FF80
07FF00
000000
007800
00FC00
01FF00
03FF80
07FFC0
07FFC0
0FFFE0
1FFFE0
1FFFF0
3FFFF0
3F8FF0
7F87F0
7F07F0
FF07F0
FF0FF0
FF0FF0
FF9FE0
FFFFE0
FFFFE0
FFFFC0
FFFFC0
FFFF80
7FFF80
7FFF00
3FFE00
1FFC00
07F000
038000
078000
070000
0FFC00
0FFC00
07FC00
ENDCHAR
STARTCHAR 01EE
ENCODING 494
SWIDTH 488 0
DWIDTH 19 0
BBX 20 34 2 -1
BITMAP
00F1F0
00FBE0
007FC0
003F80
001F00
000800
001C00
07FFF0
07FFF0
07FFF0
07FFE0
0003C0
000F80
001F00
007E00
00FE00
03FF80
07FFC0
0FFFC0
0FFFC0
020FC0
0007E0
0003E0
0003E0
0003E0
E007C0
FE0FC0
FFFFC0
FFFF80
FFFF00
FFFE00
3FFC00
1FF000
004000
ENDCHAR
STARTCHAR 01EF
ENCODING 495
SWIDTH 488 0
DWIDTH 19 0
BBX 20 34 2 -1
BITMAP
00F1F0
00FBE0
007FC0
003F80
001F00
000800
001C00
07FFF0
07FFF0
07FFF0
07FFE0
0003C0
000F80
001F00
007E00
00FE00
03FF80
07FFC0
0FFFC0
0FFFC0
020FC0
0007E0
0003E0
0003E0
0003E0
E007C0
FE0FC0
FFFFC0
FFFF80
FFFF00
FFFE00
3FFC00
1FF000
004000
ENDCHAR
STARTCHAR 01F0
ENCODING 496
SWIDTH 437 0
DWIDTH 17 0
BBX 23 34 2 0
BITMAP
000200
001F3E
001FFE
000FFC
0007F0
0003E0
000000
000000
000FF0
001FF0
001FF0
003FF0
003FE0
003FE0
007FE0
007FE0
007FE0
007FE0
007FE0
00FFC0
00FFC0
00FFC0
007FC0
007F80
007F80
3C7F80
FC7F00
FEFF00
FEFE00
FFFE00
FFFC00
7FF800
3FE000
0FC000
ENDCHAR
STARTCHAR 01F4
ENCODING 500
SWIDTH 488 0
DWIDTH 19 0
BBX 21 34 2 0
BITMAP
000078
0000F8
0001F0
0003E0
0007C0
000780
000000
000F80
003FE0
007FF0
00FFF8
01FFF8
03FFF8
03F9E0
07E000
07C000
0F8000
0F8000
1F0070
1F0FF0
3E1FF0
3E1FE0
3E1FE0
7E1FE0
7E1FE0
FF3FE0
FFFFC0
FFFFC0
FFFF80
FFFF00
7FFC00
7FF000
3FC000
080000
ENDCHAR
STARTCHAR 01F5
ENCODING 501
SWIDTH 488 0
DWIDTH 19 0
BBX 21 34 2 0
BITMAP
000078
0000F8
0001F0
0003E0
0007C0
000780
000000
000F80
003FE0
007FF0
00FFF8
01FFF8
03FFF8
03F9E0
07E000
07C000
0F8000
0F8000
1F0070
1F0FF0
3E1FF0
3E1FE0
3E1FE0
7E1FE0
7E1FE0
FF3FE0
FFFFC0
FFFFC0
FFFF80
FFFF00
7FFC00
7FF000
3FC000
080000
ENDCHAR
STARTCHAR 01F8
ENCODING 504
SWIDTH 565 0
DWIDTH 22 0
BBX 26 34 1 0
BITMAP
00078000
000FC000
0007C000
0003E000
0003E000
0001E000
00000000
00000000
00780F80
01FE3FC0
01FE3F80
01FE3F80
03FE7F80
03FC7F00
07FC7F00
07FEFF00
07FEFE00
0FFEFE00
0FFEFE00
0FFEFC00
1FFFFC00
1FFFFC00
1FFFFC00
1FDFF800
3FDFF800
3FDFF800
3F9FF000
3F9FF000
7F9FF000
7F8FF000
7F0FE000
FF1FE000
FF1FE000
E0000000
ENDCHAR
STARTCHAR 01F9
ENCODING 505
SWIDTH 565 0
DWIDTH 22 0
BBX 26 34 1 0
BITMAP
00078000
000FC000
0007C000
0003E000
0003E000
0001E000
00000000
00000000
00780F80
01FE3FC0
01FE3F80
01FE3F80
03FE7F80
03FC7F00
07FC7F00
07FEFF00
07FEFE00
0FFEFE00
0FFEFE00
0FFEFC00
1FFFFC00
1FFFFC00
1FFFFC00
1FDFF800
3FDFF800
3FDFF800
3F9FF000
3F9FF000
7F9FF000
7F8FF000
7F0FE000
FF1FE000
FF1FE000
E0000000
ENDCHAR
STARTCHAR 01FE
ENCODING 510
SWIDTH 514 0
DWIDTH 20 0
BBX 27 35 0 -1
BITMAP
0000F800
0001F800
0001F000
0003E000
0007C000
000F0000
00000400
000F0FE0
001F9FC0
003FFF80
007FFF00
00FFFE00
00FFFE00
01FFFC00
03FFFC00
03FFFE00
07FFFE00
07EFFE00
0FCFFE00
0F9FFE00
1FBF7E00
1FFEFE00
1FFCFE00
1FF9FC00
1FF3FC00
1FFFFC00
1FFFF800
1FFFF800
1FFFF000
1FFFF000
3FFFE000
7FFFC000
7FFF8000
F8FE0000
10000000
ENDCHAR
STARTCHAR 01FF
ENCODING 511
SWIDTH 514 0
DWIDTH 20 0
BBX 27 35 0 -1
BITMAP
0000F800
0001F800
0001F000
0003E000
0007C000
000F0000
00000400
000F0FE0
001F9FC0
003FFF80
007FFF00
00FFFE00
00FFFE00
01FFFC00
03FFFC00
03FFFE00
07FFFE00
07EFFE00
0FCFFE00
0F9FFE00
1FBF7E00
1FFEFE00
1FFCFE00
1FF9FC00
1FF3FC00
1FFFFC00
1FFFF800
1FFFF800
1FFFF000
1FFFF000
3FFFE000
7FFFC000
7FFF8000
F8FE0000
10000000
ENDCHAR
STARTCHAR 0218
ENCODING 536
SWIDTH 488 0
DWIDTH 19 0
BBX 23 34 1 -7
BITMAP
0007F0
003FFE
00FFFE
00FFFC
01FFF8
03FFF8
03FFF0
07FFE0
07FFE0
07FFC0
0FE0C0
07E000
07FC00
07FF00
07FFC0
01FFC0
003FE0
000FE0
000FE0
301FE0
7FFFE0
7FFFC0
7FFFC0
FFFF80
7FFF00
3FFC00
0FF000
030000
07C000
0FC000
0F8000
0F0000
1E0000
040000
ENDCHAR
STARTCHAR 0219
ENCODING 537
SWIDTH 488 0
DWIDTH 19 0
BBX 23 34 1 -7
BITMAP
0007F0
003FFE
00FFFE
00FFFC
01FFF8
03FFF8
03FFF0
07FFE0
07FFE0
07FFC0
0FE0C0
07E000
07FC00
07FF00
07FFC0
01FFC0
003FE0
000FE0
000FE0
301FE0
7FFFE0
7FFFC0
7FFFC0
FFFF80
7FFF00
3FFC00
0FF000
030000
07C000
0FC000
0F8000
0F0000
1E0000
040000
ENDCHAR
STARTCHAR 021A
ENCODING 538
SWIDTH 565 0
DWIDTH 22 0
BBX 21 32 5 -7
BITMAP
3FFFF0
7FFFF8
7FFFF8
7FFFF8
FFFFF8
FFFFF8
FFFFF8
FFFF00
E0FC00
01F800
01F800
01F800
03F000
03F000
03F000
03F000
03E000
07E000
07E000
07E000
07C000
0FC000
0FC000
0FC000
0FC000
0F8000
0C0000
1F0000
1F0000
1F0000
3E0000
3C0000
ENDCHAR
STARTCHAR 021B
ENCODING 539
SWIDTH 565 0
DWIDTH 22 0
BBX 21 32 5 -7
BITMAP
3FFFF0
7FFFF8
7FFFF8
7FFFF8
FFFFF8
FFFFF8
FFFFF8
FFFF00
E0FC00
01F800
01F800
01F800
03F000
03F000
03F000
03F000
03E000
07E000
07E000
07E000
07C000
0FC000
0FC000
0FC000
0FC000
0F8000
0C0000
1F0000
1F0000
1F0000
3E0000
3C0000
ENDCHAR
STARTCHAR 021E
ENCODING 542
SWIDTH 540 0
DWIDTH 21 0
BBX 25 33 1 1
BITMAP
00008000
0003C780
0003FF80
0001FF00
0001FE00
00007800
00000000
00000000
007F0000
01FE1F80
01FE3F80
01FE3F80
01FE3F80
01FC7F00
03FC7F00
03FC7F00
03FC7F00
07FDFE00
07FFFE00
07FFFE00
0FFFFC00
0FFFFC00
0FFFFC00
1FFFFC00
1FFFFC00
1FE3FC00
3FE3F800
3FE7F800
3FC7F800
3FC7F000
7FC7F000
7FC7F000
FF8F8000
ENDCHAR
STARTCHAR 021F
ENCODING 543
SWIDTH 540 0
DWIDTH 21 0
BBX 25 33 1 1
BITMAP
00008000
0003C780
0003FF80
0001FF00
0001FE00
00007800
00000000
00000000
007F0000
01FE1F80
01FE3F80
01FE3F80
01FE3F80
01FC7F00
03FC7F00
03FC7F00
03FC7F00
07FDFE00
07FFFE00
07FFFE00
0FFFFC00
0FFFFC00
0FFFFC00
1FFFFC00
1FFFFC00
1FE3FC00
3FE3F800
3FE7F800
3FC7F800
3FC7F000
7FC7F000
7FC7F000
FF8F8000
ENDCHAR
STARTCHAR 0224
ENCODING 548
SWIDTH 591 0
DWIDTH 23 0
BBX 20 32 5 -5
BITMAP
003F00
07FFF0
1FFFE0
3FFFC0
7FFF80
FFFF00
FFFF00
E07E00
00FC00
00FC00
01F800
01F000
03F000
03E000
07E000
0FE000
0FC000
1FC000
1F8000
3F0000
3FFFE0
7FFFE0
7FFFE0
FFFFC0
FFFFC0
001FC0
003FC0
00FF80
01FF80
01FF00
01FC00
01F000
ENDCHAR
STARTCHAR 0225
ENCODING 549
SWIDTH 591 0
DWIDTH 23 0
BBX 20 32 5 -5
BITMAP
003F00
07FFF0
1FFFE0
3FFFC0
7FFF80
FFFF00
FFFF00
E07E00
00FC00
00FC00
01F800
01F000
03F000
03E000
07E000
0FE000
0FC000
1FC000
1F8000
3F0000
3FFFE0
7FFFE0
7FFFE0
FFFFC0
FFFFC0
001FC0
003FC0
00FF80
01FF80
01FF00
01FC00
01F000
ENDCHAR
STARTCHAR 0226
ENCODING 550
SWIDTH 617 0
DWIDTH 24 0
BBX 23 32 1 -1
BITMAP
000070
0000F0
0000F0
000060
000000
0000F0
0001F0
0003F0
0003F0
0007F0
0007F0
000FF0
000FF0
001FF0
003FF0
003FF0
007FF0
00FFF8
00FFF8
01E7F8
03E3F8
03C3F8
078FF8
0FFFF8
0FFFF8
1FFFFC
1F87FC
3F07FC
7F07FC
7E07FE
FE07FE
F00000
ENDCHAR
STARTCHAR 0227
ENCODING 551
SWIDTH 617 0
DWIDTH 24 0
BBX 23 32 1 -1
BITMAP
000070
0000F0
0000F0
000060
000000
0000F0
0001F0
0003F0
0003F0
0007F0
0007F0
000FF0
000FF0
001FF0
003FF0
003FF0
007FF0
00FFF8
00FFF8
01E7F8
03E3F8
03C3F8
078FF8
0FFFF8
0FFFF8
1FFFFC
1F87FC
3F07FC
7F07FC
7E07FE
FE07FE
F00000
ENDCHAR
STARTCHAR 0228
ENCODING 552
SWIDTH 488 0
DWIDTH 19 0
BBX 15 34 5 -7
BITMAP
0FFC
3FFE
7FFE
7FFC
7FFC
7FF8
7FF8
7FF8
7F00
7E00
7F00
7FF0
7FF0
7FF0
7FF0
7E00
7E04
7FFC
FFFC
7FFC
7FFC
FFFC
FFFC
FFFC
FFF8
FF80
F780
0780
07C0
03E0
61E0
7FE0
7FC0
0400
ENDCHAR
STARTCHAR 0229
ENCODING 553
SWIDTH 488 0
DWIDTH 19 0
BBX 15 34 5 -7
BITMAP
0FFC
3FFE
7FFE
7FFC
7FFC
7FF8
7FF8
7FF8
7F00
7E00
7F00
7FF0
7FF0
7FF0
7FF0
7E00
7E04
7FFC
FFFC
7FFC
7FFC
FFFC
FFFC
FFFC
FFF8
FF80
F780
0780
07C0
03E0
61E0
7FE0
7FC0
0400
ENDCHAR
STARTCHAR 022A
ENCODING 554
SWIDTH 514 0
DWIDTH 20 0
BBX 20 35 3 0
BITMAP
01FFC0
03FFC0
03FF80
000000
038600
03CF00
078F00
030E00
007800
00FC00
01FF00
03FF80
07FFC0
07FFC0
0FFFE0
1FFFE0
1FFFF0
3FFFF0
3F8FF0
7F87F0
7F07F0
FF07F0
FF0FF0
FF0FF0
FF9FE0
FFFFE0
FFFFE0
FFFFC0
FFFFC0
FFFF80
7FFF80
7FFF00
3FFE00
1FFC00
07F000
ENDCHAR
STARTCHAR 022B
ENCODING 555
SWIDTH 514 0
DWIDTH 20 0
BBX 20 35 3 0
BITMAP
01FFC0
03FFC0
03FF80
000000
038600
03CF00
078F00
030E00
007800
00FC00
01FF00
03FF80
07FFC0
07FFC0
0FFFE0
1FFFE0
1FFFF0
3FFFF0
3F8FF0
7F87F0
7F07F0
FF07F0
FF0FF0
FF0FF0
FF9FE0
FFFFE0
FFFFE0
FFFFC0
FFFFC0
FFFF80
7FFF80
7FFF00
3FFE00
1FFC00
07F000
ENDCHAR
STARTCHAR 022C
ENCODING 556
SWIDTH 514 0
DWIDTH 20 0
BBX 20 35 3 0
BITMAP
03FFC0
03FF80
03FE80
000000
03E780
07FF80
07FE00
000000
007800
00FC00
01FF00
03FF80
07FFC0
07FFC0
0FFFE0
1FFFE0
1FFFF0
3FFFF0
3F8FF0
7F87F0
7F07F0
FF07F0
FF0FF0
FF0FF0
FF9FE0
FFFFE0
FFFFE0
FFFFC0
FFFFC0
FFFF80
7FFF80
7FFF00
3FFE00
1FFC00
07F000
ENDCHAR
STARTCHAR 022D
ENCODING 557
SWIDTH 514 0
DWIDTH 20 0
BBX 20 35 3 0
BITMAP
03FFC0
03FF80
03FE80
000000
03E780
07FF80
07FE00
000000
007800
00FC00
01FF00
03FF80
07FFC0
07FFC0
0FFFE0
1FFFE0
1FFFF0
3FFFF0
3F8FF0
7F87F0
7F07F0
FF07F0
FF0FF0
FF0FF0
FF9FE0
FFFFE0
FFFFE0
FFFFC0
FFFFC0
FFFF80
7FFF80
7FFF00
3FFE00
1FFC00
07F000
ENDCHAR
STARTCHAR 022E
ENCODING 558
SWIDTH 514 0
DWIDTH 20 0
BBX 20 32 3 0
BITMAP
007000
007800
00F000
007000
000000
007800
00FC00
01FF00
03FF80
07FFC0
07FFC0
0FFFE0
1FFFE0
1FFFF0
3FFFF0
3F8FF0
7F87F0
7F07F0
FF07F0
FF0FF0
FF0FF0
FF9FE0
FFFFE0
FFFFE0
FFFFC0
FFFFC0
FFFF80
7FFF80
7FFF00
3FFE00
1FFC00
07F000
ENDCHAR
STARTCHAR 022F
ENCODING 559
SWIDTH 514 0
DWIDTH 20 0
BBX 20 32 3 0
BITMAP
007000
007800
00F000
007000
000000
007800
00FC00
01FF00
03FF80
07FFC0
07FFC0
0FFFE0
1FFFE0
1FFFF0
3FFFF0
3F8FF0
7F87F0
7F07F0
FF07F0
FF0FF0
FF0FF0
FF9FE0
FFFFE0
FFFFE0
FFFFC0
FFFFC0
FFFF80
7FFF80
7FFF00
3FFE00
1FFC00
07F000
ENDCHAR
STARTCHAR 0230
ENCODING 560
SWIDTH 514 0
DWIDTH 20 0
BBX 20 35 3 0
BITMAP
03FFC0
03FF80
03FE80
001000
007800
007800
007000
000000
007800
00FC00
01FF00
03FF80
07FFC0
07FFC0
0FFFE0
1FFFE0
1FFFF0
3FFFF0
3F8FF0
7F87F0
7F07F0
FF07F0
FF0FF0
FF0FF0
FF9FE0
FFFFE0
FFFFE0
FFFFC0
FFFFC0
FFFF80
7FFF80
7FFF00
3FFE00
1FFC00
07F000
ENDCHAR
STARTCHAR 0231
ENCODING 561
SWIDTH 514 0
DWIDTH 20 0
BBX 20 35 3 0
BITMAP
03FFC0
03FF80
03FE80
001000
007800
007800
007000
000000
007800
00FC00
01FF00
03FF80
07FFC0
07FFC0
0FFFE0
1FFFE0
1FFFF0
3FFFF0
3F8FF0
7F87F0
7F07F0
FF07F0
FF0FF0
FF0FF0
FF9FE0
FFFFE0
FFFFE0
FFFFC0
FFFFC0
FFFF80
7FFF80
7FFF00
3FFE00
1FFC00
07F000
ENDCHAR
STARTCHAR 0232
ENCODING 562
SWIDTH 591 0
DWIDTH 23 0
BBX 23 31 6 0
BITMAP
01FFC0
01FFC0
03FFC0
000000
000026
0400FC
7E00FC
FE01F8
FE03F0
FF07F0
FF07E0
7F0FC0
7F1FC0
7F3F80
3FBF00
3FFF00
3FFE00
3FFC00
1FFC00
1FF800
1FF000
0FF000
0FE000
0FC000
0FC000
0FC000
0FC000
0FC000
1FC000
1FC000
1F0000
ENDCHAR
STARTCHAR 0233
ENCODING 563
SWIDTH 591 0
DWIDTH 23 0
BBX 23 31 6 0
BITMAP
01FFC0
01FFC0
03FFC0
000000
000026
0400FC
7E00FC
FE01F8
FE03F0
FF07F0
FF07E0
7F0FC0
7F1FC0
7F3F80
3FBF00
3FFF00
3FFE00
3FFC00
1FFC00
1FF800
1FF000
0FF000
0FE000
0FC000
0FC000
0FC000
0FC000
0FC000
1FC000
1FC000
1F0000
ENDCHAR
STARTCHAR 0241
ENCODING 577
SWIDTH 462 0
DWIDTH 18 0
BBX 17 27 5 0
BITMAP
0FFE00
1FFF80
3FFF80
7FFF80
7FFF80
FFFF80
F83F80
603F80
003F00
003F00
003F00
007E00
00FE00
03FC00
0FF800
1FE000
3FC000
3F8000
3F0000
7E0000
7E0000
7E0000
7E0000
7E0000
FC0000
FC0000
FC0000
ENDCHAR
STARTCHAR 0242
ENCODING 578
SWIDTH 462 0
DWIDTH 18 0
BBX 17 27 5 0
BITMAP
0FFE00
1FFF80
3FFF80
7FFF80
7FFF80
FFFF80
F83F80
603F80
003F00
003F00
003F00
007E00
00FE00
03FC00
0FF800
1FE000
3FC000
3F8000
3F0000
7E0000
7E0000
7E0000
7E0000
7E0000
FC0000
FC0000
FC0000
ENDCHAR
STARTCHAR 0243
ENCODING 579
SWIDTH 514 0
DWIDTH 20 0
BBX 19 27 2 0
BITMAP
01E800
07FF80
0FFFC0
0FFFC0
0FFFC0
1FFFE0
1FCFE0
0FC7E0
0FC7C0
0FC7C0
1FCF80
1FDF80
1FFE00
1FFF00
1FFFC0
1FFFE0
1FC7E0
1FF7E0
FFF7E0
FFF7E0
FFEFE0
FFFFC0
3FFFC0
3FFF00
3FFE00
3FF800
1E0000
ENDCHAR
STARTCHAR 0244
ENCODING 580
SWIDTH 565 0
DWIDTH 22 0
BBX 23 26 4 1
BITMAP
020000
07E0FE
07E0FC
0FC0FC
0FC0FC
1F80FC
7FFFFC
7FFFFC
7FFFFC
FFFFFC
FFFFF8
7F03F8
FF07F0
FF07F0
FF07F0
FFCFE0
FFFFE0
FFFFC0
FFFFC0
FFFF80
FFFF80
FFFF00
7FFE00
7FFC00
3FF800
1FE000
ENDCHAR
STARTCHAR 0253
ENCODING 595
SWIDTH 668 0
DWIDTH 26 0
BBX 24 27 4 0
BITMAP
001E80
03FFF8
0FFFFC
1FFFFC
1FFFFC
3FFFFE
7FFEFE
7EFC7E
78FC3C
F8FC7C
F9FC78
F9FDF8
FDFFE0
7DFFF8
7DFFFC
7DFFFE
7DFC7E
01FC7E
01FC7F
03FCFE
03FDFE
03FFFC
03FFFC
03FFF0
03FFE0
03FF80
01E000
ENDCHAR
STARTCHAR 0254
ENCODING 596
SWIDTH 488 0
DWIDTH 19 0
BBX 20 26 2 0
BITMAP
01FE00
07FF80
0FFFC0
1FFFE0
1FFFF0
1FFFF0
1FFFF0
003FF0
001FF0
000FF0
000FF0
000FF0
000FE0
001FE0
3C7FE0
7FFFE0
7FFFC0
7FFFC0
7FFF80
7FFF80
FFFF00
FFFE00
7FFE00
3FFC00
1FE000
040000
ENDCHAR
STARTCHAR 0256
ENCODING 598
SWIDTH 488 0
DWIDTH 19 0
BBX 19 27 3 0
BITMAP
018000
07F800
0FFF00
0FFF80
0FFF80
1FFFC0
1FFFC0
1FFFE0
1FC7E0
1FF3E0
7FF3E0
FFF3E0
FFF7E0
FFF7C0
FF8FC0
FF9F80
3FFF00
3FFF00
3FFE00
3FFC00
3FF800
3FF000
3FE000
3FC000
3F0000
3C0000
300000
ENDCHAR
STARTCHAR 0257
ENCODING 599
SWIDTH 617 0
DWIDTH 24 0
BBX 24 27 4 0
BITMAP
001800
03FFC0
0FFFF0
1FFFF8
1FFFFC
3FFFFC
7FFFFE
7EFFFE
79FE3E
F9FC1F
F9FC1F
F9FC3E
FDFC3E
7DFC7E
7DFCFC
7DFDF8
7DFFF8
01FFF0
01FFE0
01FFE0
01FFC0
01FF80
01FF00
01FE00
01F800
01E000
010000
ENDCHAR
STARTCHAR 0259
ENCODING 601
SWIDTH 488 0
DWIDTH 19 0
BBX 18 27 3 0
BITMAP
006400
03FE00
0FFF00
1FFF80
1FFF80
1FFFC0
1E3FC0
000FC0
0007C0
0007C0
0007C0
7FFFC0
7FFFC0
7FFFC0
7FFFC0
7FDFC0
FE1F80
FE1F80
FE7F80
FFFF80
FFFF80
FFFF00
FFFF00
7FFE00
3FFC00
1FF000
006000
ENDCHAR
STARTCHAR 025B
ENCODING 603
SWIDTH 488 0
DWIDTH 19 0
BBX 19 27 3 0
BITMAP
00FE00
03FF80
07FFC0
0FFFE0
1FFFE0
1FE040
3FC000
3F8000
3F8000
3F0000
3F8000
3FFE00
1FFE00
1FFE00
1FFE00
3FF000
3F8000
7F0000
7E0000
7E0000
FF0780
FFFF80
FFFF00
7FFF00
7FFE00
3FFC00
0FE000
ENDCHAR
STARTCHAR 0260
ENCODING 608
SWIDTH 488 0
DWIDTH 19 0
BBX 24 33 2 0
BITMAP
00007F
0000FF
0001FF
0003FE
0007FE
0007F0
000FF0
003FF0
007FF0
00FFF8
01FFF8
03FFF8
03F9E0
07E000
07C000
0F8000
0F8000
1F0070
1F0FF0
3E1FF0
3E1FE0
3E1FE0
7E1FE0
7E1FE0
FF3FE0
FFFFC0
FFFFC0
FFFF80
FFFF00
7FFC00
7FF000
3FC000
080000
ENDCHAR
STARTCHAR 0263
ENCODING 611
SWIDTH 591 0
DWIDTH 23 0
BBX 22 31 6 -5
BITMAP
FE0040
FC00F8
FC01FC
FC03FC
FC03F8
7C07F0
7E07F0
7E0FE0
7E1FC0
7E1FC0
7E3F80
3F3F00
3F7F00
3F7E00
1FFC00
1FFC00
0FF800
0FF000
1FE000
3FF000
3FF000
7DF000
F9F000
F1F000
F1E000
F1E000
FBE000
FFC000
FF8000
7F0000
3C0000
ENDCHAR
STARTCHAR 0268
ENCODING 616
SWIDTH 360 0
DWIDTH 14 0
BBX 17 26 1 0
BITMAP
007F80
00FF80
00FF00
00FF00
00FF00
01FE00
01FE00
01FE00
03FC00
03FC00
03FE00
1FFF00
3FFE00
3FFE00
3FFE00
0FF800
0FF800
0FF000
1FF000
1FF000
1FF000
1FE000
3FE000
3FE000
7FC000
F80000
ENDCHAR
STARTCHAR 0272
ENCODING 626
SWIDTH 565 0
DWIDTH 22 0
BBX 30 31 -3 -5
BITMAP
000780F8
001FE3FC
001FE3F8
001FE3F8
003FE7F8
003FC7F0
007FC7F0
007FEFF0
007FEFE0
00FFEFE0
00FFEFE0
00FFEFC0
01FFFFC0
01FFFFC0
01FFFFC0
01FDFF80
03FDFF80
03FDFF80
03F9FF00
03F9FF00
07F9FF00
07F0FF00
07F0FE00
0FF1FE00
0FE1FE00
1FE00000
7FC00000
FFC00000
FF800000
FE000000
F8000000
ENDCHAR
STARTCHAR 0278
ENCODING 632
SWIDTH 642 0
DWIDTH 25 0
BBX 26 31 3 -2
BITMAP
0007F000
000FF000
000FF000
000FF000
03FFFF80
07FFFF80
0FFFFFC0
1FFFFFC0
1FFFFFC0
3FFFFFC0
3FDFFFC0
3FBFBFC0
7F3FBFC0
7F3FBF80
7E3F3F80
FE7F3F80
FE7F3F80
FE7E7F00
FEFE7F00
FFFCFE00
FFFDFE00
FFFFFC00
FFFFF800
FFFFF000
FFFFE000
FFFFC000
7BFF8000
03F20000
07E00000
07E00000
07800000
ENDCHAR
STARTCHAR 0289
ENCODING 649
SWIDTH 565 0
DWIDTH 22 0
BBX 23 26 4 1
BITMAP
020000
07E0FE
07E0FC
0FC0FC
0FC0FC
1F80FC
7FFFFC
7FFFFC
7FFFFC
FFFFFC
FFFFF8
7F03F8
FF07F0
FF07F0
FF07F0
FFCFE0
FFFFE0
FFFFC0
FFFFC0
FFFF80
FFFF80
FFFF00
7FFE00
7FFC00
3FF800
1FE000
ENDCHAR
STARTCHAR 028B
ENCODING 651
SWIDTH 540 0
DWIDTH 21 0
BBX 21 26 4 1
BITMAP
000700
3E3F80
3E1FC0
3E1FE0
7E0FE0
7E07F0
7E07F0
7E07F0
7E03F8
FE03F8
FE03F8
FE07F0
FE07F0
FE07F0
FF0FF0
FF1FF0
FFFFE0
FFFFE0
FFFFE0
7FFFC0
7FFFC0
7FFF80
3FFF00
3FFE00
1FFC00
0FF000
ENDCHAR
STARTCHAR 0292
ENCODING 658
SWIDTH 488 0
DWIDTH 19 0
BBX 20 28 2 -1
BITMAP
001C00
07FFF0
07FFF0
07FFF0
07FFE0
0003C0
000F80
001F00
007E00
00FE00
03FF80
07FFC0
0FFFC0
0FFFC0
020FC0
0007E0
0003E0
0003E0
0003E0
E007C0
FE0FC0
FFFFC0
FFFF80
FFFF00
FFFE00
3FFC00
1FF000
004000
ENDCHAR
STARTCHAR 0294
ENCODING 660
SWIDTH 462 0
DWIDTH 18 0
BBX 17 27 5 0
BITMAP
0FFE00
1FFF80
3FFF80
7FFF80
7FFF80
FFFF80
F83F80
603F80
003F00
003F00
003F00
007E00
00FE00
03FC00
0FF800
1FE000
3FC000
3F8000
3F0000
7E0000
7E0000
7E0000
7E0000
7E0000
FC0000
FC0000
FC0000
ENDCHAR
STARTCHAR 0295
ENCODING 661
SWIDTH 462 0
DWIDTH 18 0
BBX 18 27 4 0
BITMAP
03FF00
1FFF80
1FFFC0
3FFFC0
3FFFC0
7FFFC0
7F0780
7E0300
7E0000
FE0000
FE0000
FE0000
FF0000
7F8000
7FE000
1FE000
0FE000
0FE000
07E000
07E000
07E000
0FC000
0FC000
0FC000
0FC000
0FC000
0F8000
ENDCHAR
STARTCHAR 0296
ENCODING 662
SWIDTH 462 0
DWIDTH 18 0
BBX 18 27 2 0
BITMAP
007C00
00FC00
00FC00
00FC00
00FC00
01F800
01F800
01F800
01F800
03FC00
03FE00
01FF00
00FF80
007F80
001FC0
001FC0
001FC0
001F80
001F80
701F80
FC3F80
FFFF80
FFFF00
FFFF00
FFFE00
7FFC00
3FC000
ENDCHAR
STARTCHAR 02B9
ENCODING 697
SWIDTH 205 0
DWIDTH 8 0
BBX 9 14 4 14
BITMAP
0780
0F80
0F80
0F00
1F00
1E00
3E00
3C00
7C00
7800
7000
F000
F000
6000
ENDCHAR
STARTCHAR 02BA
ENCODING 698
SWIDTH 385 0
DWIDTH 15 0
BBX 17 14 4 14
BITMAP
078F80
0F8F00
0F9F00
0F1F00
1F3E00
1E3C00
3E7C00
3C7800
7C7800
78F000
70F000
F0E000
F1E000
60C000
ENDCHAR
STARTCHAR 02BB
ENCODING 699
SWIDTH 205 0
DWIDTH 8 0
BBX 9 14 4 14
BITMAP
0700
0780
0F80
1F80
1F00
3F00
3F00
7E00
7E00
7E00
FE00
FC00
FC00
7800
ENDCHAR
STARTCHAR 02BC
ENCODING 700
SWIDTH 205 0
DWIDTH 8 0
BBX 9 14 4 14
BITMAP
0F80
1F80
1F80
1F80
3F80
3F00
3F00
7E00
7E00
7C00
FC00
7800
7000
2000
ENDCHAR
STARTCHAR 02BD
ENCODING 701
SWIDTH 205 0
DWIDTH 8 0
BBX 6 14 6 14
BITMAP
7C
FC
FC
FC
FC
FC
FC
FC
F8
F8
F8
F8
70
40
ENDCHAR
STARTCHAR 02C6
ENCODING 710
SWIDTH 308 0
DWIDTH 12 0
BBX 11 6 7 28
BITMAP
0300
0F80
3FC0
7FE0
FFE0
F1E0
ENDCHAR
STARTCHAR 02C7
ENCODING 711
SWIDTH 308 0
DWIDTH 12 0
BBX 11 6 8 28
BITMAP
2000
F1E0
FFE0
FFC0
7F00
3E00
ENDCHAR
STARTCHAR 02C8
ENCODING 712
SWIDTH 102 0
DWIDTH 4 0
BBX 4 7 7 27
BITMAP
70
70
F0
E0
E0
E0
E0
ENDCHAR
STARTCHAR 02C9
ENCODING 713
SWIDTH 308 0
DWIDTH 12 0
BBX 12 3 7 28
BITMAP
FFF0
FFE0
FFE0
ENDCHAR
STARTCHAR 02CA
ENCODING 714
SWIDTH 231 0
DWIDTH 9 0
BBX 8 6 7 28
BITMAP
0F
1F
3E
7C
F8
F0
ENDCHAR
STARTCHAR 02CB
ENCODING 715
SWIDTH 231 0
DWIDTH 9 0
BBX 6 6 8 28
BITMAP
F8
F8
FC
7C
3C
3C
ENDCHAR
STARTCHAR 02CC
ENCODING 716
SWIDTH 102 0
DWIDTH 4 0
BBX 4 7 0 -7
BITMAP
70
F0
E0
E0
E0
E0
60
ENDCHAR
STARTCHAR 02CD
ENCODING 717
SWIDTH 308 0
DWIDTH 12 0
BBX 12 3 0 -5
BITMAP
FFF0
FFE0
FFE0
ENDCHAR
STARTCHAR 02D0
ENCODING 720
SWIDTH 205 0
DWIDTH 8 0
BBX 10 19 1 0
BITMAP
0FC0
1FC0
1FC0
1F80
0F80
0F00
0600
0400
0000
0000
0000
0800
1C00
3C00
3C00
7E00
7E00
FE00
FE00
ENDCHAR
STARTCHAR 02D1
ENCODING 721
SWIDTH 205 0
DWIDTH 8 0
BBX 7 8 4 11
BITMAP
7E
FE
FE
FC
7C
78
30
20
ENDCHAR
STARTCHAR 02D8
ENCODING 728
SWIDTH 308 0
DWIDTH 12 0
BBX 11 5 8 28
BITMAP
E1E0
F3E0
FFC0
FF80
7F00
ENDCHAR
STARTCHAR 02D9
ENCODING 729
SWIDTH 128 0
DWIDTH 5 0
BBX 4 4 7 27
BITMAP
70
F0
F0
60
ENDCHAR
STARTCHAR 02DA
ENCODING 730
SWIDTH 308 0
DWIDTH 12 0
BBX 11 11 7 23
BITMAP
0200
1FC0
7FE0
F9E0
F1E0
E1E0
E1E0
F3C0
FF80
7F00
1C00
ENDCHAR
STARTCHAR 02DB
ENCODING 731
SWIDTH 282 0
DWIDTH 11 0
BBX 10 10 0 -7
BITMAP
0400
0C00
1C00
3800
7000
F000
FBC0
FFC0
FFC0
0400
ENDCHAR
STARTCHAR 02DC
ENCODING 732
SWIDTH 308 0
DWIDTH 12 0
BBX 12 5 7 28
BITMAP
3CF0
7FF0
FFE0
FFE0
EF80
ENDCHAR
STARTCHAR 02DD
ENCODING 733
SWIDTH 411 0
DWIDTH 16 0
BBX 15 6 7 28
BITMAP
0F3E
1F3E
3E7C
7CF8
F9F0
F1E0
ENDCHAR
STARTCHAR 0300
ENCODING 768
SWIDTH 0 0
DWIDTH 0 0
BBX 7 6 -9 28
BITMAP
F8
F8
7C
7C
3E
1E
ENDCHAR
STARTCHAR 0301
ENCODING 769
SWIDTH 0 0
DWIDTH 0 0
BBX 9 6 -5 28
BITMAP
0F80
1F80
3E00
7C00
7800
F000
ENDCHAR
STARTCHAR 0302
ENCODING 770
SWIDTH 0 0
DWIDTH 0 0
BBX 11 6 -10 28
BITMAP
0200
0F80
3FC0
7FE0
FFE0
F1E0
ENDCHAR
STARTCHAR 0303
ENCODING 771
SWIDTH 0 0
DWIDTH 0 0
BBX 12 5 -10 28
BITMAP
38F0
7FF0
FFE0
FFE0
EF80
ENDCHAR
STARTCHAR 0304
ENCODING 772
SWIDTH 0 0
DWIDTH 0 0
BBX 11 3 -10 28
BITMAP
FFE0
FFE0
FFE0
ENDCHAR
STARTCHAR 0305
ENCODING 773
SWIDTH 0 0
DWIDTH 0 0
BBX 15 5 -12 27
BITMAP
7FFE
7FFE
7FFC
FFFC
7FE8
ENDCHAR
STARTCHAR 0306
ENCODING 774
SWIDTH 0 0
DWIDTH 0 0
BBX 12 5 -10 28
BITMAP
F070
F9E0
7FE0
7FC0
3F80
ENDCHAR
STARTCHAR 0307
ENCODING 775
SWIDTH 0 0
DWIDTH 0 0
BBX 5 4 -7 27
BITMAP
78
F8
F0
60
ENDCHAR
STARTCHAR 0308
ENCODING 776
SWIDTH 0 0
DWIDTH 0 0
BBX 11 5 -10 27
BITMAP
3000
F1E0
F1E0
F1E0
4180
ENDCHAR
STARTCHAR 030A
ENCODING 778
SWIDTH 0 0
DWIDTH 0 0
BBX 12 9 -10 26
BITMAP
0FC0
3FE0
79F0
F0F0
F0F0
F1E0
FFC0
7F80
1E00
ENDCHAR
STARTCHAR 030B
ENCODING 779
SWIDTH 0 0
DWIDTH 0 0
BBX 15 6 -9 28
BITMAP
0F3E
1F3E
3E7C
7CF8
F9F0
F1E0
ENDCHAR
STARTCHAR 030C
ENCODING 780
SWIDTH 0 0
DWIDTH 0 0
BBX 12 6 -10 28
BITMAP
1000
F9F0
FBE0
7FC0
3F80
1F00
ENDCHAR
STARTCHAR 030D
ENCODING 781
SWIDTH 0 0
DWIDTH 0 0
BBX 5 7 -7 27
BITMAP
38
78
78
70
70
70
E0
ENDCHAR
STARTCHAR 0311
ENCODING 785
SWIDTH 0 0
DWIDTH 0 0
BBX 11 5 -10 28
BITMAP
1F80
7FC0
7FE0
F3E0
E1E0
ENDCHAR
STARTCHAR 0323
ENCODING 803
SWIDTH 0 0
DWIDTH 0 0
BBX 4 4 -14 -6
BITMAP
70
F0
F0
F0
ENDCHAR
STARTCHAR 0326
ENCODING 806
SWIDTH 0 0
DWIDTH 0 0
BBX 6 7 -15 -7
BITMAP
30
7C
FC
F8
F0
E0
40
ENDCHAR
STARTCHAR 0327
ENCODING 807
SWIDTH 0 0
DWIDTH 0 0
BBX 11 10 -18 -7
BITMAP
0780
0780
0F80
0F80
07C0
03E0
61E0
FFE0
7FC0
0400
ENDCHAR
STARTCHAR 0328
ENCODING 808
SWIDTH 0 0
DWIDTH 0 0
BBX 10 9 -16 -6
BITMAP
0400
0C00
1C00
3800
7000
F000
FFC0
FFC0
FFC0
ENDCHAR
STARTCHAR 0329
ENCODING 809
SWIDTH 0 0
DWIDTH 0 0
BBX 5 6 -14 -7
BITMAP
78
70
70
70
70
F0
ENDCHAR
STARTCHAR 0331
ENCODING 817
SWIDTH 0 0
DWIDTH 0 0
BBX 12 3 -17 -5
BITMAP
FFF0
FFE0
FFE0
ENDCHAR
STARTCHAR 0342
ENCODING 834
SWIDTH 0 0
DWIDTH 0 0
BBX 12 5 -10 28
BITMAP
38F0
7FF0
FFE0
FFE0
EF80
ENDCHAR
STARTCHAR 0344
ENCODING 836
SWIDTH 0 0
DWIDTH 0 0
BBX 11 8 -10 27
BITMAP
01C0
0380
0700
0600
71E0
F1E0
F1C0
6080
ENDCHAR
STARTCHAR 0345
ENCODING 837
SWIDTH 0 0
DWIDTH 0 0
BBX 7 7 -13 -7
BITMAP
F0
E0
E0
F0
FE
FC
30
ENDCHAR
STARTCHAR 0374
ENCODING 884
SWIDTH 205 0
DWIDTH 8 0
BBX 8 6 5 22
BITMAP
0F
1F
3E
3C
78
F0
ENDCHAR
STARTCHAR 0375
ENCODING 885
SWIDTH 205 0
DWIDTH 8 0
BBX 9 7 -1 -7
BITMAP
0780
0F00
1E00
3E00
7C00
F800
F000
ENDCHAR
STARTCHAR 037A
ENCODING 890
SWIDTH 205 0
DWIDTH 8 0
BBX 7 7 0 -7
BITMAP
70
F0
E0
F0
FE
7C
30
ENDCHAR
STARTCHAR 037B
ENCODING 891
SWIDTH 488 0
DWIDTH 19 0
BBX 20 26 2 0
BITMAP
01FE00
07FF80
0FFFC0
1FFFE0
1FFFF0
1FFFF0
1FFFF0
003FF0
001FF0
000FF0
000FF0
000FF0
000FE0
001FE0
3C7FE0
7FFFE0
7FFFC0
7FFFC0
7FFF80
7FFF80
FFFF00
FFFE00
7FFE00
3FFC00
1FE000
040000
ENDCHAR
STARTCHAR 037E
ENCODING 894
SWIDTH 205 0
DWIDTH 8 0
BBX 11 25 0 -7
BITMAP
03C0
07E0
0FE0
0FE0
0FE0
0FC0
0780
0000
0000
0000
0000
0000
0F00
1F80
3F80
3F00
3F00
3F00
7E00
7E00
7C00
FC00
F800
F800
7000
ENDCHAR
STARTCHAR 037F
ENCODING 895
SWIDTH 437 0
DWIDTH 17 0
BBX 20 26 2 0
BITMAP
000FF0
001FF0
001FF0
003FF0
003FE0
003FE0
007FE0
007FE0
007FE0
007FE0
007FE0
00FFC0
00FFC0
00FFC0
007FC0
007F80
007F80
3C7F80
FC7F00
FEFF00
FEFE00
FFFE00
FFFC00
7FF800
3FE000
0FC000
ENDCHAR
STARTCHAR 0384
ENCODING 900
SWIDTH 154 0
DWIDTH 6 0
BBX 7 6 5 22
BITMAP
1E
1E
3C
78
70
E0
ENDCHAR
STARTCHAR 0385
ENCODING 901
SWIDTH 308 0
DWIDTH 12 0
BBX 11 8 7 27
BITMAP
01C0
0380
0700
0E00
71C0
F3E0
F3C0
6080
ENDCHAR
STARTCHAR 0386
ENCODING 902
SWIDTH 617 0
DWIDTH 24 0
BBX 23 29 1 -1
BITMAP
001E00
003C00
0038F0
0079F0
0073F0
00E3F0
0007F0
0007F0
000FF0
000FF0
001FF0
003FF0
003FF0
007FF0
00FFF8
00FFF8
01E7F8
03E3F8
03C3F8
078FF8
0FFFF8
0FFFF8
1FFFFC
1F87FC
3F07FC
7F07FC
7E07FE
FE07FE
F00000
ENDCHAR
STARTCHAR 0387
ENCODING 903
SWIDTH 205 0
DWIDTH 8 0
BBX 7 7 4 12
BITMAP
3C
7E
FE
FE
FE
FC
78
ENDCHAR
STARTCHAR 0388
ENCODING 904
SWIDTH 565 0
DWIDTH 22 0
BBX 19 28 5 0
BITMAP
1C0000
3CFFC0
7FFFE0
77FFC0
E7FFC0
E7FF80
07FF80
07FF80
07FF00
07F000
07E000
07E000
07FF00
07FE00
07FE00
07FE00
0FE000
0FE000
0FFFC0
0FFFC0
0FFFC0
0FFFC0
0FFFC0
0FFFC0
0FFFC0
0FFF00
0FF000
0F0000
ENDCHAR
STARTCHAR 0389
ENCODING 905
SWIDTH 591 0
DWIDTH 23 0
BBX 25 27 3 1
BITMAP
07000000
0F000000
1E7F0000
1DFE1F80
39FC3F80
39FE3F80
01FC3F00
03FC7F00
03FC7F00
03FC7F00
07F8FE00
07FDFE00
07FFFE00
0FFFFC00
0FFFFC00
0FFFFC00
1FFFFC00
1FFFFC00
1FFFFC00
1FE3F800
3FE7F800
3FC7F800
3FC7F000
7FC7F000
7FCFF000
7F8FE000
FF8F8000
ENDCHAR
STARTCHAR 038A
ENCODING 906
SWIDTH 360 0
DWIDTH 14 0
BBX 17 28 3 0
BITMAP
070000
0F0000
1EFF80
1CFF00
38FF00
39FE00
01FE00
03FE00
03FC00
03FC00
07FC00
07F800
07F800
07F800
0FF800
0FF000
0FF000
1FF000
1FF000
1FF000
1FE000
3FE000
3FE000
3FC000
3FC000
7FC000
7F8000
F00000
ENDCHAR
STARTCHAR 038C
ENCODING 908
SWIDTH 540 0
DWIDTH 21 0
BBX 20 28 4 0
BITMAP
0E0000
1EF000
3DFC00
39FE00
73FF80
77FF80
0FFFC0
0FFFC0
1FFFE0
3FFFE0
3FFFE0
7F8FF0
7F07F0
FF0FF0
FE0FF0
FE0FF0
FE1FE0
FF1FE0
FFFFE0
FFFFC0
FFFFC0
FFFF80
FFFF80
FFFF00
7FFF00
7FFE00
1FF800
0FF000
ENDCHAR
STARTCHAR 038E
ENCODING 910
SWIDTH 668 0
DWIDTH 26 0
BBX 27 28 5 0
BITMAP
1C000000
3C000260
78400FC0
77E00FC0
EFE01F80
EFE03F80
0FF03F00
0FF07E00
07F0FC00
07F1FC00
07F9F800
03FBF000
03FFF000
03FFE000
03FFC000
01FFC000
01FF8000
01FF0000
00FF0000
00FE0000
00FE0000
00FC0000
00FC0000
00FC0000
00FC0000
00FC0000
01FC0000
01F00000
ENDCHAR
STARTCHAR 038F
ENCODING 911
SWIDTH 642 0
DWIDTH 25 0
BBX 26 28 2 0
BITMAP
03800000
079FF000
0F7FFC00
0EFFFE00
1DFFFF00
1FFFFF80
03FFFF80
07FFFF80
07FFFFC0
0FF03FC0
0FE01FC0
0FC01F80
0FC01F80
1F801F80
1F801F80
1F801F80
1F801F00
1F803F00
0F803E00
0FC07E00
0FC0FC00
0FC1F800
7FE3FF00
7FE3FE00
7FC3FE00
FFC3FE00
FFC7FE00
FFC7FE00
ENDCHAR
STARTCHAR 0390
ENCODING 912
SWIDTH 334 0
DWIDTH 13 0
BBX 19 35 1 0
BITMAP
0001C0
0003C0
000780
000700
0071E0
00F1E0
00F1C0
006080
000000
00FF80
00FF00
00FF00
01FE00
01FE00
01FE00
03FC00
03FC00
03FC00
07FC00
07F800
07F800
0FF800
0FF800
0FF000
0FF000
1FF000
1FF000
1FF000
1FE000
3FE000
3FC000
3FC000
7FC000
7F8000
F80000
ENDCHAR
STARTCHAR 0391
ENCODING 913
SWIDTH 617 0
DWIDTH 24 0
BBX 23 27 1 -1
BITMAP
0000F0
0001F0
0003F0
0003F0
0007F0
0007F0
000FF0
000FF0
001FF0
003FF0
003FF0
007FF0
00FFF8
00FFF8
01E7F8
03E3F8
03C3F8
078FF8
0FFFF8
0FFFF8
1FFFFC
1F87FC
3F07FC
7F07FC
7E07FE
FE07FE
F00000
ENDCHAR
STARTCHAR 0392
ENCODING 914
SWIDTH 514 0
DWIDTH 20 0
BBX 17 27 4 0
BITMAP
07A000
1FFE00
3FFF00
3FFF00
3FFF00
7FFF80
7F3F80
7F1F80
3F1F00
3F1F00
7F3E00
7F7E00
7FF800
7FFC00
7FFF00
7FFF80
7F1F80
7F1F80
FF1F80
FF3F80
FF7F80
FFFF00
FFFF00
FFFC00
FFF800
FFE000
780000
ENDCHAR
STARTCHAR 0393
ENCODING 915
SWIDTH 488 0
DWIDTH 19 0
BBX 22 27 2 0
BITMAP
007FFC
07FFFC
0FFFFC
0FFFFC
1FFFFC
1FFFFC
1FE000
1FC000
1FC000
3F8000
3F8000
3F8000
3F8000
3F0000
7F0000
7F0000
7F0000
7F0000
FE0000
FE0000
FE0000
FE0000
FE0000
FE0000
FE0000
FE0000
F80000
ENDCHAR
STARTCHAR 0394
ENCODING 916
SWIDTH 565 0
DWIDTH 22 0
BBX 22 26 1 0
BITMAP
0001F8
0003F8
0007F8
000FF8
001FF8
001FF8
003FF8
007FF8
007FF8
00FFF8
01FFF8
01FDF8
03F9F8
07F9F8
07F1F8
0FF3F8
0FE3FC
1FE3FC
3FC3FC
3F83FC
7F83FC
7FFFFC
FFFFFC
FFFFFC
FFFFFC
FFFFF8
ENDCHAR
STARTCHAR 0395
ENCODING 917
SWIDTH 488 0
DWIDTH 19 0
BBX 15 27 5 0
BITMAP
0FFC
3FFE
7FFE
7FFC
7FFC
7FF8
7FF8
7FF8
7F00
7E00
7F00
7FF0
7FF0
7FF0
7FF0
7E00
7E04
7FFC
FFFC
7FFC
7FFC
FFFC
FFFC
FFFC
FFF8
FF80
F000
ENDCHAR
STARTCHAR 0396
ENCODING 918
SWIDTH 591 0
DWIDTH 23 0
BBX 20 27 5 0
BITMAP
003F00
07FFF0
1FFFE0
3FFFC0
7FFF80
FFFF00
FFFF00
E07E00
00FC00
00FC00
01F800
01F000
03F000
07E000
07E000
0FE000
0FC000
1FC000
1F8000
3F0000
3FFFE0
7FFFE0
FFFFE0
FFFFC0
FFFF80
07FE00
007000
ENDCHAR
STARTCHAR 0397
ENCODING 919
SWIDTH 540 0
DWIDTH 21 0
BBX 25 25 1 1
BITMAP
007F0000
01FE1F80
01FE3F80
01FE3F80
01FE3F80
01FC7F00
03FC7F00
03FC7F00
03FC7F00
07FDFE00
07FFFE00
07FFFE00
0FFFFC00
0FFFFC00
0FFFFC00
1FFFFC00
1FFFFC00
1FE3FC00
3FE3F800
3FE7F800
3FC7F800
3FC7F000
7FC7F000
7FC7F000
FF8F8000
ENDCHAR
STARTCHAR 0398
ENCODING 920
SWIDTH 514 0
DWIDTH 20 0
BBX 21 27 3 0
BITMAP
007E00
01FF80
07FFE0
07FFE0
0FFFF0
1FFFF0
1FFFF0
3FFFF0
3FFFF0
3FFFF8
7F87F0
7F07F0
7FFFF0
7FFFF0
FFFFF0
FFE7F0
FE0FE0
FF1FE0
7FFFC0
7FFFC0
7FFF80
7FFF80
3FFF00
3FFF00
1FFE00
0FFC00
03F800
ENDCHAR
STARTCHAR 0399
ENCODING 921
SWIDTH 334 0
DWIDTH 13 0
BBX 17 26 1 0
BITMAP
00FF80
00FF00
00FF00
01FE00
01FE00
01FE00
03FC00
03FC00
03FC00
07FC00
07F800
07F800
0FF800
0FF800
0FF000
0FF000
1FF000
1FF000
1FF000
1FE000
3FE000
3FC000
3FC000
7FC000
7F8000
F80000
ENDCHAR
STARTCHAR 039A
ENCODING 922
SWIDTH 540 0
DWIDTH 21 0
BBX 25 27 1 0
BITMAP
00010400
07FF1C00
03FE3F00
07FE7F80
07FE7F00
07FEFE00
0FFDFC00
0FFDF800
0FFFF000
0FFFE000
0FFFC000
1FFFC000
1FFF8000
1FFF0000
3FFE0000
3FFF0000
3FFF8000
3FFF8000
7FFFC000
7FFFE000
7FEFE000
7FE7F000
7FC7F000
FFC3F000
FFE3F000
FFC39000
CF830000
ENDCHAR
STARTCHAR 039B
ENCODING 923
SWIDTH 591 0
DWIDTH 23 0
BBX 22 25 1 1
BITMAP
003C00
007E00
007E00
007F00
00FF00
00FF80
01FF80
01FF80
01FFC0
03FFC0
03FFE0
07FFE0
07FFE0
0FEFF0
0FEFF0
0FEFF0
1FCFF8
1FCFF8
3FCFF8
3F8FF8
7F8FFC
7F8FFC
7F8FFC
FF03FC
FF001C
ENDCHAR
STARTCHAR 039C
ENCODING 924
SWIDTH 642 0
DWIDTH 25 0
BBX 26 27 1 0
BITMAP
00400000
00E001C0
00E003C0
00F007C0
00F007C0
01F80FC0
01F81F80
01FC3F80
03FC3FC0
03FC7FC0
07FEFF80
07FFFF80
07FFFF80
0FFFFF80
0FFFFF80
0FFFFF80
1FF77F80
1FE2FF80
1FC0FF00
3FC0FF00
3F81FF00
7F81FF00
7F01FF00
7F01FF00
FE01FF00
FE03FF00
FC000000
ENDCHAR
STARTCHAR 039D
ENCODING 925
SWIDTH 565 0
DWIDTH 22 0
BBX 26 26 1 0
BITMAP
00780F80
01FE3FC0
01FE3F80
01FE3F80
03FE7F80
03FC7F00
07FC7F00
07FEFF00
07FEFE00
0FFEFE00
0FFEFE00
0FFEFC00
1FFFFC00
1FFFFC00
1FFFFC00
1FDFF800
3FDFF800
3FDFF800
3F9FF000
3F9FF000
7F9FF000
7F8FF000
7F0FE000
FF1FE000
FF1FE000
E0000000
ENDCHAR
STARTCHAR 039E
ENCODING 926
SWIDTH 462 0
DWIDTH 18 0
BBX 22 26 1 0
BITMAP
07FFFC
07FFFC
07FFFC
07FFFC
0FFFFC
0FFFFC
000020
000000
000000
03FFC0
07FFC0
07FFC0
07FFC0
0FFFC0
0FFE80
000000
000000
000000
000000
7FF800
7FFFC0
7FFFC0
FFFFC0
FFFFC0
FFFF80
003E00
ENDCHAR
STARTCHAR 039F
ENCODING 927
SWIDTH 514 0
DWIDTH 20 0
BBX 20 27 3 0
BITMAP
007800
00FC00
01FF00
03FF80
07FFC0
07FFC0
0FFFE0
1FFFE0
1FFFF0
3FFFF0
3F8FF0
7F87F0
7F07F0
FF07F0
FF0FF0
FF0FF0
FF9FE0
FFFFE0
FFFFE0
FFFFC0
FFFFC0
FFFF80
7FFF80
7FFF00
3FFE00
1FFC00
07F000
ENDCHAR
STARTCHAR 03A0
ENCODING 928
SWIDTH 540 0
DWIDTH 21 0
BBX 24 26 2 0
BITMAP
0FFFFF
0FFFFF
0FFFFF
1FFFFE
1FFFFE
1FFFFE
1FC0FE
1F80FC
1F81FC
3F81FC
3F81FC
3F81FC
3F81F8
3F83F8
3F83F8
7F83F8
7F03F0
7F03F0
7F07F0
7F07F0
7F07F0
7E07E0
FE07E0
FE0FE0
FE07E0
C00000
ENDCHAR
STARTCHAR 03A1
ENCODING 929
SWIDTH 488 0
DWIDTH 19 0
BBX 21 27 1 0
BITMAP
000E00
01FFC0
03FFF0
03FFF0
03FFF8
07FFF8
07F3F8
07F0F8
07F0F8
0FF0F8
0FF1F8
0FF1F8
0FFFF8
1FFFF0
1FFFE0
1FFFC0
3FFE00
3FE000
3FE000
7FE000
7FE000
7FC000
7FC000
FFC000
FFC000
FFC000
FFC000
ENDCHAR
STARTCHAR 03A3
ENCODING 931
SWIDTH 462 0
DWIDTH 18 0
BBX 22 26 1 0
BITMAP
07FFFC
07FFFC
07FFFC
07FFFC
0FFFFC
0FFFB8
0FF800
07FC00
03FE00
01FF00
00FF80
003F80
001F80
003F80
007F00
00FE00
03FC00
07F000
1FE000
3FC000
7FFFC0
7FFFC0
7FFFC0
FFFFC0
FFFF80
13FF80
ENDCHAR
STARTCHAR 03A4
ENCODING 932
SWIDTH 565 0
DWIDTH 22 0
BBX 21 26 5 0
BITMAP
3FFFF0
7FFFF8
7FFFF8
7FFFF8
FFFFF8
FFFFF8
FFFFF8
FFFF00
E0FC00
01F800
01F800
01F800
03F000
03F000
03F000
03F000
03E000
07E000
07E000
07E000
07C000
0FC000
0FC000
0FC000
0FC000
0F8000
ENDCHAR
STARTCHAR 03A5
ENCODING 933
SWIDTH 591 0
DWIDTH 23 0
BBX 23 27 6 0
BITMAP
000026
0400FC
7E00FC
FE01F8
FE03F0
FF07F0
FF07E0
7F0FC0
7F1FC0
7F3F80
3FBF00
3FFF00
3FFE00
3FFC00
1FFC00
1FF800
1FF000
0FF000
0FE000
0FC000
0FC000
0FC000
0FC000
0FC000
1FC000
1FC000
1F0000
ENDCHAR
STARTCHAR 03A6
ENCODING 934
SWIDTH 642 0
DWIDTH 25 0
BBX 26 31 3 -2
BITMAP
0007F000
000FF000
000FF000
000FF000
03FFFF80
07FFFF80
0FFFFFC0
1FFFFFC0
1FFFFFC0
3FFFFFC0
3FDFFFC0
3FBFBFC0
7F3FBFC0
7F3FBF80
7E3F3F80
FE7F3F80
FE7F3F80
FE7E7F00
FEFE7F00
FFFCFE00
FFFDFE00
FFFFFC00
FFFFF800
FFFFF000
FFFFE000
FFFFC000
7BFF8000
03F20000
07E00000
07E00000
07800000
ENDCHAR
STARTCHAR 03A7
ENCODING 935
SWIDTH 565 0
DWIDTH 22 0
BBX 25 25 2 1
BITMAP
00C01F80
07E03F80
0FE07F00
1FF07F00
1FF0FE00
1FF1FC00
0FF1FC00
0FFBF800
07FBF800
07FFF000
03FFE000
01FFC000
01FFC000
01FF8000
01FF8000
03FF8000
07FF8000
07FF8000
0FFF8000
1FDFC000
1FCFC000
3F8FC000
7F87C000
7F078000
FF000000
ENDCHAR
STARTCHAR 03A8
ENCODING 936
SWIDTH 720 0
DWIDTH 28 0
BBX 29 26 4 0
BITMAP
3F0001F0
3F0FC3F8
3F0FC3F0
7F0FC3F0
7E0FC7F0
7E0FC7F0
7E1F87E0
7E1F87E0
7C1F8FE0
FC3F8FC0
FC3F0FC0
FE3F1FC0
FF3F7F80
7FFFFF80
7FFFFF00
7FFFFE00
3FFFFC00
3FFFF800
0FFFF000
03FF8000
00FC0000
00FC0000
00FC0000
01FC0000
01FC0000
01FC0000
ENDCHAR
STARTCHAR 03A9
ENCODING 937
SWIDTH 591 0
DWIDTH 23 0
BBX 25 27 1 0
BITMAP
001FF000
007FFC00
00FFFE00
01FFFF00
03FFFF00
03FFFF80
07FFFF80
07FFFF80
0FF03F80
0FE03F80
1FC01F80
1FC01F80
1F801F80
1F801F80
1F801F00
1F801F00
1F803F00
1F807E00
0F807C00
0FC0FC00
0FC1F800
7FC3FE00
7FC3FE00
FFC3FE00
FFC7FE00
FFC7FE00
FFC7FC00
ENDCHAR
STARTCHAR 03AA
ENCODING 938
SWIDTH 334 0
DWIDTH 13 0
BBX 19 32 1 0
BITMAP
0000C0
0071E0
00F1E0
00F1C0
006080
000000
00FF80
00FF00
00FF00
01FE00
01FE00
01FE00
03FC00
03FC00
03FC00
07FC00
07F800
07F800
0FF800
0FF800
0FF000
0FF000
1FF000
1FF000
1FF000
1FE000
3FE000
3FC000
3FC000
7FC000
7F8000
F80000
ENDCHAR
STARTCHAR 03AB
ENCODING 939
SWIDTH 591 0
DWIDTH 23 0
BBX 23 32 6 0
BITMAP
000100
00E3C0
01E3C0
01E780
00C100
000026
0400FC
7E00FC
FE01F8
FE03F0
FF07F0
FF07E0
7F0FC0
7F1FC0
7F3F80
3FBF00
3FFF00
3FFE00
3FFC00
1FFC00
1FF800
1FF000
0FF000
0FE000
0FC000
0FC000
0FC000
0FC000
0FC000
1FC000
1FC000
1F0000
ENDCHAR
STARTCHAR 03AC
ENCODING 940
SWIDTH 617 0
DWIDTH 24 0
BBX 23 29 1 -1
BITMAP
001E00
003C00
0038F0
0079F0
0073F0
00E3F0
0007F0
0007F0
000FF0
000FF0
001FF0
003FF0
003FF0
007FF0
00FFF8
00FFF8
01E7F8
03E3F8
03C3F8
078FF8
0FFFF8
0FFFF8
1FFFFC
1F87FC
3F07FC
7F07FC
7E07FE
FE07FE
F00000
ENDCHAR
STARTCHAR 03AD
ENCODING 941
SWIDTH 565 0
DWIDTH 22 0
BBX 19 28 5 0
BITMAP
1C0000
3CFFC0
7FFFE0
77FFC0
E7FFC0
E7FF80
07FF80
07FF80
07FF00
07F000
07E000
07E000
07FF00
07FE00
07FE00
07FE00
0FE000
0FE000
0FFFC0
0FFFC0
0FFFC0
0FFFC0
0FFFC0
0FFFC0
0FFFC0
0FFF00
0FF000
0F0000
ENDCHAR
STARTCHAR 03AE
ENCODING 942
SWIDTH 591 0
DWIDTH 23 0
BBX 25 27 3 1
BITMAP
07000000
0F000000
1E7F0000
1DFE1F80
39FC3F80
39FE3F80
01FC3F00
03FC7F00
03FC7F00
03FC7F00
07F8FE00
07FDFE00
07FFFE00
0FFFFC00
0FFFFC00
0FFFFC00
1FFFFC00
1FFFFC00
1FFFFC00
1FE3F800
3FE7F800
3FC7F800
3FC7F000
7FC7F000
7FCFF000
7F8FE000
FF8F8000
ENDCHAR
STARTCHAR 03AF
ENCODING 943
SWIDTH 360 0
DWIDTH 14 0
BBX 17 28 3 0
BITMAP
070000
0F0000
1EFF80
1CFF00
38FF00
39FE00
01FE00
03FE00
03FC00
03FC00
07FC00
07F800
07F800
07F800
0FF800
0FF000
0FF000
1FF000
1FF000
1FF000
1FE000
3FE000
3FE000
3FC000
3FC000
7FC000
7F8000
F00000
ENDCHAR
STARTCHAR 03B0
ENCODING 944
SWIDTH 591 0
DWIDTH 23 0
BBX 23 35 6 0
BITMAP
000380
000700
000E00
001C00
00E3C0
01E3C0
01E780
00C100
000026
0400FC
7E00FC
FE01F8
FE03F0
FF07F0
FF07E0
7F0FC0
7F1FC0
7F3F80
3FBF00
3FFF00
3FFE00
3FFC00
1FFC00
1FF800
1FF000
0FF000
0FE000
0FC000
0FC000
0FC000
0FC000
0FC000
1FC000
1FC000
1F0000
ENDCHAR
STARTCHAR 03B1
ENCODING 945
SWIDTH 617 0
DWIDTH 24 0
BBX 23 27 1 -1
BITMAP
0000F0
0001F0
0003F0
0003F0
0007F0
0007F0
000FF0
000FF0
001FF0
003FF0
003FF0
007FF0
00FFF8
00FFF8
01E7F8
03E3F8
03C3F8
078FF8
0FFFF8
0FFFF8
1FFFFC
1F87FC
3F07FC
7F07FC
7E07FE
FE07FE
F00000
ENDCHAR
STARTCHAR 03B2
ENCODING 946
SWIDTH 514 0
DWIDTH 20 0
BBX 17 27 4 0
BITMAP
07A000
1FFE00
3FFF00
3FFF00
3FFF00
7FFF80
7F3F80
7F1F80
3F1F00
3F1F00
7F3E00
7F7E00
7FF800
7FFC00
7FFF00
7FFF80
7F1F80
7F1F80
FF1F80
FF3F80
FF7F80
FFFF00
FFFF00
FFFC00
FFF800
FFE000
780000
ENDCHAR
STARTCHAR 03B3
ENCODING 947
SWIDTH 488 0
DWIDTH 19 0
BBX 22 27 2 0
BITMAP
007FFC
07FFFC
0FFFFC
0FFFFC
1FFFFC
1FFFFC
1FE000
1FC000
1FC000
3F8000
3F8000
3F8000
3F8000
3F0000
7F0000
7F0000
7F0000
7F0000
FE0000
FE0000
FE0000
FE0000
FE0000
FE0000
FE0000
FE0000
F80000
ENDCHAR
STARTCHAR 03B4
ENCODING 948
SWIDTH 565 0
DWIDTH 22 0
BBX 22 26 1 0
BITMAP
0001F8
0003F8
0007F8
000FF8
001FF8
001FF8
003FF8
007FF8
007FF8
00FFF8
01FFF8
01FDF8
03F9F8
07F9F8
07F1F8
0FF3F8
0FE3FC
1FE3FC
3FC3FC
3F83FC
7F83FC
7FFFFC
FFFFFC
FFFFFC
FFFFFC
FFFFF8
ENDCHAR
STARTCHAR 03B5
ENCODING 949
SWIDTH 488 0
DWIDTH 19 0
BBX 15 27 5 0
BITMAP
0FFC
3FFE
7FFE
7FFC
7FFC
7FF8
7FF8
7FF8
7F00
7E00
7F00
7FF0
7FF0
7FF0
7FF0
7E00
7E04
7FFC
FFFC
7FFC
7FFC
FFFC
FFFC
FFFC
FFF8
FF80
F000
ENDCHAR
STARTCHAR 03B6
ENCODING 950
SWIDTH 591 0
DWIDTH 23 0
BBX 20 27 5 0
BITMAP
003F00
07FFF0
1FFFE0
3FFFC0
7FFF80
FFFF00
FFFF00
E07E00
00FC00
00FC00
01F800
01F000
03F000
07E000
07E000
0FE000
0FC000
1FC000
1F8000
3F0000
3FFFE0
7FFFE0
FFFFE0
FFFFC0
FFFF80
07FE00
007000
ENDCHAR
STARTCHAR 03B7
ENCODING 951
SWIDTH 540 0
DWIDTH 21 0
BBX 25 25 1 1
BITMAP
007F0000
01FE1F80
01FE3F80
01FE3F80
01FE3F80
01FC7F00
03FC7F00
03FC7F00
03FC7F00
07FDFE00
07FFFE00
07FFFE00
0FFFFC00
0FFFFC00
0FFFFC00
1FFFFC00
1FFFFC00
1FE3FC00
3FE3F800
3FE7F800
3FC7F800
3FC7F000
7FC7F000
7FC7F000
FF8F8000
ENDCHAR
STARTCHAR 03B8
ENCODING 952
SWIDTH 514 0
DWIDTH 20 0
BBX 21 27 3 0
BITMAP
007E00
01FF80
07FFE0
07FFE0
0FFFF0
1FFFF0
1FFFF0
3FFFF0
3FFFF0
3FFFF8
7F87F0
7F07F0
7FFFF0
7FFFF0
FFFFF0
FFE7F0
FE0FE0
FF1FE0
7FFFC0
7FFFC0
7FFF80
7FFF80
3FFF00
3FFF00
1FFE00
0FFC00
03F800
ENDCHAR
STARTCHAR 03B9
ENCODING 953
SWIDTH 334 0
DWIDTH 13 0
BBX 17 26 1 0
BITMAP
00FF80
00FF00
00FF00
01FE00
01FE00
01FE00
03FC00
03FC00
03FC00
07FC00
07F800
07F800
0FF800
0FF800
0FF000
0FF000
1FF000
1FF000
1FF000
1FE000
3FE000
3FC000
3FC000
7FC000
7F8000
F80000
ENDCHAR
STARTCHAR 03BA
ENCODING 954
SWIDTH 540 0
DWIDTH 21 0
BBX 25 27 1 0
BITMAP
00010400
07FF1C00
03FE3F00
07FE7F80
07FE7F00
07FEFE00
0FFDFC00
0FFDF800
0FFFF000
0FFFE000
0FFFC000
1FFFC000
1FFF8000
1FFF0000
3FFE0000
3FFF0000
3FFF8000
3FFF8000
7FFFC000
7FFFE000
7FEFE000
7FE7F000
7FC7F000
FFC3F000
FFE3F000
FFC39000
CF830000
ENDCHAR
STARTCHAR 03BB
ENCODING 955
SWIDTH 591 0
DWIDTH 23 0
BBX 22 25 1 1
BITMAP
003C00
007E00
007E00
007F00
00FF00
00FF80
01FF80
01FF80
01FFC0
03FFC0
03FFE0
07FFE0
07FFE0
0FEFF0
0FEFF0
0FEFF0
1FCFF8
1FCFF8
3FCFF8
3F8FF8
7F8FFC
7F8FFC
7F8FFC
FF03FC
FF001C
ENDCHAR
STARTCHAR 03BC
ENCODING 956
SWIDTH 642 0
DWIDTH 25 0
BBX 26 27 1 0
BITMAP
00400000
00E001C0
00E003C0
00F007C0
00F007C0
01F80FC0
01F81F80
01FC3F80
03FC3FC0
03FC7FC0
07FEFF80
07FFFF80
07FFFF80
0FFFFF80
0FFFFF80
0FFFFF80
1FF77F80
1FE2FF80
1FC0FF00
3FC0FF00
3F81FF00
7F81FF00
7F01FF00
7F01FF00
FE01FF00
FE03FF00
FC000000
ENDCHAR
STARTCHAR 03BD
ENCODING 957
SWIDTH 565 0
DWIDTH 22 0
BBX 26 26 1 0
BITMAP
00780F80
01FE3FC0
01FE3F80
01FE3F80
03FE7F80
03FC7F00
07FC7F00
07FEFF00
07FEFE00
0FFEFE00
0FFEFE00
0FFEFC00
1FFFFC00
1FFFFC00
1FFFFC00
1FDFF800
3FDFF800
3FDFF800
3F9FF000
3F9FF000
7F9FF000
7F8FF000
7F0FE000
FF1FE000
FF1FE000
E0000000
ENDCHAR
STARTCHAR 03BE
ENCODING 958
SWIDTH 462 0
DWIDTH 18 0
BBX 22 26 1 0
BITMAP
07FFFC
07FFFC
07FFFC
07FFFC
0FFFFC
0FFFFC
000020
000000
000000
03FFC0
07FFC0
07FFC0
07FFC0
0FFFC0
0FFE80
000000
000000
000000
000000
7FF800
7FFFC0
7FFFC0
FFFFC0
FFFFC0
FFFF80
003E00
ENDCHAR
STARTCHAR 03BF
ENCODING 959
SWIDTH 514 0
DWIDTH 20 0
BBX 20 27 3 0
BITMAP
007800
00FC00
01FF00
03FF80
07FFC0
07FFC0
0FFFE0
1FFFE0
1FFFF0
3FFFF0
3F8FF0
7F87F0
7F07F0
FF07F0
FF0FF0
FF0FF0
FF9FE0
FFFFE0
FFFFE0
FFFFC0
FFFFC0
FFFF80
7FFF80
7FFF00
3FFE00
1FFC00
07F000
ENDCHAR
STARTCHAR 03C0
ENCODING 960
SWIDTH 540 0
DWIDTH 21 0
BBX 24 26 2 0
BITMAP
0FFFFF
0FFFFF
0FFFFF
1FFFFE
1FFFFE
1FFFFE
1FC0FE
1F80FC
1F81FC
3F81FC
3F81FC
3F81FC
3F81F8
3F83F8
3F83F8
7F83F8
7F03F0
7F03F0
7F07F0
7F07F0
7F07F0
7E07E0
FE07E0
FE0FE0
FE07E0
C00000
ENDCHAR
STARTCHAR 03C1
ENCODING 961
SWIDTH 488 0
DWIDTH 19 0
BBX 21 27 1 0
BITMAP
000E00
01FFC0
03FFF0
03FFF0
03FFF8
07FFF8
07F3F8
07F0F8
07F0F8
0FF0F8
0FF1F8
0FF1F8
0FFFF8
1FFFF0
1FFFE0
1FFFC0
3FFE00
3FE000
3FE000
7FE000
7FE000
7FC000
7FC000
FFC000
FFC000
FFC000
FFC000
ENDCHAR
STARTCHAR 03C2
ENCODING 962
SWIDTH 488 0
DWIDTH 19 0
BBX 21 31 3 -5
BITMAP
001FC0
00FFE0
03FFF0
07FFF8
0FFFF0
1FFFF0
1FFFF0
3FE1E0
3F8000
7F0000
7E0000
7E0000
FC0000
FC0000
FE0000
FE0000
FF8000
FFE000
FFFE00
7FFF00
7FFF00
3FFF00
1FFF00
07FF00
007F00
00FE00
03FE00
07FC00
07FC00
0FF000
0FE000
ENDCHAR
STARTCHAR 03C3
ENCODING 963
SWIDTH 462 0
DWIDTH 18 0
BBX 22 26 1 0
BITMAP
07FFFC
07FFFC
07FFFC
07FFFC
0FFFFC
0FFFB8
0FF800
07FC00
03FE00
01FF00
00FF80
003F80
001F80
003F80
007F00
00FE00
03FC00
07F000
1FE000
3FC000
7FFFC0
7FFFC0
7FFFC0
FFFFC0
FFFF80
13FF80
ENDCHAR
STARTCHAR 03C4
ENCODING 964
SWIDTH 565 0
DWIDTH 22 0
BBX 21 26 5 0
BITMAP
3FFFF0
7FFFF8
7FFFF8
7FFFF8
FFFFF8
FFFFF8
FFFFF8
FFFF00
E0FC00
01F800
01F800
01F800
03F000
03F000
03F000
03F000
03E000
07E000
07E000
07E000
07C000
0FC000
0FC000
0FC000
0FC000
0F8000
ENDCHAR
STARTCHAR 03C5
ENCODING 965
SWIDTH 591 0
DWIDTH 23 0
BBX 23 27 6 0
BITMAP
000026
0400FC
7E00FC
FE01F8
FE03F0
FF07F0
FF07E0
7F0FC0
7F1FC0
7F3F80
3FBF00
3FFF00
3FFE00
3FFC00
1FFC00
1FF800
1FF000
0FF000
0FE000
0FC000
0FC000
0FC000
0FC000
0FC000
1FC000
1FC000
1F0000
ENDCHAR
STARTCHAR 03C6
ENCODING 966
SWIDTH 642 0
DWIDTH 25 0
BBX 26 31 3 -2
BITMAP
0007F000
000FF000
000FF000
000FF000
03FFFF80
07FFFF80
0FFFFFC0
1FFFFFC0
1FFFFFC0
3FFFFFC0
3FDFFFC0
3FBFBFC0
7F3FBFC0
7F3FBF80
7E3F3F80
FE7F3F80
FE7F3F80
FE7E7F00
FEFE7F00
FFFCFE00
FFFDFE00
FFFFFC00
FFFFF800
FFFFF000
FFFFE000
FFFFC000
7BFF8000
03F20000
07E00000
07E00000
07800000
ENDCHAR
STARTCHAR 03C7
ENCODING 967
SWIDTH 565 0
DWIDTH 22 0
BBX 25 25 2 1
BITMAP
00C01F80
07E03F80
0FE07F00
1FF07F00
1FF0FE00
1FF1FC00
0FF1FC00
0FFBF800
07FBF800
07FFF000
03FFE000
01FFC000
01FFC000
01FF8000
01FF8000
03FF8000
07FF8000
07FF8000
0FFF8000
1FDFC000
1FCFC000
3F8FC000
7F87C000
7F078000
FF000000
ENDCHAR
STARTCHAR 03C8
ENCODING 968
SWIDTH 720 0
DWIDTH 28 0
BBX 29 26 4 0
BITMAP
3F0001F0
3F0FC3F8
3F0FC3F0
7F0FC3F0
7E0FC7F0
7E0FC7F0
7E1F87E0
7E1F87E0
7C1F8FE0
FC3F8FC0
FC3F0FC0
FE3F1FC0
FF3F7F80
7FFFFF80
7FFFFF00
7FFFFE00
3FFFFC00
3FFFF800
0FFFF000
03FF8000
00FC0000
00FC0000
00FC0000
01FC0000
01FC0000
01FC0000
ENDCHAR
STARTCHAR 03C9
ENCODING 969
SWIDTH 591 0
DWIDTH 23 0
BBX 25 27 1 0
BITMAP
001FF000
007FFC00
00FFFE00
01FFFF00
03FFFF00
03FFFF80
07FFFF80
07FFFF80
0FF03F80
0FE03F80
1FC01F80
1FC01F80
1F801F80
1F801F80
1F801F00
1F801F00
1F803F00
1F807E00
0F807C00
0FC0FC00
0FC1F800
7FC3FE00
7FC3FE00
FFC3FE00
FFC7FE00
FFC7FE00
FFC7FC00
ENDCHAR
STARTCHAR 03CA
ENCODING 970
SWIDTH 334 0
DWIDTH 13 0
BBX 19 32 1 0
BITMAP
0000C0
0071E0
00F1E0
00F1C0
006080
000000
00FF80
00FF00
00FF00
01FE00
01FE00
01FE00
03FC00
03FC00
03FC00
07FC00
07F800
07F800
0FF800
0FF800
0FF000
0FF000
1FF000
1FF000
1FF000
1FE000
3FE000
3FC000
3FC000
7FC000
7F8000
F80000
ENDCHAR
STARTCHAR 03CB
ENCODING 971
SWIDTH 591 0
DWIDTH 23 0
BBX 23 32 6 0
BITMAP
000100
00E3C0
01E3C0
01E780
00C100
000026
0400FC
7E00FC
FE01F8
FE03F0
FF07F0
FF07E0
7F0FC0
7F1FC0
7F3F80
3FBF00
3FFF00
3FFE00
3FFC00
1FFC00
1FF800
1FF000
0FF000
0FE000
0FC000
0FC000
0FC000
0FC000
0FC000
1FC000
1FC000
1F0000
ENDCHAR
STARTCHAR 03CC
ENCODING 972
SWIDTH 540 0
DWIDTH 21 0
BBX 20 28 4 0
BITMAP
0E0000
1EF000
3DFC00
39FE00
73FF80
77FF80
0FFFC0
0FFFC0
1FFFE0
3FFFE0
3FFFE0
7F8FF0
7F07F0
FF0FF0
FE0FF0
FE0FF0
FE1FE0
FF1FE0
FFFFE0
FFFFC0
FFFFC0
FFFF80
FFFF80
FFFF00
7FFF00
7FFE00
1FF800
0FF000
ENDCHAR
STARTCHAR 03CD
ENCODING 973
SWIDTH 668 0
DWIDTH 26 0
BBX 27 28 5 0
BITMAP
1C000000
3C000260
78400FC0
77E00FC0
EFE01F80
EFE03F80
0FF03F00
0FF07E00
07F0FC00
07F1FC00
07F9F800
03FBF000
03FFF000
03FFE000
03FFC000
01FFC000
01FF8000
01FF0000
00FF0000
00FE0000
00FE0000
00FC0000
00FC0000
00FC0000
00FC0000
00FC0000
01FC0000
01F00000
ENDCHAR
STARTCHAR 03CE
ENCODING 974
SWIDTH 642 0
DWIDTH 25 0
BBX 26 28 2 0
BITMAP
03800000
079FF000
0F7FFC00
0EFFFE00
1DFFFF00
1FFFFF80
03FFFF80
07FFFF80
07FFFFC0
0FF03FC0
0FE01FC0
0FC01F80
0FC01F80
1F801F80
1F801F80
1F801F80
1F801F00
1F803F00
0F803E00
0FC07E00
0FC0FC00
0FC1F800
7FE3FF00
7FE3FE00
7FC3FE00
FFC3FE00
FFC7FE00
FFC7FE00
ENDCHAR
STARTCHAR 03D2
ENCODING 978
SWIDTH 642 0
DWIDTH 25 0
BBX 23 26 6 0
BITMAP
F8007C
FE00FE
FF01FE
FF03FE
FF07FE
FF8FFE
1F8FFC
1F9FFC
0F9F70
0FBE00
0FFC00
0FFC00
0FF800
0FF000
0FF000
0FE000
0FE000
0FE000
1FC000
1FC000
1FC000
1FC000
1F8000
1F8000
3F8000
3F8000
ENDCHAR
STARTCHAR 03D3
ENCODING 979
SWIDTH 720 0
DWIDTH 28 0
BBX 28 28 5 0
BITMAP
1C000000
3C000000
7FC003C0
77F007E0
E7F80FF0
E7F81FF0
07F83FE0
07FC7FE0
00FCFFE0
007CFFC0
007DF300
007DF000
007FE000
007FC000
007FC000
007F8000
007F0000
007F0000
007F0000
007E0000
007E0000
00FE0000
00FE0000
00FC0000
00FC0000
00FC0000
00FC0000
00FC0000
ENDCHAR
STARTCHAR 03D4
ENCODING 980
SWIDTH 642 0
DWIDTH 25 0
BBX 23 32 6 0
BITMAP
000100
00E3C0
01E3C0
01E780
00C100
000000
F8007C
FE00FE
FF01FE
FF03FE
FF07FE
FF8FFE
1F8FFC
1F9FFC
0F9F70
0FBE00
0FFC00
0FFC00
0FF800
0FF000
0FF000
0FE000
0FE000
0FE000
1FC000
1FC000
1FC000
1FC000
1F8000
1F8000
3F8000
3F8000
ENDCHAR
STARTCHAR 03D5
ENCODING 981
SWIDTH 642 0
DWIDTH 25 0
BBX 26 31 3 -2
BITMAP
0007F000
000FF000
000FF000
000FF000
03FFFF80
07FFFF80
0FFFFFC0
1FFFFFC0
1FFFFFC0
3FFFFFC0
3FDFFFC0
3FBFBFC0
7F3FBFC0
7F3FBF80
7E3F3F80
FE7F3F80
FE7F3F80
FE7E7F00
FEFE7F00
FFFCFE00
FFFDFE00
FFFFFC00
FFFFF800
FFFFF000
FFFFE000
FFFFC000
7BFF8000
03F20000
07E00000
07E00000
07800000
ENDCHAR
STARTCHAR 03D8
ENCODING 984
SWIDTH 514 0
DWIDTH 20 0
BBX 20 32 3 -5
BITMAP
001FC0
007FE0
00FFF0
03FFF0
07FFF0
07FFF0
0FFFF0
1FFFF0
1FFFF0
3FCFF0
3F87F0
7F03F0
7F03F0
7F07F0
FE07F0
FE07F0
FF0FE0
FFFFE0
FFFFC0
FFFFC0
FFFF80
FFFF80
FFFF00
FFFE00
7FFC00
3FF000
0FC000
0FC000
0FC000
0FC000
0F8000
0F8000
ENDCHAR
STARTCHAR 03D9
ENCODING 985
SWIDTH 514 0
DWIDTH 20 0
BBX 20 32 3 -5
BITMAP
001FC0
007FE0
00FFF0
03FFF0
07FFF0
07FFF0
0FFFF0
1FFFF0
1FFFF0
3FCFF0
3F87F0
7F03F0
7F03F0
7F07F0
FE07F0
FE07F0
FF0FE0
FFFFE0
FFFFC0
FFFFC0
FFFF80
FFFF80
FFFF00
FFFE00
7FFC00
3FF000
0FC000
0FC000
0FC000
0FC000
0F8000
0F8000
ENDCHAR
STARTCHAR 03DA
ENCODING 986
SWIDTH 488 0
DWIDTH 19 0
BBX 21 32 3 -5
BITMAP
001FF8
007FF8
03FFF8
07FFF8
0FFFF0
0FFFF0
1FFFF0
3FF800
3F8000
7F0000
7F0000
7E0000
7E0000
FC0000
FC0000
FC0000
FE0000
FE0000
FF8000
FFF000
FFFE00
7FFF00
7FFF00
3FFF00
1FFF00
03FF00
00FE00
03FE00
07FC00
07F800
0FF000
0FE000
ENDCHAR
STARTCHAR 03DB
ENCODING 987
SWIDTH 488 0
DWIDTH 19 0
BBX 21 32 3 -5
BITMAP
001FF8
007FF8
03FFF8
07FFF8
0FFFF0
0FFFF0
1FFFF0
3FF800
3F8000
7F0000
7F0000
7E0000
7E0000
FC0000
FC0000
FC0000
FE0000
FE0000
FF8000
FFF000
FFFE00
7FFF00
7FFF00
3FFF00
1FFF00
03FF00
00FE00
03FE00
07FC00
07F800
0FF000
0FE000
ENDCHAR
STARTCHAR 03F2
ENCODING 1010
SWIDTH 488 0
DWIDTH 19 0
BBX 20 26 3 0
BITMAP
003FC0
01FFE0
03FFF0
07FFF0
0FFFF0
1FFFF0
3FFFE0
3FF000
7FC000
7F8000
7F8000
7F0000
7F0000
FF8000
FFC380
FFFF80
FFFF80
FFFF80
FFFF80
FFFF00
7FFF00
7FFF00
7FFC00
7FFC00
0FF000
008000
ENDCHAR
STARTCHAR 03F3
ENCODING 1011
SWIDTH 437 0
DWIDTH 17 0
BBX 20 26 2 0
BITMAP
000FF0
001FF0
001FF0
003FF0
003FE0
003FE0
007FE0
007FE0
007FE0
007FE0
007FE0
00FFC0
00FFC0
00FFC0
007FC0
007F80
007F80
3C7F80
FC7F00
FEFF00
FEFE00
FFFE00
FFFC00
7FF800
3FE000
0FC000
ENDCHAR
STARTCHAR 03F4
ENCODING 1012
SWIDTH 514 0
DWIDTH 20 0
BBX 20 27 3 0
BITMAP
00FE00
01FF00
03FFC0
07FFE0
0FFFE0
0FFFE0
1FFFF0
1FFFF0
3FFFF0
3F87F0
7F07F0
7F3FF0
7FFFF0
FFFFF0
FFFFF0
FE0FF0
FF0FE0
FFDFE0
FFFFE0
FFFFC0
FFFFC0
7FFF80
7FFF80
7FFF00
3FFE00
1FFC00
07F000
ENDCHAR
STARTCHAR 03F7
ENCODING 1015
SWIDTH 488 0
DWIDTH 19 0
BBX 19 27 2 0
BITMAP
07E000
0FE000
0FE000
0FE000
0FFE00
1FFF80
1FFFC0
1FFFE0
1FFFE0
1FCFE0
1F83E0
3F83E0
3F83E0
3F83E0
3F87E0
3F87E0
3F8FE0
3FFFE0
7FFFC0
7FFF80
7FFF00
7FFC00
7F0000
7F0000
FF0000
FF0000
FE0000
ENDCHAR
STARTCHAR 03F8
ENCODING 1016
SWIDTH 488 0
DWIDTH 19 0
BBX 19 27 2 0
BITMAP
07E000
0FE000
0FE000
0FE000
0FFE00
1FFF80
1FFFC0
1FFFE0
1FFFE0
1FCFE0
1F83E0
3F83E0
3F83E0
3F83E0
3F87E0
3F87E0
3F8FE0
3FFFE0
7FFFC0
7FFF80
7FFF00
7FFC00
7F0000
7F0000
FF0000
FF0000
FE0000
ENDCHAR
STARTCHAR 03F9
ENCODING 1017
SWIDTH 488 0
DWIDTH 19 0
BBX 20 26 3 0
BITMAP
003FC0
01FFE0
03FFF0
07FFF0
0FFFF0
1FFFF0
3FFFE0
3FF000
7FC000
7F8000
7F8000
7F0000
7F0000
FF8000
FFC380
FFFF80
FFFF80
FFFF80
FFFF80
FFFF00
7FFF00
7FFF00
7FFC00
7FFC00
0FF000
008000
ENDCHAR
STARTCHAR 03FA
ENCODING 1018
SWIDTH 617 0
DWIDTH 24 0
BBX 24 27 1 0
BITMAP
000003
018007
03C01F
03E03F
03F8FF
07FDFF
07FFFF
07FFFF
0FFFFF
0FFFFF
0FEEFF
1FECFF
1FE0FF
1FE0FF
1FC0FE
3FC0FE
3FC0FE
3FC0FE
3FC0FE
7F80FE
7F80FE
7F80FE
7F80FE
FF80FE
FF80FE
FF00FE
B00002
ENDCHAR
STARTCHAR 03FB
ENCODING 1019
SWIDTH 617 0
DWIDTH 24 0
BBX 24 27 1 0
BITMAP
000003
018007
03C01F
03E03F
03F8FF
07FDFF
07FFFF
07FFFF
0FFFFF
0FFFFF
0FEEFF
1FECFF
1FE0FF
1FE0FF
1FC0FE
3FC0FE
3FC0FE
3FC0FE
3FC0FE
7F80FE
7F80FE
7F80FE
7F80FE
FF80FE
FF80FE
FF00FE
B00002
ENDCHAR
STARTCHAR 03FD
ENCODING 1021
SWIDTH 488 0
DWIDTH 19 0
BBX 20 26 2 0
BITMAP
01FE00
07FF80
0FFFC0
1FFFE0
1FFFF0
1FFFF0
1FFFF0
003FF0
001FF0
000FF0
000FF0
000FF0
000FE0
001FE0
3C7FE0
7FFFE0
7FFFC0
7FFFC0
7FFF80
7FFF80
FFFF00
FFFE00
7FFE00
3FFC00
1FE000
040000
ENDCHAR
STARTCHAR 0400
ENCODING 1024
SWIDTH 488 0
DWIDTH 19 0
BBX 15 34 5 0
BITMAP
0F00
1F80
1F80
0FC0
07C0
03C0
0000
0FFC
3FFE
7FFE
7FFC
7FFC
7FF8
7FF8
7FF8
7F00
7E00
7F00
7FF0
7FF0
7FF0
7FF0
7E00
7E04
7FFC
FFFC
7FFC
7FFC
FFFC
FFFC
FFFC
FFF8
FF80
F000
ENDCHAR
STARTCHAR 0401
ENCODING 1025
SWIDTH 488 0
DWIDTH 19 0
BBX 15 32 5 0
BITMAP
0078
1C78
3C78
3C70
1800
0FFC
3FFE
7FFE
7FFC
7FFC
7FF8
7FF8
7FF8
7F00
7E00
7F00
7FF0
7FF0
7FF0
7FF0
7E00
7E04
7FFC
FFFC
7FFC
7FFC
FFFC
FFFC
FFFC
FFF8
FF80
F000
ENDCHAR
STARTCHAR 0402
ENCODING 1026
SWIDTH 668 0
DWIDTH 26 0
BBX 23 32 5 -5
BITMAP
0FFFF8
3FFFFC
7FFFFC
7FFFF8
FFFFF8
FFFFF8
01FC00
01FC00
01FC00
01FFF0
01FFF8
03FFFC
03FFFE
03FFFE
03FFFE
03F0FE
03F0FE
07F0FE
07E0FE
07E0FC
07E0FC
07E0FC
0FC0FC
0FC0F8
0FC0F8
0FC1F8
0FC3F8
000FF0
000FF0
001FE0
001FC0
001C00
ENDCHAR
STARTCHAR 0403
ENCODING 1027
SWIDTH 488 0
DWIDTH 19 0
BBX 22 34 2 0
BITMAP
0001F0
0003F0
0003E0
0007C0
000F80
001E00
000000
007FFC
07FFFC
0FFFFC
0FFFFC
1FFFFC
1FFFFC
1FE000
1FC000
1FC000
3F8000
3F8000
3F8000
3F8000
3F0000
7F0000
7F0000
7F0000
7F0000
FE0000
FE0000
FE0000
FE0000
FE0000
FE0000
FE0000
FE0000
F80000
ENDCHAR
STARTCHAR 0404
ENCODING 1028
SWIDTH 488 0
DWIDTH 19 0
BBX 20 27 3 0
BITMAP
000600
007FC0
01FFF0
03FFF0
07FFF0
0FFFF0
1FFFF0
1FFFE0
3FFFE0
3FCFE0
7F8040
7F0000
7FFE00
FFFE00
FFFE00
FFFE00
FFFE00
FE0000
FF0080
FFFF80
FFFF80
FFFF80
7FFF80
7FFF80
3FFE00
0FFC00
01C000
ENDCHAR
STARTCHAR 0405
ENCODING 1029
SWIDTH 488 0
DWIDTH 19 0
BBX 23 27 1 0
BITMAP
0007F0
003FFE
00FFFE
00FFFC
01FFF8
03FFF8
03FFF0
07FFE0
07FFE0
07FFC0
0FE0C0
07E000
07FC00
07FF00
07FFC0
01FFC0
003FE0
000FE0
000FE0
301FE0
7FFFE0
7FFFC0
7FFFC0
FFFF80
7FFF00
3FFC00
0FF000
ENDCHAR
STARTCHAR 0406
ENCODING 1030
SWIDTH 334 0
DWIDTH 13 0
BBX 17 26 1 0
BITMAP
00FF80
00FF00
00FF00
01FE00
01FE00
01FE00
03FC00
03FC00
03FC00
07FC00
07F800
07F800
0FF800
0FF800
0FF000
0FF000
1FF000
1FF000
1FF000
1FE000
3FE000
3FC000
3FC000
7FC000
7F8000
F80000
ENDCHAR
STARTCHAR 0407
ENCODING 1031
SWIDTH 334 0
DWIDTH 13 0
BBX 19 32 1 0
BITMAP
0000C0
0071E0
00F1E0
00F1C0
006080
000000
00FF80
00FF00
00FF00
01FE00
01FE00
01FE00
03FC00
03FC00
03FC00
07FC00
07F800
07F800
0FF800
0FF800
0FF000
0FF000
1FF000
1FF000
1FF000
1FE000
3FE000
3FC000
3FC000
7FC000
7F8000
F80000
ENDCHAR
STARTCHAR 0408
ENCODING 1032
SWIDTH 437 0
DWIDTH 17 0
BBX 20 26 2 0
BITMAP
000FF0
001FF0
001FF0
003FF0
003FE0
003FE0
007FE0
007FE0
007FE0
007FE0
007FE0
00FFC0
00FFC0
00FFC0
007FC0
007F80
007F80
3C7F80
FC7F00
FEFF00
FEFE00
FFFE00
FFFC00
7FF800
3FE000
0FC000
ENDCHAR
STARTCHAR 0409
ENCODING 1033
SWIDTH 720 0
DWIDTH 28 0
BBX 28 26 1 0
BITMAP
000FFE00
001FFE00
001FFE00
003FFE00
003FFE00
007FFC00
007FFC00
00FFFC00
00FFFE00
01FFFFC0
01FDFFE0
03F9FFF0
03FBFFF0
07F3FFF0
07F3F1F0
0FE3E0F0
0FE3E0F0
1FC7E1F0
3FC7E1F0
3F87E3F0
7F8FE7F0
7F8FFFE0
7F0FFFE0
FF0FFFC0
FF1FFF00
0003FF00
ENDCHAR
STARTCHAR 040A
ENCODING 1034
SWIDTH 720 0
DWIDTH 28 0
BBX 28 26 1 0
BITMAP
00FE3E00
01FC7E00
01FC7E00
01FC7E00
01FCFE00
03F8FC00
03F8FC00
03F8FC00
07F9FE00
07F9FFC0
07FFFFE0
0FFFFFF0
0FFFFFF0
0FFFFFF0
1FFFF1F0
1FFFE0F0
1FFFE0F0
1FC7E1F0
3FC7E1F0
3FC7E3F0
3F8FE7F0
7F8FFFE0
7F8FFFE0
7F8FFFC0
FF1FFF00
0003FF00
ENDCHAR
STARTCHAR 040B
ENCODING 1035
SWIDTH 668 0
DWIDTH 26 0
BBX 23 27 5 0
BITMAP
0FFFF8
3FFFFC
7FFFFC
7FFFF8
FFFFF8
FFFFF8
01FC00
01FC00
01FC00
01FFF0
01FFF8
03FFFC
03FFFE
03FFFE
03FFFE
03F0FE
03F0FE
07F0FE
07E0FE
07E0FC
07E0FC
07E1FC
0FC1FC
0FC1F8
0FC1F8
0FC1F8
0FC1F0
ENDCHAR
STARTCHAR 040C
ENCODING 1036
SWIDTH 540 0
DWIDTH 21 0
BBX 25 34 1 0
BITMAP
00000F80
00001F80
00003F00
00003E00
00007800
0000F000
00000000
00010400
07FF1C00
03FE3F00
07FE7F80
07FE7F00
07FEFE00
0FFDFC00
0FFDF800
0FFFF000
0FFFE000
0FFFC000
1FFFC000
1FFF8000
1FFF0000
3FFE0000
3FFF0000
3FFF8000
3FFF8000
7FFFC000
7FFFE000
7FEFE000
7FE7F000
7FC7F000
FFC3F000
FFE3F000
FFC39000
CF830000
ENDCHAR
STARTCHAR 040D
ENCODING 1037
SWIDTH 540 0
DWIDTH 21 0
BBX 21 34 3 0
BITMAP
00F000
01F800
00F800
007C00
007C00
003C00
000000
000000
0FC1F8
1FC7F8
1FC7F8
1FC7F8
3F87F8
3F87F8
3F87F8
3F8FF8
3F9FF0
3F9FF0
3FBFF0
3FBFF0
3F7FF0
3FFFF0
7FFFF0
7FFFF0
7FEFE0
7FEFE0
7FCFE0
7F8FE0
FF8FE0
FF0FE0
FF0FE0
FF1FE0
FE1FE0
0001C0
ENDCHAR
STARTCHAR 040E
ENCODING 1038
SWIDTH 514 0
DWIDTH 20 0
BBX 23 33 1 0
BITMAP
003838
003CF8
003FF0
003FE0
001FC0
000000
00A038
07F0FE
07F0FE
07F1FC
07F9FC
03F9F8
03FBF8
03FBF8
03FBF0
01FFF0
01FFE0
01FFE0
01FFE0
00FFC0
00FFC0
00FFC0
00FF80
007F80
007F80
3FFF00
3FFF00
7FFF00
7FFE00
7FFC00
7FF800
FFC000
E80000
ENDCHAR
STARTCHAR 040F
ENCODING 1039
SWIDTH 514 0
DWIDTH 20 0
BBX 24 31 1 -5
BITMAP
000002
07E07F
07E07F
07E07E
07E07E
0FE0FE
0FE0FE
0FC0FC
1FC0FC
1FC0FC
1FC1FC
1F81FC
1F81FC
3F81F8
3F01F8
3F01F8
3F03F8
7F03F8
7E03F8
7FFFF0
7FFFF0
7FFFF0
FFFFF0
FFFFF0
FFFFE0
01F000
03F000
03F000
03F000
03E000
03E000
ENDCHAR
STARTCHAR 0410
ENCODING 1040
SWIDTH 617 0
DWIDTH 24 0
BBX 23 27 1 -1
BITMAP
0000F0
0001F0
0003F0
0003F0
0007F0
0007F0
000FF0
000FF0
001FF0
003FF0
003FF0
007FF0
00FFF8
00FFF8
01E7F8
03E3F8
03C3F8
078FF8
0FFFF8
0FFFF8
1FFFFC
1F87FC
3F07FC
7F07FC
7E07FE
FE07FE
F00000
ENDCHAR
STARTCHAR 0411
ENCODING 1041
SWIDTH 488 0
DWIDTH 19 0
BBX 22 27 2 0
BITMAP
0C0000
07FFE0
07FFFC
07FFF8
07FFF8
0FFFF0
0FFFF0
0FFFF0
0FE000
0FE000
1FE000
1FFF80
1FFFC0
1FFFE0
1FFFE0
3FFFE0
3F87E0
3F87C0
3F87C0
3F8FC0
7F8F80
7FFF80
7FFF00
7FFE00
7FFC00
FFF800
078000
ENDCHAR
STARTCHAR 0412
ENCODING 1042
SWIDTH 514 0
DWIDTH 20 0
BBX 17 27 4 0
BITMAP
07A000
1FFE00
3FFF00
3FFF00
3FFF00
7FFF80
7F3F80
7F1F80
3F1F00
3F1F00
7F3E00
7F7E00
7FF800
7FFC00
7FFF00
7FFF80
7F1F80
7F1F80
FF1F80
FF3F80
FF7F80
FFFF00
FFFF00
FFFC00
FFF800
FFE000
780000
ENDCHAR
STARTCHAR 0413
ENCODING 1043
SWIDTH 488 0
DWIDTH 19 0
BBX 22 27 2 0
BITMAP
007FFC
07FFFC
0FFFFC
0FFFFC
1FFFFC
1FFFFC
1FE000
1FC000
1FC000
3F8000
3F8000
3F8000
3F8000
3F0000
7F0000
7F0000
7F0000
7F0000
FE0000
FE0000
FE0000
FE0000
FE0000
FE0000
FE0000
FE0000
F80000
ENDCHAR
STARTCHAR 0414
ENCODING 1044
SWIDTH 591 0
DWIDTH 23 0
BBX 23 31 1 -5
BITMAP
0001F0
0003F0
0003F0
0007F0
000FF0
000FF0
001FF0
003FF0
003FF0
007FF0
00FFF0
00FDF0
01F9F0
01F9F0
03FBF0
07F3F0
07F3F8
0FE3F8
0FE3F8
1FC3F8
1FC3F8
7FFFFE
FFFFFC
FFFFFC
FFFFFC
FFFFFC
FC00F8
FC01F8
FC03F0
FC03F0
FC07E0
ENDCHAR
STARTCHAR 0415
ENCODING 1045
SWIDTH 488 0
DWIDTH 19 0
BBX 15 27 5 0
BITMAP
0FFC
3FFE
7FFE
7FFC
7FFC
7FF8
7FF8
7FF8
7F00
7E00
7F00
7FF0
7FF0
7FF0
7FF0
7E00
7E04
7FFC
FFFC
7FFC
7FFC
FFFC
FFFC
FFFC
FFF8
FF80
F000
ENDCHAR
STARTCHAR 0416
ENCODING 1046
SWIDTH 694 0
DWIDTH 27 0
BBX 30 26 1 1
BITMAP
0000000C
0601E07C
07F3F0FC
07F3F1F8
07F3F3F8
07F3F3F8
07FBF7F0
07FFF7F0
07FFEFE0
03FFFFE0
03FFFFC0
03FFFF80
01FFFF00
01FFFF00
03FFFF00
03FFFF80
07FFFF80
07FFFFC0
0FFFFFE0
1FEFDFE0
3FCFDFE0
3FCFDFE0
7FCFDFE0
7F9F9FC0
7F1F8F00
FE1F8000
ENDCHAR
STARTCHAR 0417
ENCODING 1047
SWIDTH 488 0
DWIDTH 19 0
BBX 19 27 3 0
BITMAP
03FE00
0FFF80
1FFF80
1FFFC0
3FFFC0
3FFFE0
3C1FE0
000FC0
000FC0
001FC0
003F80
03FF80
0FFF00
0FFF00
0FFF00
0FFF80
003F80
003F80
003F80
407F80
7FFF80
7FFF00
FFFF00
FFFE00
FFFC00
7FF800
3FE000
ENDCHAR
STARTCHAR 0418
ENCODING 1048
SWIDTH 540 0
DWIDTH 21 0
BBX 21 26 3 0
BITMAP
0FC1F8
1FC7F8
1FC7F8
1FC7F8
3F87F8
3F87F8
3F87F8
3F8FF8
3F9FF0
3F9FF0
3FBFF0
3FBFF0
3F7FF0
3FFFF0
7FFFF0
7FFFF0
7FEFE0
7FEFE0
7FCFE0
7F8FE0
FF8FE0
FF0FE0
FF0FE0
FF1FE0
FE1FE0
0001C0
ENDCHAR
STARTCHAR 0419
ENCODING 1049
SWIDTH 540 0
DWIDTH 21 0
BBX 21 33 3 0
BITMAP
00E0E0
00F3E0
00FFC0
00FF80
007F00
000000
000000
0FC1F8
1FC7F8
1FC7F8
1FC7F8
3F87F8
3F87F8
3F87F8
3F8FF8
3F9FF0
3F9FF0
3FBFF0
3FBFF0
3F7FF0
3FFFF0
7FFFF0
7FFFF0
7FEFE0
7FEFE0
7FCFE0
7F8FE0
FF8FE0
FF0FE0
FF0FE0
FF1FE0
FE1FE0
0001C0
ENDCHAR
STARTCHAR 041A
ENCODING 1050
SWIDTH 540 0
DWIDTH 21 0
BBX 25 27 1 0
BITMAP
00010400
07FF1C00
03FE3F00
07FE7F80
07FE7F00
07FEFE00
0FFDFC00
0FFDF800
0FFFF000
0FFFE000
0FFFC000
1FFFC000
1FFF8000
1FFF0000
3FFE0000
3FFF0000
3FFF8000
3FFF8000
7FFFC000
7FFFE000
7FEFE000
7FE7F000
7FC7F000
FFC3F000
FFE3F000
FFC39000
CF830000
ENDCHAR
STARTCHAR 041B
ENCODING 1051
SWIDTH 591 0
DWIDTH 23 0
BBX 22 25 1 1
BITMAP
003C00
007E00
007E00
007F00
00FF00
00FF80
01FF80
01FF80
01FFC0
03FFC0
03FFE0
07FFE0
07FFE0
0FEFF0
0FEFF0
0FEFF0
1FCFF8
1FCFF8
3FCFF8
3F8FF8
7F8FFC
7F8FFC
7F8FFC
FF03FC
FF001C
ENDCHAR
STARTCHAR 041C
ENCODING 1052
SWIDTH 642 0
DWIDTH 25 0
BBX 26 27 1 0
BITMAP
00400000
00E001C0
00E003C0
00F007C0
00F007C0
01F80FC0
01F81F80
01FC3F80
03FC3FC0
03FC7FC0
07FEFF80
07FFFF80
07FFFF80
0FFFFF80
0FFFFF80
0FFFFF80
1FF77F80
1FE2FF80
1FC0FF00
3FC0FF00
3F81FF00
7F81FF00
7F01FF00
7F01FF00
FE01FF00
FE03FF00
FC000000
ENDCHAR
STARTCHAR 041D
ENCODING 1053
SWIDTH 540 0
DWIDTH 21 0
BBX 25 25 1 1
BITMAP
007F0000
01FE1F80
01FE3F80
01FE3F80
01FE3F80
01FC7F00
03FC7F00
03FC7F00
03FC7F00
07FDFE00
07FFFE00
07FFFE00
0FFFFC00
0FFFFC00
0FFFFC00
1FFFFC00
1FFFFC00
1FE3FC00
3FE3F800
3FE7F800
3FC7F800
3FC7F000
7FC7F000
7FC7F000
FF8F8000
ENDCHAR
STARTCHAR 041E
ENCODING 1054
SWIDTH 514 0
DWIDTH 20 0
BBX 20 27 3 0
BITMAP
007800
00FC00
01FF00
03FF80
07FFC0
07FFC0
0FFFE0
1FFFE0
1FFFF0
3FFFF0
3F8FF0
7F87F0
7F07F0
FF07F0
FF0FF0
FF0FF0
FF9FE0
FFFFE0
FFFFE0
FFFFC0
FFFFC0
FFFF80
7FFF80
7FFF00
3FFE00
1FFC00
07F000
ENDCHAR
STARTCHAR 041F
ENCODING 1055
SWIDTH 540 0
DWIDTH 21 0
BBX 24 26 2 0
BITMAP
0FFFFF
0FFFFF
0FFFFF
1FFFFE
1FFFFE
1FFFFE
1FC0FE
1F80FC
1F81FC
3F81FC
3F81FC
3F81FC
3F81F8
3F83F8
3F83F8
7F83F8
7F03F0
7F03F0
7F07F0
7F07F0
7F07F0
7E07E0
FE07E0
FE0FE0
FE07E0
C00000
ENDCHAR
STARTCHAR 0420
ENCODING 1056
SWIDTH 488 0
DWIDTH 19 0
BBX 21 27 1 0
BITMAP
000E00
01FFC0
03FFF0
03FFF0
03FFF8
07FFF8
07F3F8
07F0F8
07F0F8
0FF0F8
0FF1F8
0FF1F8
0FFFF8
1FFFF0
1FFFE0
1FFFC0
3FFE00
3FE000
3FE000
7FE000
7FE000
7FC000
7FC000
FFC000
FFC000
FFC000
FFC000
ENDCHAR
STARTCHAR 0421
ENCODING 1057
SWIDTH 488 0
DWIDTH 19 0
BBX 20 26 3 0
BITMAP
003FC0
01FFE0
03FFF0
07FFF0
0FFFF0
1FFFF0
3FFFE0
3FF000
7FC000
7F8000
7F8000
7F0000
7F0000
FF8000
FFC380
FFFF80
FFFF80
FFFF80
FFFF80
FFFF00
7FFF00
7FFF00
7FFC00
7FFC00
0FF000
008000
ENDCHAR
STARTCHAR 0422
ENCODING 1058
SWIDTH 565 0
DWIDTH 22 0
BBX 21 26 5 0
BITMAP
3FFFF0
7FFFF8
7FFFF8
7FFFF8
FFFFF8
FFFFF8
FFFFF8
FFFF00
E0FC00
01F800
01F800
01F800
03F000
03F000
03F000
03F000
03E000
07E000
07E000
07E000
07C000
0FC000
0FC000
0FC000
0FC000
0F8000
ENDCHAR
STARTCHAR 0423
ENCODING 1059
SWIDTH 514 0
DWIDTH 20 0
BBX 23 27 1 0
BITMAP
00A038
07F0FE
07F0FE
07F1FC
07F9FC
03F9F8
03FBF8
03FBF8
03FBF0
01FFF0
01FFE0
01FFE0
01FFE0
00FFC0
00FFC0
00FFC0
00FF80
007F80
007F80
3FFF00
3FFF00
7FFF00
7FFE00
7FFC00
7FF800
FFC000
E80000
ENDCHAR
STARTCHAR 0424
ENCODING 1060
SWIDTH 642 0
DWIDTH 25 0
BBX 26 31 3 -2
BITMAP
0007F000
000FF000
000FF000
000FF000
03FFFF80
07FFFF80
0FFFFFC0
1FFFFFC0
1FFFFFC0
3FFFFFC0
3FDFFFC0
3FBFBFC0
7F3FBFC0
7F3FBF80
7E3F3F80
FE7F3F80
FE7F3F80
FE7E7F00
FEFE7F00
FFFCFE00
FFFDFE00
FFFFFC00
FFFFF800
FFFFF000
FFFFE000
FFFFC000
7BFF8000
03F20000
07E00000
07E00000
07800000
ENDCHAR
STARTCHAR 0425
ENCODING 1061
SWIDTH 565 0
DWIDTH 22 0
BBX 25 25 2 1
BITMAP
00C01F80
07E03F80
0FE07F00
1FF07F00
1FF0FE00
1FF1FC00
0FF1FC00
0FFBF800
07FBF800
07FFF000
03FFE000
01FFC000
01FFC000
01FF8000
01FF8000
03FF8000
07FF8000
07FF8000
0FFF8000
1FDFC000
1FCFC000
3F8FC000
7F87C000
7F078000
FF000000
ENDCHAR
STARTCHAR 0426
ENCODING 1062
SWIDTH 514 0
DWIDTH 20 0
BBX 24 30 1 -4
BITMAP
07F03F
07F07F
07F07F
07E07E
07E07E
0FE0FE
0FE0FE
0FC0FE
0FC0FE
1FC0FC
1FC0FC
1F80FC
1F81FC
3F81F8
3F81F8
3F81F8
3F01F8
7F01F8
7FFFF8
7FFFF0
7FFFF0
FFFFF0
FFFFF0
FFFFE0
0003E0
0007E0
0007E0
0007C0
000FC0
000FC0
ENDCHAR
STARTCHAR 0427
ENCODING 1063
SWIDTH 514 0
DWIDTH 20 0
BBX 19 25 4 1
BITMAP
0F87E0
3F0FE0
3F0FE0
7F0FE0
7F0FE0
7E0FC0
7E0FC0
7E0FC0
FE0FC0
FE0FC0
FE1FC0
FE1F80
FFFF80
FFFF80
7FFF80
7FFF80
3FFF80
1FBF00
003F00
003F00
003F00
003F00
007F00
007F00
007F00
ENDCHAR
STARTCHAR 0428
ENCODING 1064
SWIDTH 720 0
DWIDTH 28 0
BBX 30 26 3 0
BITMAP
0F8000FC
1F83F0FC
1F83F1F8
3F87F1F8
3F87E1F8
3F87E1F8
3F07E3F8
3F07E3F8
3F0FE3F0
3F0FC3F0
7F0FC3F0
7F0FC7F0
7F0FC7E0
7E1FC7E0
7E1F87E0
7E1F8FE0
7E1F8FE0
7E1F8FC0
7FFFFFC0
FFFFFFC0
FFFFFFC0
FFFFFFC0
FFFFFF80
FFFFFF80
FFFFFF80
FF000000
ENDCHAR
STARTCHAR 0429
ENCODING 1065
SWIDTH 720 0
DWIDTH 28 0
BBX 30 32 3 -5
BITMAP
00000080
0FC000FC
1FC1E0FC
1FC1E1F8
3FC3E1F8
3FC3E1F8
3FC3E1F0
3F83C3F0
3F87C3F0
3F87C3F0
3F87C7F0
7F87C7E0
7F87C7E0
7F8F87E0
7F8F8FE0
7F0F8FE0
7F0F8FC0
7F1F9FC0
7F1F1FC0
FFFFFFC0
FFFFFF80
FFFFFF80
FFFFFF80
FFFFFF80
FFFFFF00
FFFFFF00
FFFFFF00
00003F00
00007E00
00007E00
0000FE00
0000FC00
ENDCHAR
STARTCHAR 042A
ENCODING 1066
SWIDTH 617 0
DWIDTH 24 0
BBX 21 26 5 1
BITMAP
0FE000
7FE000
7FE000
7FE000
7FE000
7FE000
7FE000
FFE000
07E000
07FF80
07FFE0
07FFF0
07FFF0
07FFF8
07E3F8
0FE1F8
0FC1F8
0FC1F8
0FC1F8
0FC1F8
1FC3F0
1FCFF0
1FFFE0
1FFFE0
1FFF80
1FFC00
ENDCHAR
STARTCHAR 042B
ENCODING 1067
SWIDTH 668 0
DWIDTH 26 0
BBX 28 25 2 1
BITMAP
0FE001F0
0FE001F0
0FE001F0
1FC003F0
1FC003F0
1FC003F0
1FC003F0
1FC003E0
1FFC07E0
1FFF07E0
3FFF87E0
3FFFC7E0
3FFFC7C0
3F0FCFC0
3F07CFC0
3F07CFC0
3F07CFC0
7F07CF80
7F0FDF80
7F1F9F80
7F3F9F80
7FFF9F80
7FFF1F00
FFFC1F00
FFFC3F00
ENDCHAR
STARTCHAR 042C
ENCODING 1068
SWIDTH 488 0
DWIDTH 19 0
BBX 18 27 2 0
BITMAP
07E000
0FE000
0FE000
0FE000
0FC000
1FC000
1FC000
1FC000
1FC000
1FFC00
1FFF00
3FFF80
3FFFC0
3FFFC0
3F9FC0
3F07C0
3F07C0
3F07C0
7F07C0
7F0FC0
7F0FC0
7F1FC0
7FFF80
7FFF80
FFFF00
FFFC00
FFF800
ENDCHAR
STARTCHAR 042D
ENCODING 1069
SWIDTH 488 0
DWIDTH 19 0
BBX 20 27 2 0
BITMAP
001000
01FF80
07FFC0
0FFFE0
0FFFE0
0FFFE0
0FFFF0
1FFFF0
1FFFF0
1F8FF0
1807F0
0003F0
07FFF0
07FFF0
07FFF0
07FFE0
0FFFE0
000FE0
003FC0
7FFFC0
FFFF80
FFFF80
FFFF00
FFFE00
FFF800
7FE000
060000
ENDCHAR
STARTCHAR 042E
ENCODING 1070
SWIDTH 668 0
DWIDTH 26 0
BBX 28 27 1 0
BITMAP
00601F80
00F83FC0
00F87FE0
01F87FE0
01F8FFE0
01F8FFE0
03F9FFF0
03F9FFF0
03F1FFF0
07F3FFF0
07FFF3F0
0FFFE3F0
0FFFE3F0
0FFFC3F0
1FFFC3E0
1FFFC7E0
1FFFC7E0
3FFFC7C0
3FE7FFC0
3FE7FFC0
7FE7FF80
7FC7FF80
7FC3FF00
FFC3FF00
FFC1FE00
0FC0FC00
00007000
ENDCHAR
STARTCHAR 042F
ENCODING 1071
SWIDTH 514 0
DWIDTH 20 0
BBX 23 28 1 -1
BITMAP
0007FC
001FFE
007FFE
01FFFE
03FFFE
07C3FC
0787FC
0F07FC
0F07FC
0F07FC
0F8FFC
0FEFFC
0FFFF8
07FFF8
03FFF8
01FFF8
03FFF8
03FFF8
07FFF8
0FDFF8
0F9FF8
1F9FF0
3F1FF0
3F1FF0
7E3FE0
7E3FE0
FC3F80
FC0000
ENDCHAR
STARTCHAR 0430
ENCODING 1072
SWIDTH 617 0
DWIDTH 24 0
BBX 23 27 1 -1
BITMAP
0000F0
0001F0
0003F0
0003F0
0007F0
0007F0
000FF0
000FF0
001FF0
003FF0
003FF0
007FF0
00FFF8
00FFF8
01E7F8
03E3F8
03C3F8
078FF8
0FFFF8
0FFFF8
1FFFFC
1F87FC
3F07FC
7F07FC
7E07FE
FE07FE
F00000
ENDCHAR
STARTCHAR 0431
ENCODING 1073
SWIDTH 488 0
DWIDTH 19 0
BBX 22 27 2 0
BITMAP
0C0000
07FFE0
07FFFC
07FFF8
07FFF8
0FFFF0
0FFFF0
0FFFF0
0FE000
0FE000
1FE000
1FFF80
1FFFC0
1FFFE0
1FFFE0
3FFFE0
3F87E0
3F87C0
3F87C0
3F8FC0
7F8F80
7FFF80
7FFF00
7FFE00
7FFC00
FFF800
078000
ENDCHAR
STARTCHAR 0432
ENCODING 1074
SWIDTH 514 0
DWIDTH 20 0
BBX 17 27 4 0
BITMAP
07A000
1FFE00
3FFF00
3FFF00
3FFF00
7FFF80
7F3F80
7F1F80
3F1F00
3F1F00
7F3E00
7F7E00
7FF800
7FFC00
7FFF00
7FFF80
7F1F80
7F1F80
FF1F80
FF3F80
FF7F80
FFFF00
FFFF00
FFFC00
FFF800
FFE000
780000
ENDCHAR
STARTCHAR 0433
ENCODING 1075
SWIDTH 488 0
DWIDTH 19 0
BBX 22 27 2 0
BITMAP
007FFC
07FFFC
0FFFFC
0FFFFC
1FFFFC
1FFFFC
1FE000
1FC000
1FC000
3F8000
3F8000
3F8000
3F8000
3F0000
7F0000
7F0000
7F0000
7F0000
FE0000
FE0000
FE0000
FE0000
FE0000
FE0000
FE0000
FE0000
F80000
ENDCHAR
STARTCHAR 0434
ENCODING 1076
SWIDTH 591 0
DWIDTH 23 0
BBX 23 31 1 -5
BITMAP
0001F0
0003F0
0003F0
0007F0
000FF0
000FF0
001FF0
003FF0
003FF0
007FF0
00FFF0
00FDF0
01F9F0
01F9F0
03FBF0
07F3F0
07F3F8
0FE3F8
0FE3F8
1FC3F8
1FC3F8
7FFFFE
FFFFFC
FFFFFC
FFFFFC
FFFFFC
FC00F8
FC01F8
FC03F0
FC03F0
FC07E0
ENDCHAR
STARTCHAR 0435
ENCODING 1077
SWIDTH 488 0
DWIDTH 19 0
BBX 15 27 5 0
BITMAP
0FFC
3FFE
7FFE
7FFC
7FFC
7FF8
7FF8
7FF8
7F00
7E00
7F00
7FF0
7FF0
7FF0
7FF0
7E00
7E04
7FFC
FFFC
7FFC
7FFC
FFFC
FFFC
FFFC
FFF8
FF80
F000
ENDCHAR
STARTCHAR 0436
ENCODING 1078
SWIDTH 694 0
DWIDTH 27 0
BBX 30 26 1 1
BITMAP
0000000C
0601E07C
07F3F0FC
07F3F1F8
07F3F3F8
07F3F3F8
07FBF7F0
07FFF7F0
07FFEFE0
03FFFFE0
03FFFFC0
03FFFF80
01FFFF00
01FFFF00
03FFFF00
03FFFF80
07FFFF80
07FFFFC0
0FFFFFE0
1FEFDFE0
3FCFDFE0
3FCFDFE0
7FCFDFE0
7F9F9FC0
7F1F8F00
FE1F8000
ENDCHAR
STARTCHAR 0437
ENCODING 1079
SWIDTH 488 0
DWIDTH 19 0
BBX 19 27 3 0
BITMAP
03FE00
0FFF80
1FFF80
1FFFC0
3FFFC0
3FFFE0
3C1FE0
000FC0
000FC0
001FC0
003F80
03FF80
0FFF00
0FFF00
0FFF00
0FFF80
003F80
003F80
003F80
407F80
7FFF80
7FFF00
FFFF00
FFFE00
FFFC00
7FF800
3FE000
ENDCHAR
STARTCHAR 0438
ENCODING 1080
SWIDTH 540 0
DWIDTH 21 0
BBX 21 26 3 0
BITMAP
0FC1F8
1FC7F8
1FC7F8
1FC7F8
3F87F8
3F87F8
3F87F8
3F8FF8
3F9FF0
3F9FF0
3FBFF0
3FBFF0
3F7FF0
3FFFF0
7FFFF0
7FFFF0
7FEFE0
7FEFE0
7FCFE0
7F8FE0
FF8FE0
FF0FE0
FF0FE0
FF1FE0
FE1FE0
0001C0
ENDCHAR
STARTCHAR 0439
ENCODING 1081
SWIDTH 540 0
DWIDTH 21 0
BBX 21 33 3 0
BITMAP
00E0E0
00F3E0
00FFC0
00FF80
007F00
000000
000000
0FC1F8
1FC7F8
1FC7F8
1FC7F8
3F87F8
3F87F8
3F87F8
3F8FF8
3F9FF0
3F9FF0
3FBFF0
3FBFF0
3F7FF0
3FFFF0
7FFFF0
7FFFF0
7FEFE0
7FEFE0
7FCFE0
7F8FE0
FF8FE0
FF0FE0
FF0FE0
FF1FE0
FE1FE0
0001C0
ENDCHAR
STARTCHAR 043A
ENCODING 1082
SWIDTH 540 0
DWIDTH 21 0
BBX 25 27 1 0
BITMAP
00010400
07FF1C00
03FE3F00
07FE7F80
07FE7F00
07FEFE00
0FFDFC00
0FFDF800
0FFFF000
0FFFE000
0FFFC000
1FFFC000
1FFF8000
1FFF0000
3FFE0000
3FFF0000
3FFF8000
3FFF8000
7FFFC000
7FFFE000
7FEFE000
7FE7F000
7FC7F000
FFC3F000
FFE3F000
FFC39000
CF830000
ENDCHAR
STARTCHAR 043B
ENCODING 1083
SWIDTH 591 0
DWIDTH 23 0
BBX 22 25 1 1
BITMAP
003C00
007E00
007E00
007F00
00FF00
00FF80
01FF80
01FF80
01FFC0
03FFC0
03FFE0
07FFE0
07FFE0
0FEFF0
0FEFF0
0FEFF0
1FCFF8
1FCFF8
3FCFF8
3F8FF8
7F8FFC
7F8FFC
7F8FFC
FF03FC
FF001C
ENDCHAR
STARTCHAR 043C
ENCODING 1084
SWIDTH 642 0
DWIDTH 25 0
BBX 26 27 1 0
BITMAP
00400000
00E001C0
00E003C0
00F007C0
00F007C0
01F80FC0
01F81F80
01FC3F80
03FC3FC0
03FC7FC0
07FEFF80
07FFFF80
07FFFF80
0FFFFF80
0FFFFF80
0FFFFF80
1FF77F80
1FE2FF80
1FC0FF00
3FC0FF00
3F81FF00
7F81FF00
7F01FF00
7F01FF00
FE01FF00
FE03FF00
FC000000
ENDCHAR
STARTCHAR 043D
ENCODING 1085
SWIDTH 540 0
DWIDTH 21 0
BBX 25 25 1 1
BITMAP
007F0000
01FE1F80
01FE3F80
01FE3F80
01FE3F80
01FC7F00
03FC7F00
03FC7F00
03FC7F00
07FDFE00
07FFFE00
07FFFE00
0FFFFC00
0FFFFC00
0FFFFC00
1FFFFC00
1FFFFC00
1FE3FC00
3FE3F800
3FE7F800
3FC7F800
3FC7F000
7FC7F000
7FC7F000
FF8F8000
ENDCHAR
STARTCHAR 043E
ENCODING 1086
SWIDTH 514 0
DWIDTH 20 0
BBX 20 27 3 0
BITMAP
007800
00FC00
01FF00
03FF80
07FFC0
07FFC0
0FFFE0
1FFFE0
1FFFF0
3FFFF0
3F8FF0
7F87F0
7F07F0
FF07F0
FF0FF0
FF0FF0
FF9FE0
FFFFE0
FFFFE0
FFFFC0
FFFFC0
FFFF80
7FFF80
7FFF00
3FFE00
1FFC00
07F000
ENDCHAR
STARTCHAR 043F
ENCODING 1087
SWIDTH 540 0
DWIDTH 21 0
BBX 24 26 2 0
BITMAP
0FFFFF
0FFFFF
0FFFFF
1FFFFE
1FFFFE
1FFFFE
1FC0FE
1F80FC
1F81FC
3F81FC
3F81FC
3F81FC
3F81F8
3F83F8
3F83F8
7F83F8
7F03F0
7F03F0
7F07F0
7F07F0
7F07F0
7E07E0
FE07E0
FE0FE0
FE07E0
C00000
ENDCHAR
STARTCHAR 0440
ENCODING 1088
SWIDTH 488 0
DWIDTH 19 0
BBX 21 27 1 0
BITMAP
000E00
01FFC0
03FFF0
03FFF0
03FFF8
07FFF8
07F3F8
07F0F8
07F0F8
0FF0F8
0FF1F8
0FF1F8
0FFFF8
1FFFF0
1FFFE0
1FFFC0
3FFE00
3FE000
3FE000
7FE000
7FE000
7FC000
7FC000
FFC000
FFC000
FFC000
FFC000
ENDCHAR
STARTCHAR 0441
ENCODING 1089
SWIDTH 488 0
DWIDTH 19 0
BBX 20 26 3 0
BITMAP
003FC0
01FFE0
03FFF0
07FFF0
0FFFF0
1FFFF0
3FFFE0
3FF000
7FC000
7F8000
7F8000
7F0000
7F0000
FF8000
FFC380
FFFF80
FFFF80
FFFF80
FFFF80
FFFF00
7FFF00
7FFF00
7FFC00
7FFC00
0FF000
008000
ENDCHAR
STARTCHAR 0442
ENCODING 1090
SWIDTH 565 0
DWIDTH 22 0
BBX 21 26 5 0
BITMAP
3FFFF0
7FFFF8
7FFFF8
7FFFF8
FFFFF8
FFFFF8
FFFFF8
FFFF00
E0FC00
01F800
01F800
01F800
03F000
03F000
03F000
03F000
03E000
07E000
07E000
07E000
07C000
0FC000
0FC000
0FC000
0FC000
0F8000
ENDCHAR
STARTCHAR 0443
ENCODING 1091
SWIDTH 514 0
DWIDTH 20 0
BBX 23 27 1 0
BITMAP
00A038
07F0FE
07F0FE
07F1FC
07F9FC
03F9F8
03FBF8
03FBF8
03FBF0
01FFF0
01FFE0
01FFE0
01FFE0
00FFC0
00FFC0
00FFC0
00FF80
007F80
007F80
3FFF00
3FFF00
7FFF00
7FFE00
7FFC00
7FF800
FFC000
E80000
ENDCHAR
STARTCHAR 0444
ENCODING 1092
SWIDTH 642 0
DWIDTH 25 0
BBX 26 31 3 -2
BITMAP
0007F000
000FF000
000FF000
000FF000
03FFFF80
07FFFF80
0FFFFFC0
1FFFFFC0
1FFFFFC0
3FFFFFC0
3FDFFFC0
3FBFBFC0
7F3FBFC0
7F3FBF80
7E3F3F80
FE7F3F80
FE7F3F80
FE7E7F00
FEFE7F00
FFFCFE00
FFFDFE00
FFFFFC00
FFFFF800
FFFFF000
FFFFE000
FFFFC000
7BFF8000
03F20000
07E00000
07E00000
07800000
ENDCHAR
STARTCHAR 0445
ENCODING 1093
SWIDTH 565 0
DWIDTH 22 0
BBX 25 25 2 1
BITMAP
00C01F80
07E03F80
0FE07F00
1FF07F00
1FF0FE00
1FF1FC00
0FF1FC00
0FFBF800
07FBF800
07FFF000
03FFE000
01FFC000
01FFC000
01FF8000
01FF8000
03FF8000
07FF8000
07FF8000
0FFF8000
1FDFC000
1FCFC000
3F8FC000
7F87C000
7F078000
FF000000
ENDCHAR
STARTCHAR 0446
ENCODING 1094
SWIDTH 514 0
DWIDTH 20 0
BBX 24 30 1 -4
BITMAP
07F03F
07F07F
07F07F
07E07E
07E07E
0FE0FE
0FE0FE
0FC0FE
0FC0FE
1FC0FC
1FC0FC
1F80FC
1F81FC
3F81F8
3F81F8
3F81F8
3F01F8
7F01F8
7FFFF8
7FFFF0
7FFFF0
FFFFF0
FFFFF0
FFFFE0
0003E0
0007E0
0007E0
0007C0
000FC0
000FC0
ENDCHAR
STARTCHAR 0447
ENCODING 1095
SWIDTH 514 0
DWIDTH 20 0
BBX 19 25 4 1
BITMAP
0F87E0
3F0FE0
3F0FE0
7F0FE0
7F0FE0
7E0FC0
7E0FC0
7E0FC0
FE0FC0
FE0FC0
FE1FC0
FE1F80
FFFF80
FFFF80
7FFF80
7FFF80
3FFF80
1FBF00
003F00
003F00
003F00
003F00
007F00
007F00
007F00
ENDCHAR
STARTCHAR 0448
ENCODING 1096
SWIDTH 720 0
DWIDTH 28 0
BBX 30 26 3 0
BITMAP
0F8000FC
1F83F0FC
1F83F1F8
3F87F1F8
3F87E1F8
3F87E1F8
3F07E3F8
3F07E3F8
3F0FE3F0
3F0FC3F0
7F0FC3F0
7F0FC7F0
7F0FC7E0
7E1FC7E0
7E1F87E0
7E1F8FE0
7E1F8FE0
7E1F8FC0
7FFFFFC0
FFFFFFC0
FFFFFFC0
FFFFFFC0
FFFFFF80
FFFFFF80
FFFFFF80
FF000000
ENDCHAR
STARTCHAR 0449
ENCODING 1097
SWIDTH 720 0
DWIDTH 28 0
BBX 30 32 3 -5
BITMAP
00000080
0FC000FC
1FC1E0FC
1FC1E1F8
3FC3E1F8
3FC3E1F8
3FC3E1F0
3F83C3F0
3F87C3F0
3F87C3F0
3F87C7F0
7F87C7E0
7F87C7E0
7F8F87E0
7F8F8FE0
7F0F8FE0
7F0F8FC0
7F1F9FC0
7F1F1FC0
FFFFFFC0
FFFFFF80
FFFFFF80
FFFFFF80
FFFFFF80
FFFFFF00
FFFFFF00
FFFFFF00
00003F00
00007E00
00007E00
0000FE00
0000FC00
ENDCHAR
STARTCHAR 044A
ENCODING 1098
SWIDTH 617 0
DWIDTH 24 0
BBX 21 26 5 1
BITMAP
0FE000
7FE000
7FE000
7FE000
7FE000
7FE000
7FE000
FFE000
07E000
07FF80
07FFE0
07FFF0
07FFF0
07FFF8
07E3F8
0FE1F8
0FC1F8
0FC1F8
0FC1F8
0FC1F8
1FC3F0
1FCFF0
1FFFE0
1FFFE0
1FFF80
1FFC00
ENDCHAR
STARTCHAR 044B
ENCODING 1099
SWIDTH 668 0
DWIDTH 26 0
BBX 28 25 2 1
BITMAP
0FE001F0
0FE001F0
0FE001F0
1FC003F0
1FC003F0
1FC003F0
1FC003F0
1FC003E0
1FFC07E0
1FFF07E0
3FFF87E0
3FFFC7E0
3FFFC7C0
3F0FCFC0
3F07CFC0
3F07CFC0
3F07CFC0
7F07CF80
7F0FDF80
7F1F9F80
7F3F9F80
7FFF9F80
7FFF1F00
FFFC1F00
FFFC3F00
ENDCHAR
STARTCHAR 044C
ENCODING 1100
SWIDTH 488 0
DWIDTH 19 0
BBX 18 27 2 0
BITMAP
07E000
0FE000
0FE000
0FE000
0FC000
1FC000
1FC000
1FC000
1FC000
1FFC00
1FFF00
3FFF80
3FFFC0
3FFFC0
3F9FC0
3F07C0
3F07C0
3F07C0
7F07C0
7F0FC0
7F0FC0
7F1FC0
7FFF80
7FFF80
FFFF00
FFFC00
FFF800
ENDCHAR
STARTCHAR 044D
ENCODING 1101
SWIDTH 488 0
DWIDTH 19 0
BBX 20 27 2 0
BITMAP
001000
01FF80
07FFC0
0FFFE0
0FFFE0
0FFFE0
0FFFF0
1FFFF0
1FFFF0
1F8FF0
1807F0
0003F0
07FFF0
07FFF0
07FFF0
07FFE0
0FFFE0
000FE0
003FC0
7FFFC0
FFFF80
FFFF80
FFFF00
FFFE00
FFF800
7FE000
060000
ENDCHAR
STARTCHAR 044E
ENCODING 1102
SWIDTH 668 0
DWIDTH 26 0
BBX 28 27 1 0
BITMAP
00601F80
00F83FC0
00F87FE0
01F87FE0
01F8FFE0
01F8FFE0
03F9FFF0
03F9FFF0
03F1FFF0
07F3FFF0
07FFF3F0
0FFFE3F0
0FFFE3F0
0FFFC3F0
1FFFC3E0
1FFFC7E0
1FFFC7E0
3FFFC7C0
3FE7FFC0
3FE7FFC0
7FE7FF80
7FC7FF80
7FC3FF00
FFC3FF00
FFC1FE00
0FC0FC00
00007000
ENDCHAR
STARTCHAR 044F
ENCODING 1103
SWIDTH 514 0
DWIDTH 20 0
BBX 23 28 1 -1
BITMAP
0007FC
001FFE
007FFE
01FFFE
03FFFE
07C3FC
0787FC
0F07FC
0F07FC
0F07FC
0F8FFC
0FEFFC
0FFFF8
07FFF8
03FFF8
01FFF8
03FFF8
03FFF8
07FFF8
0FDFF8
0F9FF8
1F9FF0
3F1FF0
3F1FF0
7E3FE0
7E3FE0
FC3F80
FC0000
ENDCHAR
STARTCHAR 0450
ENCODING 1104
SWIDTH 488 0
DWIDTH 19 0
BBX 15 34 5 0
BITMAP
0F00
1F80
1F80
0FC0
07C0
03C0
0000
0FFC
3FFE
7FFE
7FFC
7FFC
7FF8
7FF8
7FF8
7F00
7E00
7F00
7FF0
7FF0
7FF0
7FF0
7E00
7E04
7FFC
FFFC
7FFC
7FFC
FFFC
FFFC
FFFC
FFF8
FF80
F000
ENDCHAR
STARTCHAR 0451
ENCODING 1105
SWIDTH 488 0
DWIDTH 19 0
BBX 15 32 5 0
BITMAP
0078
1C78
3C78
3C70
1800
0FFC
3FFE
7FFE
7FFC
7FFC
7FF8
7FF8
7FF8
7F00
7E00
7F00
7FF0
7FF0
7FF0
7FF0
7E00
7E04
7FFC
FFFC
7FFC
7FFC
FFFC
FFFC
FFFC
FFF8
FF80
F000
ENDCHAR
STARTCHAR 0452
ENCODING 1106
SWIDTH 668 0
DWIDTH 26 0
BBX 23 32 5 -5
BITMAP
0FFFF8
3FFFFC
7FFFFC
7FFFF8
FFFFF8
FFFFF8
01FC00
01FC00
01FC00
01FFF0
01FFF8
03FFFC
03FFFE
03FFFE
03FFFE
03F0FE
03F0FE
07F0FE
07E0FE
07E0FC
07E0FC
07E0FC
0FC0FC
0FC0F8
0FC0F8
0FC1F8
0FC3F8
000FF0
000FF0
001FE0
001FC0
001C00
ENDCHAR
STARTCHAR 0453
ENCODING 1107
SWIDTH 488 0
DWIDTH 19 0
BBX 22 34 2 0
BITMAP
0001F0
0003F0
0003E0
0007C0
000F80
001E00
000000
007FFC
07FFFC
0FFFFC
0FFFFC
1FFFFC
1FFFFC
1FE000
1FC000
1FC000
3F8000
3F8000
3F8000
3F8000
3F0000
7F0000
7F0000
7F0000
7F0000
FE0000
FE0000
FE0000
FE0000
FE0000
FE0000
FE0000
FE0000
F80000
ENDCHAR
STARTCHAR 0454
ENCODING 1108
SWIDTH 488 0
DWIDTH 19 0
BBX 20 27 3 0
BITMAP
000600
007FC0
01FFF0
03FFF0
07FFF0
0FFFF0
1FFFF0
1FFFE0
3FFFE0
3FCFE0
7F8040
7F0000
7FFE00
FFFE00
FFFE00
FFFE00
FFFE00
FE0000
FF0080
FFFF80
FFFF80
FFFF80
7FFF80
7FFF80
3FFE00
0FFC00
01C000
ENDCHAR
STARTCHAR 0455
ENCODING 1109
SWIDTH 488 0
DWIDTH 19 0
BBX 23 27 1 0
BITMAP
0007F0
003FFE
00FFFE
00FFFC
01FFF8
03FFF8
03FFF0
07FFE0
07FFE0
07FFC0
0FE0C0
07E000
07FC00
07FF00
07FFC0
01FFC0
003FE0
000FE0
000FE0
301FE0
7FFFE0
7FFFC0
7FFFC0
FFFF80
7FFF00
3FFC00
0FF000
ENDCHAR
STARTCHAR 0456
ENCODING 1110
SWIDTH 334 0
DWIDTH 13 0
BBX 17 26 1 0
BITMAP
00FF80
00FF00
00FF00
01FE00
01FE00
01FE00
03FC00
03FC00
03FC00
07FC00
07F800
07F800
0FF800
0FF800
0FF000
0FF000
1FF000
1FF000
1FF000
1FE000
3FE000
3FC000
3FC000
7FC000
7F8000
F80000
ENDCHAR
STARTCHAR 0457
ENCODING 1111
SWIDTH 334 0
DWIDTH 13 0
BBX 19 32 1 0
BITMAP
0000C0
0071E0
00F1E0
00F1C0
006080
000000
00FF80
00FF00
00FF00
01FE00
01FE00
01FE00
03FC00
03FC00
03FC00
07FC00
07F800
07F800
0FF800
0FF800
0FF000
0FF000
1FF000
1FF000
1FF000
1FE000
3FE000
3FC000
3FC000
7FC000
7F8000
F80000
ENDCHAR
STARTCHAR 0458
ENCODING 1112
SWIDTH 437 0
DWIDTH 17 0
BBX 20 26 2 0
BITMAP
000FF0
001FF0
001FF0
003FF0
003FE0
003FE0
007FE0
007FE0
007FE0
007FE0
007FE0
00FFC0
00FFC0
00FFC0
007FC0
007F80
007F80
3C7F80
FC7F00
FEFF00
FEFE00
FFFE00
FFFC00
7FF800
3FE000
0FC000
ENDCHAR
STARTCHAR 0459
ENCODING 1113
SWIDTH 720 0
DWIDTH 28 0
BBX 28 26 1 0
BITMAP
000FFE00
001FFE00
001FFE00
003FFE00
003FFE00
007FFC00
007FFC00
00FFFC00
00FFFE00
01FFFFC0
01FDFFE0
03F9FFF0
03FBFFF0
07F3FFF0
07F3F1F0
0FE3E0F0
0FE3E0F0
1FC7E1F0
3FC7E1F0
3F87E3F0
7F8FE7F0
7F8FFFE0
7F0FFFE0
FF0FFFC0
FF1FFF00
0003FF00
ENDCHAR
STARTCHAR 045A
ENCODING 1114
SWIDTH 720 0
DWIDTH 28 0
BBX 28 26 1 0
BITMAP
00FE3E00
01FC7E00
01FC7E00
01FC7E00
01FCFE00
03F8FC00
03F8FC00
03F8FC00
07F9FE00
07F9FFC0
07FFFFE0
0FFFFFF0
0FFFFFF0
0FFFFFF0
1FFFF1F0
1FFFE0F0
1FFFE0F0
1FC7E1F0
3FC7E1F0
3FC7E3F0
3F8FE7F0
7F8FFFE0
7F8FFFE0
7F8FFFC0
FF1FFF00
0003FF00
ENDCHAR
STARTCHAR 045B
ENCODING 1115
SWIDTH 668 0
DWIDTH 26 0
BBX 23 27 5 0
BITMAP
0FFFF8
3FFFFC
7FFFFC
7FFFF8
FFFFF8
FFFFF8
01FC00
01FC00
01FC00
01FFF0
01FFF8
03FFFC
03FFFE
03FFFE
03FFFE
03F0FE
03F0FE
07F0FE
07E0FE
07E0FC
07E0FC
07E1FC
0FC1FC
0FC1F8
0FC1F8
0FC1F8
0FC1F0
ENDCHAR
STARTCHAR 045C
ENCODING 1116
SWIDTH 540 0
DWIDTH 21 0
BBX 25 34 1 0
BITMAP
00000F80
00001F80
00003F00
00003E00
00007800
0000F000
00000000
00010400
07FF1C00
03FE3F00
07FE7F80
07FE7F00
07FEFE00
0FFDFC00
0FFDF800
0FFFF000
0FFFE000
0FFFC000
1FFFC000
1FFF8000
1FFF0000
3FFE0000
3FFF0000
3FFF8000
3FFF8000
7FFFC000
7FFFE000
7FEFE000
7FE7F000
7FC7F000
FFC3F000
FFE3F000
FFC39000
CF830000
ENDCHAR
STARTCHAR 045D
ENCODING 1117
SWIDTH 540 0
DWIDTH 21 0
BBX 21 34 3 0
BITMAP
00F000
01F800
00F800
007C00
007C00
003C00
000000
000000
0FC1F8
1FC7F8
1FC7F8
1FC7F8
3F87F8
3F87F8
3F87F8
3F8FF8
3F9FF0
3F9FF0
3FBFF0
3FBFF0
3F7FF0
3FFFF0
7FFFF0
7FFFF0
7FEFE0
7FEFE0
7FCFE0
7F8FE0
FF8FE0
FF0FE0
FF0FE0
FF1FE0
FE1FE0
0001C0
ENDCHAR
STARTCHAR 045E
ENCODING 1118
SWIDTH 514 0
DWIDTH 20 0
BBX 23 33 1 0
BITMAP
003838
003CF8
003FF0
003FE0
001FC0
000000
00A038
07F0FE
07F0FE
07F1FC
07F9FC
03F9F8
03FBF8
03FBF8
03FBF0
01FFF0
01FFE0
01FFE0
01FFE0
00FFC0
00FFC0
00FFC0
00FF80
007F80
007F80
3FFF00
3FFF00
7FFF00
7FFE00
7FFC00
7FF800
FFC000
E80000
ENDCHAR
STARTCHAR 045F
ENCODING 1119
SWIDTH 514 0
DWIDTH 20 0
BBX 24 31 1 -5
BITMAP
000002
07E07F
07E07F
07E07E
07E07E
0FE0FE
0FE0FE
0FC0FC
1FC0FC
1FC0FC
1FC1FC
1F81FC
1F81FC
3F81F8
3F01F8
3F01F8
3F03F8
7F03F8
7E03F8
7FFFF0
7FFFF0
7FFFF0
FFFFF0
FFFFF0
FFFFE0
01F000
03F000
03F000
03F000
03E000
03E000
ENDCHAR
STARTCHAR 0462
ENCODING 1122
SWIDTH 617 0
DWIDTH 24 0
BBX 21 27 5 0
BITMAP
01F800
03F800
03F800
7FFFE0
7FFFE0
FFFFE0
FFFFE0
FFFE40
07F000
07FF00
07FFC0
07FFE0
07FFF0
0FFFF0
0FE7F0
0FC1F8
0FC1F8
0FC1F8
0FC1F8
1FC3F0
1FC3F0
1FC7F0
1FFFF0
1FFFE0
1FFFC0
3FFF80
1FFE00
ENDCHAR
STARTCHAR 0463
ENCODING 1123
SWIDTH 617 0
DWIDTH 24 0
BBX 21 27 5 0
BITMAP
01F800
03F800
03F800
7FFFE0
7FFFE0
FFFFE0
FFFFE0
FFFE40
07F000
07FF00
07FFC0
07FFE0
07FFF0
0FFFF0
0FE7F0
0FC1F8
0FC1F8
0FC1F8
0FC1F8
1FC3F0
1FC3F0
1FC7F0
1FFFF0
1FFFE0
1FFFC0
3FFF80
1FFE00
ENDCHAR
STARTCHAR 0474
ENCODING 1140
SWIDTH 565 0
DWIDTH 22 0
BBX 21 26 6 0
BITMAP
7801F8
FC07F8
FC0FF8
FC0FF0
FC1FF0
FC1FF0
FC3FF0
FC3F00
FC7E00
FC7E00
FEFC00
FEFC00
FFF800
7FF800
7FF000
7FF000
7FE000
7FE000
7FC000
7FC000
7F8000
7F8000
7F0000
7E0000
7C0000
1C0000
ENDCHAR
STARTCHAR 0475
ENCODING 1141
SWIDTH 565 0
DWIDTH 22 0
BBX 21 26 6 0
BITMAP
7801F8
FC07F8
FC0FF8
FC0FF0
FC1FF0
FC1FF0
FC3FF0
FC3F00
FC7E00
FC7E00
FEFC00
FEFC00
FFF800
7FF800
7FF000
7FF000
7FE000
7FE000
7FC000
7FC000
7F8000
7F8000
7F0000
7E0000
7C0000
1C0000
ENDCHAR
STARTCHAR 0476
ENCODING 1142
SWIDTH 565 0
DWIDTH 22 0
BBX 21 34 6 0
BITMAP
3E7C00
3E7C00
3F7C00
1F3E00
0F1E00
079E00
000000
000000
7801F8
FC07F8
FC0FF8
FC0FF0
FC1FF0
FC1FF0
FC3FF0
FC3F00
FC7E00
FC7E00
FEFC00
FEFC00
FFF800
7FF800
7FF000
7FF000
7FE000
7FE000
7FC000
7FC000
7F8000
7F8000
7F0000
7E0000
7C0000
1C0000
ENDCHAR
STARTCHAR 0477
ENCODING 1143
SWIDTH 565 0
DWIDTH 22 0
BBX 21 34 6 0
BITMAP
3E7C00
3E7C00
3F7C00
1F3E00
0F1E00
079E00
000000
000000
7801F8
FC07F8
FC0FF8
FC0FF0
FC1FF0
FC1FF0
FC3FF0
FC3F00
FC7E00
FC7E00
FEFC00
FEFC00
FFF800
7FF800
7FF000
7FF000
7FE000
7FE000
7FC000
7FC000
7F8000
7F8000
7F0000
7E0000
7C0000
1C0000
ENDCHAR
STARTCHAR 0480
ENCODING 1152
SWIDTH 488 0
DWIDTH 19 0
BBX 21 32 3 -5
BITMAP
001FF8
007FF8
03FFF8
07FFF8
0FFFF0
0FFFF0
1FFFF0
3FF800
3FC000
7F8000
7F0000
7E0000
7E0000
FC0000
FC0000
FC0000
FC0000
FC0000
FC0000
FC0100
FFDF80
FFFF80
FFFF80
7FFF80
7FFF80
3FFF00
0FFF00
007F00
007F00
007F00
007E00
00FE00
ENDCHAR
STARTCHAR 0481
ENCODING 1153
SWIDTH 488 0
DWIDTH 19 0
BBX 21 32 3 -5
BITMAP
001FF8
007FF8
03FFF8
07FFF8
0FFFF0
0FFFF0
1FFFF0
3FF800
3FC000
7F8000
7F0000
7E0000
7E0000
FC0000
FC0000
FC0000
FC0000
FC0000
FC0000
FC0100
FFDF80
FFFF80
FFFF80
7FFF80
7FFF80
3FFF00
0FFF00
007F00
007F00
007F00
007E00
00FE00
ENDCHAR
STARTCHAR 048C
ENCODING 1164
SWIDTH 540 0
DWIDTH 21 0
BBX 18 27 4 0
BITMAP
07E000
0FE000
0FE000
3FFC00
3FFC00
7FFC00
7FF800
7FE800
1FC000
1FFC00
1FFF00
3FFF80
3FFFC0
3FFFC0
3F9FC0
3F07C0
3F07C0
3F07C0
7F07C0
7F0FC0
7F0FC0
7F1FC0
7FFF80
7FFF80
FFFF00
FFFC00
FFF800
ENDCHAR
STARTCHAR 048D
ENCODING 1165
SWIDTH 540 0
DWIDTH 21 0
BBX 18 27 4 0
BITMAP
07E000
0FE000
0FE000
3FFC00
3FFC00
7FFC00
7FF800
7FE800
1FC000
1FFC00
1FFF00
3FFF80
3FFFC0
3FFFC0
3F9FC0
3F07C0
3F07C0
3F07C0
7F07C0
7F0FC0
7F0FC0
7F1FC0
7FFF80
7FFF80
FFFF00
FFFC00
FFF800
ENDCHAR
STARTCHAR 0490
ENCODING 1168
SWIDTH 488 0
DWIDTH 19 0
BBX 24 33 2 0
BITMAP
00007E
00007F
00007E
00007E
0000FE
0000FE
007FFE
07FFFE
0FFFFC
0FFFFC
1FFFFC
1FFFFC
1FE000
1FC000
1FC000
3F8000
3F8000
3F8000
3F8000
3F0000
7F0000
7F0000
7F0000
7E0000
FE0000
FE0000
FE0000
FE0000
FE0000
FE0000
FE0000
FE0000
F80000
ENDCHAR
STARTCHAR 0491
ENCODING 1169
SWIDTH 488 0
DWIDTH 19 0
BBX 24 33 2 0
BITMAP
00007E
00007F
00007E
00007E
0000FE
0000FE
007FFE
07FFFE
0FFFFC
0FFFFC
1FFFFC
1FFFFC
1FE000
1FC000
1FC000
3F8000
3F8000
3F8000
3F8000
3F0000
7F0000
7F0000
7F0000
7E0000
FE0000
FE0000
FE0000
FE0000
FE0000
FE0000
FE0000
FE0000
F80000
ENDCHAR
STARTCHAR 0492
ENCODING 1170
SWIDTH 540 0
DWIDTH 21 0
BBX 23 27 3 0
BITMAP
00BFFE
03FFFE
07FFFE
0FFFFE
0FFFFE
0FFFFC
0FF000
0FE000
1FE000
1FC000
1FC000
1FC000
1F8C00
FFFE00
FFFE00
FFFE00
FFFE00
FFFC00
7F0000
7F0000
7F0000
7F0000
7F0000
7F0000
7F0000
7F0000
780000
ENDCHAR
STARTCHAR 0493
ENCODING 1171
SWIDTH 540 0
DWIDTH 21 0
BBX 23 27 3 0
BITMAP
00BFFE
03FFFE
07FFFE
0FFFFE
0FFFFE
0FFFFC
0FF000
0FE000
1FE000
1FC000
1FC000
1FC000
1F8C00
FFFE00
FFFE00
FFFE00
FFFE00
FFFC00
7F0000
7F0000
7F0000
7F0000
7F0000
7F0000
7F0000
7F0000
780000
ENDCHAR
STARTCHAR 0496
ENCODING 1174
SWIDTH 694 0
DWIDTH 27 0
BBX 29 32 1 -5
BITMAP
00000018
0601E0F8
07F3F1F8
07F7E3F0
07F7E3F0
07F7E7F0
07F7EFE0
07F7EFE0
07F7FFC0
03FFFFC0
03FFFF80
03FFFF00
01FFFE00
01FFFE00
03FFFE00
03FFFF00
07FFFF00
0FFFFF80
0FFFFFC0
1FCFBFC0
3FDFBFC0
3FDFBFE0
7F9FBFE0
7F9F9FE0
FF1F9FE0
FE1F07C0
000007C0
00000FC0
00000F80
00000F80
00000F80
00001F00
ENDCHAR
STARTCHAR 0497
ENCODING 1175
SWIDTH 694 0
DWIDTH 27 0
BBX 29 32 1 -5
BITMAP
00000018
0601E0F8
07F3F1F8
07F7E3F0
07F7E3F0
07F7E7F0
07F7EFE0
07F7EFE0
07F7FFC0
03FFFFC0
03FFFF80
03FFFF00
01FFFE00
01FFFE00
03FFFE00
03FFFF00
07FFFF00
0FFFFF80
0FFFFFC0
1FCFBFC0
3FDFBFC0
3FDFBFE0
7F9FBFE0
7F9F9FE0
FF1F9FE0
FE1F07C0
000007C0
00000FC0
00000F80
00000F80
00000F80
00001F00
ENDCHAR
STARTCHAR 0498
ENCODING 1176
SWIDTH 488 0
DWIDTH 19 0
BBX 19 34 3 -7
BITMAP
03FE00
0FFF80
1FFF80
1FFFC0
3FFFC0
3FFFE0
3C1FE0
000FC0
000FC0
001FC0
003F80
03FF80
0FFF00
0FFF00
0FFF00
0FFF80
003F80
003F80
003F80
407F80
7FFF80
7FFF00
FFFF00
FFFE00
FFFC00
7FF800
3FE000
03C000
03E000
01F000
30F800
3FF000
3FE000
020000
ENDCHAR
STARTCHAR 0499
ENCODING 1177
SWIDTH 488 0
DWIDTH 19 0
BBX 19 34 3 -7
BITMAP
03FE00
0FFF80
1FFF80
1FFFC0
3FFFC0
3FFFE0
3C1FE0
000FC0
000FC0
001FC0
003F80
03FF80
0FFF00
0FFF00
0FFF00
0FFF80
003F80
003F80
003F80
407F80
7FFF80
7FFF00
FFFF00
FFFE00
FFFC00
7FF800
3FE000
03C000
03E000
01F000
30F800
3FF000
3FE000
020000
ENDCHAR
STARTCHAR 049A
ENCODING 1178
SWIDTH 540 0
DWIDTH 21 0
BBX 24 32 1 -5
BITMAP
000008
07FE1C
03FE3E
07FE7F
07FCFE
07FDFC
0FFDF8
0FFFF0
0FFFE0
0FFFC0
1FFFC0
1FFF80
1FFF00
1FFE00
3FFE00
3FFE00
3FFF00
3FFF80
7FFF80
7FFFC0
7FEFC0
7FCFF8
7FC7F8
FFC7F8
FFC7F0
FFC3F0
8F83F0
0003E0
0003E0
0003E0
0007C0
0007C0
ENDCHAR
STARTCHAR 049B
ENCODING 1179
SWIDTH 540 0
DWIDTH 21 0
BBX 24 32 1 -5
BITMAP
000008
07FE1C
03FE3E
07FE7F
07FCFE
07FDFC
0FFDF8
0FFFF0
0FFFE0
0FFFC0
1FFFC0
1FFF80
1FFF00
1FFE00
3FFE00
3FFE00
3FFF00
3FFF80
7FFF80
7FFFC0
7FEFC0
7FCFF8
7FC7F8
FFC7F8
FFC7F0
FFC3F0
8F83F0
0003E0
0003E0
0003E0
0007C0
0007C0
ENDCHAR
STARTCHAR 04A0
ENCODING 1184
SWIDTH 617 0
DWIDTH 24 0
BBX 25 27 4 0
BITMAP
00010400
3FFF1C00
3FFE3F00
3FFE7F80
7FFE7F00
7FFEFE00
7FFDFC00
7FFDF800
0FFFF000
0FFFE000
0FFFC000
1FFFC000
1FFF8000
1FFF0000
3FFE0000
3FFF0000
3FFF8000
3FFF8000
7FFFC000
7FFFE000
7FEFE000
7FE7F000
7FC7F000
7FC3F000
FFE3F000
FFC39000
CF830000
ENDCHAR
STARTCHAR 04A1
ENCODING 1185
SWIDTH 617 0
DWIDTH 24 0
BBX 25 27 4 0
BITMAP
00010400
3FFF1C00
3FFE3F00
3FFE7F80
7FFE7F00
7FFEFE00
7FFDFC00
7FFDF800
0FFFF000
0FFFE000
0FFFC000
1FFFC000
1FFF8000
1FFF0000
3FFE0000
3FFF0000
3FFF8000
3FFF8000
7FFFC000
7FFFE000
7FEFE000
7FE7F000
7FC7F000
7FC3F000
FFE3F000
FFC39000
CF830000
ENDCHAR
STARTCHAR 04A2
ENCODING 1186
SWIDTH 540 0
DWIDTH 21 0
BBX 25 31 1 -5
BITMAP
007F0080
01FE3F80
01FC3F00
01FE3F00
01FC7F00
03FC7F00
03FC7E00
03F8FE00
07F8FE00
07F9FC00
07FFFC00
0FFFFC00
0FFFF800
0FFFF800
0FFFFC00
1FFFF800
1FFFF800
1FE7F800
3FC7F000
3FC7F000
3FC7F800
3FCFF800
7FCFF800
7F8FF800
FF8FF000
0001F000
0001F000
0003E000
0003E000
0003E000
0007C000
ENDCHAR
STARTCHAR 04A3
ENCODING 1187
SWIDTH 540 0
DWIDTH 21 0
BBX 25 31 1 -5
BITMAP
007F0080
01FE3F80
01FC3F00
01FE3F00
01FC7F00
03FC7F00
03FC7E00
03F8FE00
07F8FE00
07F9FC00
07FFFC00
0FFFFC00
0FFFF800
0FFFF800
0FFFFC00
1FFFF800
1FFFF800
1FE7F800
3FC7F000
3FC7F000
3FC7F800
3FCFF800
7FCFF800
7F8FF800
FF8FF000
0001F000
0001F000
0003E000
0003E000
0003E000
0007C000
ENDCHAR
STARTCHAR 04A4
ENCODING 1188
SWIDTH 642 0
DWIDTH 25 0
BBX 29 25 1 1
BITMAP
007F0FF8
01FE1FF8
01FE3FF8
01FE3FF8
01FE3FF0
01FC7FF0
03FC7FF0
03FC7F00
03FC7F00
07FDFE00
07FFFE00
07FFFE00
0FFFFC00
0FFFFC00
0FFFFC00
1FFFFC00
1FFFFC00
1FE3FC00
3FE3F800
3FE7F800
3FC7F800
3FC7F000
7FC7F000
7FC7F000
FF8F8000
ENDCHAR
STARTCHAR 04A5
ENCODING 1189
SWIDTH 642 0
DWIDTH 25 0
BBX 29 25 1 1
BITMAP
007F0FF8
01FE1FF8
01FE3FF8
01FE3FF8
01FE3FF0
01FC7FF0
03FC7FF0
03FC7F00
03FC7F00
07FDFE00
07FFFE00
07FFFE00
0FFFFC00
0FFFFC00
0FFFFC00
1FFFFC00
1FFFFC00
1FE3FC00
3FE3F800
3FE7F800
3FC7F800
3FC7F000
7FC7F000
7FC7F000
FF8F8000
ENDCHAR
STARTCHAR 04AA
ENCODING 1194
SWIDTH 488 0
DWIDTH 19 0
BBX 20 33 3 -7
BITMAP
003FC0
00FFE0
03FFF0
07FFF0
0FFFF0
1FFFF0
3FFFE0
3FF000
7FC000
7F8000
7F8000
7F0000
7F0000
FF8000
FFC380
FFFF80
FFFF80
FFFF80
FFFF80
FFFF00
7FFF00
7FFF00
7FFC00
7FFC00
0FF000
0F8000
0F0000
0F8000
03C000
E3E000
FFC000
FF8000
080000
ENDCHAR
STARTCHAR 04AB
ENCODING 1195
SWIDTH 488 0
DWIDTH 19 0
BBX 20 33 3 -7
BITMAP
003FC0
00FFE0
03FFF0
07FFF0
0FFFF0
1FFFF0
3FFFE0
3FF000
7FC000
7F8000
7F8000
7F0000
7F0000
FF8000
FFC380
FFFF80
FFFF80
FFFF80
FFFF80
FFFF00
7FFF00
7FFF00
7FFC00
7FFC00
0FF000
0F8000
0F0000
0F8000
03C000
E3E000
FFC000
FF8000
080000
ENDCHAR
STARTCHAR 04AC
ENCODING 1196
SWIDTH 565 0
DWIDTH 22 0
BBX 21 31 5 -5
BITMAP
3FFFF0
7FFFF8
7FFFF8
7FFFF8
FFFFF8
FFFFF8
FFFFF8
FFFF00
E0FC00
01F800
01F800
01F800
03F000
03F000
03F000
03F000
03E000
07E000
07E000
07E000
07FC00
0FF800
0FF800
0FF800
0FF800
0FF000
01F000
03F000
03E000
03E000
03C000
ENDCHAR
STARTCHAR 04AD
ENCODING 1197
SWIDTH 565 0
DWIDTH 22 0
BBX 21 31 5 -5
BITMAP
3FFFF0
7FFFF8
7FFFF8
7FFFF8
FFFFF8
FFFFF8
FFFFF8
FFFF00
E0FC00
01F800
01F800
01F800
03F000
03F000
03F000
03F000
03E000
07E000
07E000
07E000
07FC00
0FF800
0FF800
0FF800
0FF800
0FF000
01F000
03F000
03E000
03E000
03C000
ENDCHAR
STARTCHAR 04AE
ENCODING 1198
SWIDTH 591 0
DWIDTH 23 0
BBX 23 27 6 0
BITMAP
000026
0400FC
7E00FC
FE01F8
FE03F0
FF07F0
FF07E0
7F0FC0
7F1FC0
7F3F80
3FBF00
3FFF00
3FFE00
3FFC00
1FFC00
1FF800
1FF000
0FF000
0FE000
0FC000
0FC000
0FC000
0FC000
0FC000
1FC000
1FC000
1F0000
ENDCHAR
STARTCHAR 04AF
ENCODING 1199
SWIDTH 591 0
DWIDTH 23 0
BBX 23 27 6 0
BITMAP
000026
0400FC
7E00FC
FE01F8
FE03F0
FF07F0
FF07E0
7F0FC0
7F1FC0
7F3F80
3FBF00
3FFF00
3FFE00
3FFC00
1FFC00
1FF800
1FF000
0FF000
0FE000
0FC000
0FC000
0FC000
0FC000
0FC000
1FC000
1FC000
1F0000
ENDCHAR
STARTCHAR 04B0
ENCODING 1200
SWIDTH 591 0
DWIDTH 23 0
BBX 25 27 4 0
BITMAP
00000980
01003F00
1F803F00
3F807E00
3F80FC00
3FC1FC00
3FC1F800
1FC3F000
1FC7F000
1FCFE000
0FEFC000
0FFFC000
0FFF8000
0FFF0000
07FF0000
07FE0000
07FC0000
03FC0000
3FFF0000
7FFFC000
FFFFC000
FFFFC000
FFFF8000
FFF00000
07F00000
07F00000
07C00000
ENDCHAR
STARTCHAR 04B1
ENCODING 1201
SWIDTH 591 0
DWIDTH 23 0
BBX 25 27 4 0
BITMAP
00000980
01003F00
1F803F00
3F807E00
3F80FC00
3FC1FC00
3FC1F800
1FC3F000
1FC7F000
1FCFE000
0FEFC000
0FFFC000
0FFF8000
0FFF0000
07FF0000
07FE0000
07FC0000
03FC0000
3FFF0000
7FFFC000
FFFFC000
FFFFC000
FFFF8000
FFF00000
07F00000
07F00000
07C00000
ENDCHAR
STARTCHAR 04B2
ENCODING 1202
SWIDTH 565 0
DWIDTH 22 0
BBX 24 31 2 -5
BITMAP
00C03F
07E07F
0FE07F
1FE0FE
1FF1FC
1FF1FC
0FF3F8
0FF3F0
0FF7F0
07FFE0
03FFE0
03FFC0
01FF80
01FF80
01FF00
03FF00
07FF80
07FF80
0FFF80
1FDF80
1F9FF8
3F8FF8
7F8FF8
7F07F0
FF01F0
0003F0
0003E0
0003E0
0003E0
0007C0
0007C0
ENDCHAR
STARTCHAR 04B3
ENCODING 1203
SWIDTH 565 0
DWIDTH 22 0
BBX 24 31 2 -5
BITMAP
00C03F
07E07F
0FE07F
1FE0FE
1FF1FC
1FF1FC
0FF3F8
0FF3F0
0FF7F0
07FFE0
03FFE0
03FFC0
01FF80
01FF80
01FF00
03FF00
07FF80
07FF80
0FFF80
1FDF80
1F9FF8
3F8FF8
7F8FF8
7F07F0
FF01F0
0003F0
0003E0
0003E0
0003E0
0007C0
0007C0
ENDCHAR
STARTCHAR 04B6
ENCODING 1206
SWIDTH 514 0
DWIDTH 20 0
BBX 18 31 4 -5
BITMAP
0F0FC0
3F0FC0
3F0FC0
7E0FC0
7E0FC0
7E0FC0
7E0FC0
7E1F80
FE1F80
FE1F80
FE1F80
FE3F80
FFFF80
FFFF00
7FFF00
7FFF00
3FFF00
1FBF00
007F00
007E00
007F80
007F80
007F80
007F00
007F00
003F00
003E00
003E00
007E00
007C00
007C00
ENDCHAR
STARTCHAR 04B7
ENCODING 1207
SWIDTH 514 0
DWIDTH 20 0
BBX 18 31 4 -5
BITMAP
0F0FC0
3F0FC0
3F0FC0
7E0FC0
7E0FC0
7E0FC0
7E0FC0
7E1F80
FE1F80
FE1F80
FE1F80
FE3F80
FFFF80
FFFF00
7FFF00
7FFF00
3FFF00
1FBF00
007F00
007E00
007F80
007F80
007F80
007F00
007F00
003F00
003E00
003E00
007E00
007C00
007C00
ENDCHAR
ENDFONT
